<svg width="18" height="20" viewBox="0 0 18 20" fill="none" xmlns="http://www.w3.org/2000/svg">
<path d="M1.875 8.5019C1.875 6.92717 2.50056 5.41695 3.61406 4.30345C4.72755 3.18995 6.23778 2.5644 7.8125 2.5644C9.38723 2.5644 10.8975 3.18995 12.011 4.30345C13.1244 5.41695 13.75 6.92717 13.75 8.5019C13.75 8.75054 13.8488 8.98899 14.0246 9.16481C14.2004 9.34062 14.4389 9.4394 14.6875 9.4394C14.9361 9.4394 15.1746 9.34062 15.3504 9.16481C15.5262 8.98899 15.625 8.75054 15.625 8.5019C15.625 6.95673 15.1668 5.44626 14.3084 4.1615C13.4499 2.87674 12.2298 1.8754 10.8022 1.28409C9.37467 0.692777 7.80384 0.538064 6.28836 0.839511C4.77288 1.14096 3.38083 1.88503 2.28823 2.97762C1.19563 4.07022 0.451566 5.46228 0.150119 6.97775C-0.151329 8.49323 0.00338502 10.0641 0.594695 11.4916C1.186 12.9192 2.18735 14.1393 3.47211 14.9978C4.75687 15.8562 6.26734 16.3144 7.8125 16.3144H13.75V18.9969C13.75 19.2756 14.0875 19.4156 14.2838 19.2181L17.9038 15.5981C17.9329 15.5691 17.9559 15.5346 17.9717 15.4967C17.9875 15.4587 17.9956 15.418 17.9956 15.3769C17.9956 15.3358 17.9875 15.2951 17.9717 15.2571C17.9559 15.2192 17.9329 15.1847 17.9038 15.1556L14.2838 11.5356C14.24 11.4918 14.1843 11.462 14.1236 11.4499C14.0629 11.4378 14 11.444 13.9428 11.4677C13.8857 11.4914 13.8368 11.5315 13.8025 11.583C13.7682 11.6345 13.7499 11.695 13.75 11.7569V14.4394H7.8125C6.23778 14.4394 4.72755 13.8138 3.61406 12.7003C2.50056 11.5868 1.875 10.0766 1.875 8.5019Z" fill="#BEBBB6"/>
</svg>
