<svg width="20" height="18" viewBox="0 0 20 18" fill="none" xmlns="http://www.w3.org/2000/svg">
<path d="M8.36364 4.9091H11.6364M1.40909 11.0455C1.40909 11.0455 4.68182 3.27273 5.09091 2.45455C5.5 1.63637 6.31818 1.63637 6.72727 1.63637C7.13636 1.63637 8.36364 1.63637 8.36364 3.27273V12.2727H11.6364V3.27273C11.6364 1.63637 12.8636 1.63637 13.2727 1.63637C13.6818 1.63637 14.5 1.63637 14.9091 2.45455C15.3182 3.27273 18.5909 11.0455 18.5909 11.0455M15.3182 16.3636C15.8017 16.3636 16.2805 16.2684 16.7272 16.0834C17.1739 15.8983 17.5797 15.6271 17.9216 15.2853C18.2635 14.9434 18.5347 14.5375 18.7197 14.0908C18.9048 13.6441 19 13.1653 19 12.6818C19 12.1983 18.9048 11.7196 18.7197 11.2729C18.5347 10.8262 18.2635 10.4203 17.9216 10.0784C17.5797 9.7365 17.1739 9.46529 16.7272 9.28027C16.2805 9.09524 15.8017 9 15.3182 9C14.3417 9 13.4052 9.38791 12.7147 10.0784C12.0243 10.7689 11.6364 11.7053 11.6364 12.6818C11.6364 13.6583 12.0243 14.5948 12.7147 15.2853C13.4052 15.9757 14.3417 16.3636 15.3182 16.3636ZM4.68182 16.3636C4.19831 16.3636 3.71955 16.2684 3.27285 16.0834C2.82615 15.8983 2.42027 15.6271 2.07838 15.2853C1.73649 14.9434 1.46529 14.5375 1.28026 14.0908C1.09523 13.6441 1 13.1653 1 12.6818C1 12.1983 1.09523 11.7196 1.28026 11.2729C1.46529 10.8262 1.73649 10.4203 2.07838 10.0784C2.42027 9.7365 2.82615 9.46529 3.27285 9.28027C3.71955 9.09524 4.19831 9 4.68182 9C5.6583 9 6.59478 9.38791 7.28526 10.0784C7.97573 10.7689 8.36364 11.7053 8.36364 12.6818C8.36364 13.6583 7.97573 14.5948 7.28526 15.2853C6.59478 15.9757 5.6583 16.3636 4.68182 16.3636Z" stroke="#BEBBB6" stroke-width="2"/>
</svg>
