<svg width="18" height="16" viewBox="0 0 18 16" fill="none" xmlns="http://www.w3.org/2000/svg">
<path d="M5.73263 15.5491C5.21363 15.5491 4.76917 15.3642 4.39927 14.9943C4.02936 14.6244 3.84472 14.1802 3.84535 13.6619V11.7746C3.84535 11.5072 3.93594 11.2829 4.11712 11.1018C4.2983 10.9206 4.52225 10.8303 4.78899 10.8309H6.67628V8.70773C6.12582 8.67628 5.60273 8.55423 5.107 8.3416C4.61127 8.12896 4.15927 7.81064 3.75098 7.38663V6.34862H2.66579L0.401048 4.08388C0.133683 3.81651 0 3.54128 0 3.25819C0 2.9751 0.133683 2.72346 0.401048 2.50328C0.857143 2.11009 1.41924 1.81127 2.08734 1.60681C2.75544 1.40236 3.46726 1.30013 4.2228 1.30013C4.64744 1.30013 5.06013 1.33159 5.46086 1.39449C5.8616 1.4574 6.26674 1.57536 6.67628 1.74836V1.39449C6.67628 1.12713 6.76687 0.903171 6.94805 0.722621C7.12923 0.54207 7.35318 0.451481 7.61992 0.450851H17.0564C17.3237 0.450851 17.548 0.541441 17.7292 0.722621C17.9104 0.9038 18.0006 1.12776 18 1.39449V12.7182C18 13.5046 17.7248 14.173 17.1743 14.7235C16.6239 15.2739 15.9554 15.5491 15.1691 15.5491H5.73263ZM8.56356 10.8309H13.2818C13.5491 10.8309 13.7734 10.9215 13.9546 11.1027C14.1358 11.2839 14.2261 11.5078 14.2254 11.7746V12.7182C14.2254 12.9856 14.316 13.2099 14.4972 13.391C14.6784 13.5722 14.9023 13.6625 15.1691 13.6619C15.4364 13.6619 15.6607 13.5713 15.8419 13.3901C16.0231 13.2089 16.1133 12.985 16.1127 12.7182V2.33814H8.56356V2.90432L13.9423 8.28309C14.0524 8.39318 14.1273 8.49541 14.1669 8.58978C14.2066 8.68414 14.2261 8.8021 14.2254 8.94364C14.2254 9.21101 14.1348 9.43528 13.9537 9.61646C13.7725 9.79764 13.5485 9.88791 13.2818 9.88729C13.1402 9.88729 13.0223 9.86747 12.9279 9.82784C12.8335 9.7882 12.7313 9.71365 12.6212 9.60419L10.2149 7.1979L10.0262 7.38663C9.80603 7.60681 9.57389 7.80341 9.3298 7.97641C9.08571 8.14941 8.8303 8.28309 8.56356 8.37746V10.8309ZM3.46789 4.46134H5.63827V6.49017C5.827 6.61599 6.02359 6.70249 6.22805 6.74967C6.4325 6.79685 6.64482 6.82044 6.86501 6.82044C7.22674 6.82044 7.55324 6.7654 7.84451 6.65531C8.13578 6.54521 8.42265 6.34862 8.70511 6.06553L8.89384 5.8768L7.57274 4.5557C7.11664 4.09961 6.6055 3.75738 6.03932 3.52902C5.47313 3.30065 4.86763 3.18679 4.2228 3.18742C3.90826 3.18742 3.60944 3.21101 3.32634 3.25819C3.04325 3.30537 2.76016 3.37615 2.47706 3.47051L3.46789 4.46134ZM5.73263 13.6619H12.4797C12.4325 13.5203 12.397 13.3709 12.3731 13.2136C12.3491 13.0564 12.3375 12.8912 12.3381 12.7182H5.73263V13.6619Z" fill="#BEBBB6"/>
</svg>
