<svg width="18" height="16" viewBox="0 0 18 16" fill="none" xmlns="http://www.w3.org/2000/svg">
<path d="M0 8.00001C0 10.21 0.91 12.2 2.36 13.64L0.85 15.15C0.780897 15.2205 0.734208 15.3099 0.715817 15.4069C0.697426 15.5039 0.708155 15.6041 0.746654 15.695C0.785153 15.7859 0.849697 15.8634 0.932153 15.9177C1.01461 15.9719 1.11129 16.0006 1.21 16H5.5C5.78 16 6 15.78 6 15.5V11.21C6 10.76 5.46 10.54 5.15 10.86L3.76 12.25C2.68 11.15 2 9.66001 2 8.00001C2 5.61001 3.4 3.54001 5.43 2.58001C5.77 2.42001 6 2.11001 6 1.74001V1.55001C6 0.870009 5.29 0.440009 4.68 0.730009C3.28467 1.36511 2.10151 2.38823 1.27169 3.67729C0.441863 4.96636 0.000410368 6.46694 0 8.00001ZM8 13H10V11H8V13ZM16.79 8.63001e-06H12.5C12.22 8.63001e-06 12 0.220009 12 0.500009V4.79001C12 5.24001 12.54 5.46001 12.85 5.14001L14.24 3.75001C15.32 4.85001 16 6.34001 16 8.00001C16 10.39 14.6 12.46 12.57 13.42C12.23 13.58 12 13.89 12 14.26V14.44C12 15.12 12.71 15.55 13.32 15.26C14.7156 14.628 15.8994 13.6071 16.7294 12.3194C17.5595 11.0317 18.0006 9.53203 18 8.00001C18 5.79001 17.09 3.80001 15.64 2.36001L17.15 0.850009C17.2191 0.779513 17.2658 0.69014 17.2842 0.593152C17.3026 0.496164 17.2918 0.395903 17.2533 0.305003C17.2148 0.214104 17.1503 0.136634 17.0678 0.0823584C16.9854 0.0280824 16.8887 -0.000571234 16.79 8.63001e-06ZM9 9.00001C9.55 9.00001 10 8.55001 10 8.00001V4.00001C10 3.45001 9.55 3.00001 9 3.00001C8.45 3.00001 8 3.45001 8 4.00001V8.00001C8 8.55001 8.45 9.00001 9 9.00001Z" fill="#BEBBB6"/>
</svg>
