<svg width="24" height="25" viewBox="0 0 24 25" fill="none" xmlns="http://www.w3.org/2000/svg">
<path d="M18.9175 12.9239V17.3603H16.3459V13.2203C16.3459 12.1811 15.9739 11.4719 15.0427 11.4719C14.3323 11.4719 13.9087 11.9495 13.7227 12.4127C13.6555 12.5783 13.6375 12.8087 13.6375 13.0391V17.3603H11.0647C11.0647 17.3603 11.0995 10.3499 11.0647 9.62387H13.6375V10.7195L13.6207 10.7447H13.6375V10.7195C13.9795 10.1915 14.5891 9.44147 15.9559 9.44147C17.6479 9.44147 18.9175 10.5479 18.9175 12.9239ZM8.37308 5.89307C7.49348 5.89307 6.91748 6.47147 6.91748 7.22987C6.91748 7.97387 7.47668 8.56787 8.33948 8.56787H8.35628C9.25388 8.56787 9.81188 7.97267 9.81188 7.22987C9.79508 6.47147 9.25388 5.89307 8.37308 5.89307ZM7.06988 17.3603H9.64268V9.62387H7.06988V17.3603Z" fill="#F7F7F5"/>
<path d="M12 22.2694C14.5461 22.2694 16.9879 21.258 18.7882 19.4577C20.5886 17.6573 21.6 15.2155 21.6 12.6694C21.6 10.1234 20.5886 7.68156 18.7882 5.88121C16.9879 4.08086 14.5461 3.06943 12 3.06943C9.45392 3.06943 7.01212 4.08086 5.21178 5.88121C3.41143 7.68156 2.4 10.1234 2.4 12.6694C2.4 15.2155 3.41143 17.6573 5.21178 19.4577C7.01212 21.258 9.45392 22.2694 12 22.2694ZM12 24.6694C5.3724 24.6694 0 19.297 0 12.6694C0 6.04183 5.3724 0.669434 12 0.669434C18.6276 0.669434 24 6.04183 24 12.6694C24 19.297 18.6276 24.6694 12 24.6694Z" fill="#F7F7F5"/>
</svg>
