<svg width="192" height="245" viewBox="0 0 192 245" fill="none" xmlns="http://www.w3.org/2000/svg">
<path d="M41.9466 12L44.4241 4.52177H45.7713L48.2488 12H47.0158L45.8056 7.9355C45.6762 7.52448 45.5544 7.11346 45.4402 6.70245C45.326 6.28382 45.2119 5.86519 45.0977 5.44656H45.052C44.9455 5.86519 44.8313 6.28382 44.7095 6.70245C44.5953 7.11346 44.4774 7.52448 44.3556 7.9355L43.134 12H41.9466ZM43.3395 9.86499V8.95162H46.8217V9.86499H43.3395ZM49.1252 12V6.41702H50.0728L50.1641 7.42173H50.1984C50.3963 7.06399 50.6323 6.78617 50.9063 6.58827C51.1879 6.38276 51.4809 6.28001 51.7854 6.28001C51.9148 6.28001 52.0289 6.29143 52.1279 6.31426C52.2268 6.32948 52.3182 6.35612 52.4019 6.39418L52.1964 7.39889C52.0975 7.36845 52.0061 7.34561 51.9224 7.33039C51.8463 7.31517 51.7511 7.30755 51.637 7.30755C51.4086 7.30755 51.1689 7.39889 50.9177 7.58157C50.6665 7.75663 50.4534 8.0687 50.2783 8.51777V12H49.1252ZM55.5908 12.137C55.0808 12.137 54.6203 12.0228 54.2093 11.7945C53.8059 11.5585 53.4824 11.2236 53.2388 10.7898C52.9953 10.3559 52.8735 9.83074 52.8735 9.21422C52.8735 8.61291 52.9953 8.09534 53.2388 7.66149C53.4824 7.22002 53.7983 6.88131 54.1865 6.64536C54.5746 6.40179 54.9857 6.28001 55.4195 6.28001C55.9066 6.28001 56.3177 6.39038 56.6526 6.61111C56.9951 6.83184 57.2539 7.1401 57.4289 7.5359C57.604 7.93169 57.6915 8.39218 57.6915 8.91737C57.6915 9.02393 57.6839 9.1343 57.6687 9.24847C57.6611 9.35503 57.6497 9.44256 57.6344 9.51106H53.7754L53.764 8.71186H56.6868C56.6868 8.22473 56.5803 7.84797 56.3671 7.58157C56.1616 7.31517 55.8534 7.18197 55.4423 7.18197C55.1988 7.18197 54.9628 7.25047 54.7345 7.38747C54.5061 7.52448 54.3159 7.74521 54.1636 8.04967C54.019 8.34651 53.9467 8.7347 53.9467 9.21422C53.9467 9.67851 54.0304 10.0591 54.1979 10.3559C54.3653 10.6528 54.5823 10.8735 54.8487 11.0181C55.1227 11.1627 55.4195 11.2351 55.7392 11.2351C55.9904 11.2351 56.2225 11.197 56.4356 11.1209C56.6564 11.0448 56.8695 10.942 57.075 10.8126L57.4746 11.5433C57.2158 11.7108 56.9266 11.8516 56.6069 11.9657C56.2948 12.0799 55.9561 12.137 55.5908 12.137ZM61.5294 14.3405C61.3848 14.3405 61.2554 14.3291 61.1412 14.3063C61.0346 14.2834 60.9319 14.2568 60.8329 14.2263L61.0499 13.3244C61.1031 13.3396 61.1678 13.3548 61.244 13.3701C61.3201 13.3929 61.3924 13.4043 61.4609 13.4043C61.7653 13.4043 62.0127 13.3016 62.203 13.096C62.3933 12.8981 62.5379 12.647 62.6368 12.3425L62.751 11.9657L60.5361 6.41702H61.7121L62.751 9.30555C62.8347 9.54912 62.9185 9.80791 63.0022 10.0819C63.0935 10.3483 63.1811 10.6147 63.2648 10.8811H63.3105C63.3866 10.6223 63.4589 10.3597 63.5274 10.0933C63.6035 9.81933 63.6796 9.55673 63.7557 9.30555L64.6577 6.41702H65.7766L63.7215 12.3425C63.5769 12.7383 63.4094 13.0846 63.2191 13.3815C63.0288 13.6859 62.7967 13.9219 62.5227 14.0893C62.2487 14.2568 61.9176 14.3405 61.5294 14.3405ZM69.035 12.137C68.5707 12.137 68.1407 12.0228 67.7449 11.7945C67.3491 11.5661 67.0256 11.2351 66.7744 10.8012C66.5308 10.3597 66.4091 9.83074 66.4091 9.21422C66.4091 8.59769 66.5308 8.0725 66.7744 7.63865C67.0256 7.19719 67.3491 6.86228 67.7449 6.63394C68.1407 6.39799 68.5707 6.28001 69.035 6.28001C69.4917 6.28001 69.9179 6.39799 70.3137 6.63394C70.7171 6.86228 71.0406 7.19719 71.2842 7.63865C71.5353 8.0725 71.6609 8.59769 71.6609 9.21422C71.6609 9.83074 71.5353 10.3597 71.2842 10.8012C71.0406 11.2351 70.7171 11.5661 70.3137 11.7945C69.9179 12.0228 69.4917 12.137 69.035 12.137ZM69.035 11.1894C69.3318 11.1894 69.5868 11.1095 69.7999 10.9496C70.0207 10.7822 70.1881 10.55 70.3023 10.2532C70.4165 9.95633 70.4736 9.61001 70.4736 9.21422C70.4736 8.81842 70.4165 8.4721 70.3023 8.17526C70.1881 7.8708 70.0207 7.63865 69.7999 7.47881C69.5868 7.31136 69.3318 7.22763 69.035 7.22763C68.7381 7.22763 68.4832 7.31136 68.27 7.47881C68.0569 7.63865 67.8895 7.8708 67.7677 8.17526C67.6535 8.4721 67.5964 8.81842 67.5964 9.21422C67.5964 9.61001 67.6535 9.95633 67.7677 10.2532C67.8895 10.55 68.0569 10.7822 68.27 10.9496C68.4832 11.1095 68.7381 11.1894 69.035 11.1894ZM74.6739 12.137C74.0878 12.137 73.654 11.9467 73.3723 11.5661C73.0983 11.1856 72.9613 10.6414 72.9613 9.9335V6.41702H74.1145V9.78507C74.1145 10.2722 74.1906 10.6223 74.3428 10.8355C74.495 11.041 74.7348 11.1437 75.0621 11.1437C75.3209 11.1437 75.553 11.079 75.7585 10.9496C75.964 10.8126 76.181 10.5957 76.4093 10.2988V6.41702H77.5624V12H76.6148L76.5235 11.1551H76.4892C76.2381 11.452 75.9678 11.6917 75.6786 11.8744C75.397 12.0495 75.0621 12.137 74.6739 12.137ZM82.9282 12.137C82.6086 12.137 82.3231 12.0723 82.0719 11.9429C81.8284 11.8059 81.6343 11.6194 81.4897 11.3835C81.3527 11.1399 81.2842 10.8545 81.2842 10.5272C81.2842 9.92589 81.5506 9.46159 82.0834 9.1343C82.6162 8.80701 83.4648 8.57866 84.6294 8.44927C84.6294 8.23615 84.5951 8.03445 84.5266 7.84416C84.4657 7.65387 84.3554 7.50165 84.1955 7.38747C84.0433 7.2733 83.8302 7.21622 83.5562 7.21622C83.2593 7.21622 82.9739 7.2733 82.6999 7.38747C82.4335 7.50165 82.1823 7.63485 81.9464 7.78707L81.5125 7.01071C81.7028 6.88893 81.9159 6.77475 82.1519 6.66819C82.3878 6.55402 82.639 6.46268 82.9054 6.39418C83.1794 6.31807 83.4648 6.28001 83.7617 6.28001C84.2184 6.28001 84.5951 6.37515 84.892 6.56544C85.1964 6.75572 85.421 7.02593 85.5656 7.37606C85.7102 7.72618 85.7825 8.14862 85.7825 8.64336V12H84.8349L84.7436 11.3606H84.7093C84.4581 11.5738 84.1841 11.7564 83.8873 11.9087C83.5904 12.0609 83.2707 12.137 82.9282 12.137ZM83.2822 11.2236C83.5257 11.2236 83.7541 11.1665 83.9672 11.0524C84.1803 10.9382 84.401 10.7746 84.6294 10.5614V9.17997C84.0738 9.24847 83.6323 9.33981 83.305 9.45398C82.9853 9.56815 82.7532 9.70896 82.6086 9.87641C82.4715 10.0439 82.403 10.2303 82.403 10.4359C82.403 10.7099 82.4868 10.9116 82.6542 11.041C82.8217 11.1627 83.031 11.2236 83.2822 11.2236ZM89.7207 12V6.41702H90.6683L90.7597 7.2048H90.7939C91.0299 6.94601 91.2887 6.72908 91.5703 6.55402C91.8595 6.37135 92.1754 6.28001 92.5179 6.28001C92.9365 6.28001 93.2676 6.37135 93.5112 6.55402C93.7548 6.7367 93.9375 6.98787 94.0592 7.30755C94.3332 7.01071 94.6149 6.76714 94.9041 6.57686C95.2009 6.37896 95.5244 6.28001 95.8746 6.28001C96.4606 6.28001 96.8907 6.4703 97.1647 6.85087C97.4463 7.23144 97.5871 7.77566 97.5871 8.48352V12H96.434V8.63194C96.434 8.14481 96.3579 7.79849 96.2057 7.59298C96.061 7.37986 95.8251 7.2733 95.4978 7.2733C95.2999 7.2733 95.0982 7.338 94.8927 7.46739C94.6872 7.58918 94.4664 7.77946 94.2305 8.03825V12H93.0774V8.63194C93.0774 8.14481 93.0012 7.79849 92.849 7.59298C92.7044 7.37986 92.4684 7.2733 92.1412 7.2733C91.7606 7.2733 91.3381 7.52829 90.8739 8.03825V12H89.7207ZM101.605 12.137C101.095 12.137 100.635 12.0228 100.224 11.7945C99.8201 11.5585 99.4966 11.2236 99.2531 10.7898C99.0095 10.3559 98.8877 9.83074 98.8877 9.21422C98.8877 8.61291 99.0095 8.09534 99.2531 7.66149C99.4966 7.22002 99.8125 6.88131 100.201 6.64536C100.589 6.40179 101 6.28001 101.434 6.28001C101.921 6.28001 102.332 6.39038 102.667 6.61111C103.009 6.83184 103.268 7.1401 103.443 7.5359C103.618 7.93169 103.706 8.39218 103.706 8.91737C103.706 9.02393 103.698 9.1343 103.683 9.24847C103.675 9.35503 103.664 9.44256 103.649 9.51106H99.7897L99.7782 8.71186H102.701C102.701 8.22473 102.594 7.84797 102.381 7.58157C102.176 7.31517 101.868 7.18197 101.457 7.18197C101.213 7.18197 100.977 7.25047 100.749 7.38747C100.52 7.52448 100.33 7.74521 100.178 8.04967C100.033 8.34651 99.9609 8.7347 99.9609 9.21422C99.9609 9.67851 100.045 10.0591 100.212 10.3559C100.38 10.6528 100.596 10.8735 100.863 11.0181C101.137 11.1627 101.434 11.2351 101.753 11.2351C102.005 11.2351 102.237 11.197 102.45 11.1209C102.671 11.0448 102.884 10.942 103.089 10.8126L103.489 11.5433C103.23 11.7108 102.941 11.8516 102.621 11.9657C102.309 12.0799 101.97 12.137 101.605 12.137ZM105.007 12V6.41702H105.954L106.046 7.2048H106.08C106.316 6.94601 106.575 6.72908 106.856 6.55402C107.146 6.37135 107.461 6.28001 107.804 6.28001C108.223 6.28001 108.554 6.37135 108.797 6.55402C109.041 6.7367 109.223 6.98787 109.345 7.30755C109.619 7.01071 109.901 6.76714 110.19 6.57686C110.487 6.37896 110.81 6.28001 111.161 6.28001C111.747 6.28001 112.177 6.4703 112.451 6.85087C112.732 7.23144 112.873 7.77566 112.873 8.48352V12H111.72V8.63194C111.72 8.14481 111.644 7.79849 111.492 7.59298C111.347 7.37986 111.111 7.2733 110.784 7.2733C110.586 7.2733 110.384 7.338 110.179 7.46739C109.973 7.58918 109.752 7.77946 109.517 8.03825V12H108.363V8.63194C108.363 8.14481 108.287 7.79849 108.135 7.59298C107.99 7.37986 107.754 7.2733 107.427 7.2733C107.047 7.2733 106.624 7.52829 106.16 8.03825V12H105.007ZM117.165 12.137C116.906 12.137 116.644 12.0761 116.377 11.9543C116.111 11.8249 115.856 11.6461 115.612 11.4177H115.578L115.475 12H114.562V3.90524H115.715V6.05167L115.681 7.01071C115.924 6.79759 116.187 6.62252 116.469 6.48552C116.758 6.34851 117.051 6.28001 117.348 6.28001C117.82 6.28001 118.219 6.39799 118.547 6.63394C118.881 6.8699 119.133 7.20099 119.3 7.62723C119.475 8.04586 119.563 8.54441 119.563 9.12288C119.563 9.75463 119.448 10.2988 119.22 10.7555C118.992 11.2046 118.695 11.5471 118.33 11.7831C117.972 12.019 117.584 12.137 117.165 12.137ZM116.937 11.178C117.211 11.178 117.454 11.1019 117.667 10.9496C117.888 10.7898 118.059 10.5576 118.181 10.2532C118.311 9.94872 118.375 9.57576 118.375 9.1343C118.375 8.74611 118.33 8.41121 118.238 8.12959C118.147 7.84035 118.002 7.61962 117.804 7.46739C117.614 7.31517 117.363 7.23905 117.051 7.23905C116.838 7.23905 116.621 7.29614 116.4 7.41031C116.179 7.51687 115.951 7.68813 115.715 7.92408V10.6642C115.928 10.8545 116.141 10.9877 116.354 11.0638C116.575 11.1399 116.769 11.178 116.937 11.178ZM123.269 12.137C122.759 12.137 122.298 12.0228 121.887 11.7945C121.484 11.5585 121.16 11.2236 120.917 10.7898C120.673 10.3559 120.551 9.83074 120.551 9.21422C120.551 8.61291 120.673 8.09534 120.917 7.66149C121.16 7.22002 121.476 6.88131 121.864 6.64536C122.252 6.40179 122.663 6.28001 123.097 6.28001C123.584 6.28001 123.995 6.39038 124.33 6.61111C124.673 6.83184 124.932 7.1401 125.107 7.5359C125.282 7.93169 125.369 8.39218 125.369 8.91737C125.369 9.02393 125.362 9.1343 125.346 9.24847C125.339 9.35503 125.327 9.44256 125.312 9.51106H121.453L121.442 8.71186H124.365C124.365 8.22473 124.258 7.84797 124.045 7.58157C123.839 7.31517 123.531 7.18197 123.12 7.18197C122.877 7.18197 122.641 7.25047 122.412 7.38747C122.184 7.52448 121.994 7.74521 121.841 8.04967C121.697 8.34651 121.624 8.7347 121.624 9.21422C121.624 9.67851 121.708 10.0591 121.876 10.3559C122.043 10.6528 122.26 10.8735 122.526 11.0181C122.8 11.1627 123.097 11.2351 123.417 11.2351C123.668 11.2351 123.9 11.197 124.113 11.1209C124.334 11.0448 124.547 10.942 124.753 10.8126L125.152 11.5433C124.894 11.7108 124.604 11.8516 124.285 11.9657C123.973 12.0799 123.634 12.137 123.269 12.137ZM126.67 12V6.41702H127.618L127.709 7.42173H127.744C127.941 7.06399 128.177 6.78617 128.451 6.58827C128.733 6.38276 129.026 6.28001 129.331 6.28001C129.46 6.28001 129.574 6.29143 129.673 6.31426C129.772 6.32948 129.863 6.35612 129.947 6.39418L129.742 7.39889C129.643 7.36845 129.551 7.34561 129.468 7.33039C129.391 7.31517 129.296 7.30755 129.182 7.30755C128.954 7.30755 128.714 7.39889 128.463 7.58157C128.212 7.75663 127.999 8.0687 127.823 8.51777V12H126.67ZM135.33 12.137C134.866 12.137 134.436 12.0228 134.04 11.7945C133.644 11.5661 133.321 11.2351 133.07 10.8012C132.826 10.3597 132.704 9.83074 132.704 9.21422C132.704 8.59769 132.826 8.0725 133.07 7.63865C133.321 7.19719 133.644 6.86228 134.04 6.63394C134.436 6.39799 134.866 6.28001 135.33 6.28001C135.787 6.28001 136.213 6.39799 136.609 6.63394C137.012 6.86228 137.336 7.19719 137.579 7.63865C137.831 8.0725 137.956 8.59769 137.956 9.21422C137.956 9.83074 137.831 10.3597 137.579 10.8012C137.336 11.2351 137.012 11.5661 136.609 11.7945C136.213 12.0228 135.787 12.137 135.33 12.137ZM135.33 11.1894C135.627 11.1894 135.882 11.1095 136.095 10.9496C136.316 10.7822 136.483 10.55 136.598 10.2532C136.712 9.95633 136.769 9.61001 136.769 9.21422C136.769 8.81842 136.712 8.4721 136.598 8.17526C136.483 7.8708 136.316 7.63865 136.095 7.47881C135.882 7.31136 135.627 7.22763 135.33 7.22763C135.033 7.22763 134.778 7.31136 134.565 7.47881C134.352 7.63865 134.185 7.8708 134.063 8.17526C133.949 8.4721 133.892 8.81842 133.892 9.21422C133.892 9.61001 133.949 9.95633 134.063 10.2532C134.185 10.55 134.352 10.7822 134.565 10.9496C134.778 11.1095 135.033 11.1894 135.33 11.1894ZM139.519 12V5.70915C139.519 5.32097 139.58 4.98226 139.702 4.69303C139.824 4.40379 140.014 4.17926 140.273 4.01942C140.532 3.85196 140.866 3.76824 141.277 3.76824C141.468 3.76824 141.647 3.78727 141.814 3.82532C141.989 3.86338 142.138 3.90905 142.259 3.96233L142.031 4.83003C141.924 4.77675 141.818 4.7425 141.711 4.72728C141.612 4.70444 141.513 4.69303 141.414 4.69303C141.171 4.69303 140.984 4.77675 140.855 4.9442C140.733 5.10404 140.672 5.35522 140.672 5.69774V12H139.519ZM138.766 7.34181V6.4741L139.576 6.41702H141.803V7.34181H138.766ZM146.425 12.137C146.105 12.137 145.82 12.0723 145.569 11.9429C145.325 11.8059 145.131 11.6194 144.986 11.3835C144.849 11.1399 144.781 10.8545 144.781 10.5272C144.781 9.92589 145.047 9.46159 145.58 9.1343C146.113 8.80701 146.962 8.57866 148.126 8.44927C148.126 8.23615 148.092 8.03445 148.023 7.84416C147.962 7.65387 147.852 7.50165 147.692 7.38747C147.54 7.2733 147.327 7.21622 147.053 7.21622C146.756 7.21622 146.471 7.2733 146.197 7.38747C145.93 7.50165 145.679 7.63485 145.443 7.78707L145.009 7.01071C145.2 6.88893 145.413 6.77475 145.649 6.66819C145.885 6.55402 146.136 6.46268 146.402 6.39418C146.676 6.31807 146.962 6.28001 147.258 6.28001C147.715 6.28001 148.092 6.37515 148.389 6.56544C148.693 6.75572 148.918 7.02593 149.062 7.37606C149.207 7.72618 149.279 8.14862 149.279 8.64336V12H148.332L148.24 11.3606H148.206C147.955 11.5738 147.681 11.7564 147.384 11.9087C147.087 12.0609 146.767 12.137 146.425 12.137ZM146.779 11.2236C147.022 11.2236 147.251 11.1665 147.464 11.0524C147.677 10.9382 147.898 10.7746 148.126 10.5614V9.17997C147.57 9.24847 147.129 9.33981 146.802 9.45398C146.482 9.56815 146.25 9.70896 146.105 9.87641C145.968 10.0439 145.9 10.2303 145.9 10.4359C145.9 10.7099 145.983 10.9116 146.151 11.041C146.318 11.1627 146.528 11.2236 146.779 11.2236ZM40.116 27.137C39.8572 27.137 39.5947 27.0761 39.3283 26.9543C39.0619 26.8249 38.8069 26.6461 38.5633 26.4177H38.5291L38.4263 27H37.5129V18.9052H38.6661V21.0517L38.6318 22.0107C38.8754 21.7976 39.138 21.6225 39.4196 21.4855C39.7088 21.3485 40.0019 21.28 40.2987 21.28C40.7706 21.28 41.1702 21.398 41.4975 21.6339C41.8324 21.8699 42.0836 22.201 42.251 22.6272C42.4261 23.0459 42.5136 23.5444 42.5136 24.1229C42.5136 24.7546 42.3995 25.2988 42.1711 25.7555C41.9428 26.2046 41.6459 26.5471 41.2806 26.7831C40.9228 27.019 40.5347 27.137 40.116 27.137ZM39.8877 26.178C40.1617 26.178 40.4053 26.1019 40.6184 25.9496C40.8391 25.7898 41.0104 25.5576 41.1322 25.2532C41.2616 24.9487 41.3263 24.5758 41.3263 24.1343C41.3263 23.7461 41.2806 23.4112 41.1892 23.1296C41.0979 22.8404 40.9533 22.6196 40.7554 22.4674C40.5651 22.3152 40.3139 22.2391 40.0019 22.2391C39.7887 22.2391 39.5718 22.2961 39.3511 22.4103C39.1304 22.5169 38.902 22.6881 38.6661 22.9241V25.6642C38.8792 25.8545 39.0923 25.9877 39.3054 26.0638C39.5262 26.1399 39.7202 26.178 39.8877 26.178ZM46.2196 27.137C45.7096 27.137 45.2491 27.0228 44.8381 26.7945C44.4347 26.5585 44.1112 26.2236 43.8676 25.7898C43.6241 25.3559 43.5023 24.8307 43.5023 24.2142C43.5023 23.6129 43.6241 23.0953 43.8676 22.6615C44.1112 22.22 44.4271 21.8813 44.8153 21.6454C45.2034 21.4018 45.6145 21.28 46.0483 21.28C46.5354 21.28 46.9465 21.3904 47.2814 21.6111C47.6239 21.8318 47.8827 22.1401 48.0577 22.5359C48.2328 22.9317 48.3203 23.3922 48.3203 23.9174C48.3203 24.0239 48.3127 24.1343 48.2975 24.2485C48.2899 24.355 48.2785 24.4426 48.2632 24.5111H44.4042L44.3928 23.7119H47.3156C47.3156 23.2247 47.2091 22.848 46.9959 22.5816C46.7904 22.3152 46.4822 22.182 46.0711 22.182C45.8276 22.182 45.5916 22.2505 45.3633 22.3875C45.1349 22.5245 44.9447 22.7452 44.7924 23.0497C44.6478 23.3465 44.5755 23.7347 44.5755 24.2142C44.5755 24.6785 44.6592 25.0591 44.8267 25.3559C44.9941 25.6528 45.2111 25.8735 45.4775 26.0181C45.7515 26.1627 46.0483 26.2351 46.368 26.2351C46.6192 26.2351 46.8513 26.197 47.0644 26.1209C47.2852 26.0448 47.4983 25.942 47.7038 25.8126L48.1034 26.5433C47.8446 26.7108 47.5554 26.8516 47.2357 26.9657C46.9236 27.0799 46.5849 27.137 46.2196 27.137ZM51.9504 27.137C51.4405 27.137 50.98 27.0228 50.569 26.7945C50.1656 26.5585 49.8421 26.2236 49.5985 25.7898C49.3549 25.3559 49.2332 24.8307 49.2332 24.2142C49.2332 23.6129 49.3549 23.0953 49.5985 22.6615C49.8421 22.22 50.158 21.8813 50.5461 21.6454C50.9343 21.4018 51.3453 21.28 51.7792 21.28C52.2663 21.28 52.6773 21.3904 53.0122 21.6111C53.3548 21.8318 53.6135 22.1401 53.7886 22.5359C53.9637 22.9317 54.0512 23.3922 54.0512 23.9174C54.0512 24.0239 54.0436 24.1343 54.0284 24.2485C54.0208 24.355 54.0093 24.4426 53.9941 24.5111H50.1351L50.1237 23.7119H53.0465C53.0465 23.2247 52.9399 22.848 52.7268 22.5816C52.5213 22.3152 52.213 22.182 51.802 22.182C51.5585 22.182 51.3225 22.2505 51.0942 22.3875C50.8658 22.5245 50.6755 22.7452 50.5233 23.0497C50.3787 23.3465 50.3064 23.7347 50.3064 24.2142C50.3064 24.6785 50.3901 25.0591 50.5576 25.3559C50.725 25.6528 50.9419 25.8735 51.2083 26.0181C51.4823 26.1627 51.7792 26.2351 52.0989 26.2351C52.35 26.2351 52.5822 26.197 52.7953 26.1209C53.016 26.0448 53.2292 25.942 53.4347 25.8126L53.8343 26.5433C53.5755 26.7108 53.2862 26.8516 52.9666 26.9657C52.6545 27.0799 52.3158 27.137 51.9504 27.137ZM55.3522 27V18.9052H56.4825V24.1457H56.5168L58.7203 21.417H59.9876L58.0923 23.6776L60.2045 27H58.9486L57.4301 24.4654L56.4825 25.5614V27H55.3522ZM63.5014 27.137C62.9914 27.137 62.5309 27.0228 62.1199 26.7945C61.7165 26.5585 61.393 26.2236 61.1494 25.7898C60.9059 25.3559 60.7841 24.8307 60.7841 24.2142C60.7841 23.6129 60.9059 23.0953 61.1494 22.6615C61.393 22.22 61.7089 21.8813 62.0971 21.6454C62.4853 21.4018 62.8963 21.28 63.3301 21.28C63.8173 21.28 64.2283 21.3904 64.5632 21.6111C64.9057 21.8318 65.1645 22.1401 65.3395 22.5359C65.5146 22.9317 65.6021 23.3922 65.6021 23.9174C65.6021 24.0239 65.5945 24.1343 65.5793 24.2485C65.5717 24.355 65.5603 24.4426 65.545 24.5111H61.6861L61.6746 23.7119H64.5974C64.5974 23.2247 64.4909 22.848 64.2777 22.5816C64.0722 22.3152 63.764 22.182 63.353 22.182C63.1094 22.182 62.8734 22.2505 62.6451 22.3875C62.4168 22.5245 62.2265 22.7452 62.0742 23.0497C61.9296 23.3465 61.8573 23.7347 61.8573 24.2142C61.8573 24.6785 61.941 25.0591 62.1085 25.3559C62.2759 25.6528 62.4929 25.8735 62.7593 26.0181C63.0333 26.1627 63.3301 26.2351 63.6498 26.2351C63.901 26.2351 64.1331 26.197 64.3462 26.1209C64.567 26.0448 64.7801 25.942 64.9856 25.8126L65.3852 26.5433C65.1264 26.7108 64.8372 26.8516 64.5175 26.9657C64.2054 27.0799 63.8667 27.137 63.5014 27.137ZM69.2323 27.137C68.7223 27.137 68.2618 27.0228 67.8508 26.7945C67.4474 26.5585 67.1239 26.2236 66.8803 25.7898C66.6368 25.3559 66.515 24.8307 66.515 24.2142C66.515 23.6129 66.6368 23.0953 66.8803 22.6615C67.1239 22.22 67.4398 21.8813 67.8279 21.6454C68.2161 21.4018 68.6271 21.28 69.061 21.28C69.5481 21.28 69.9591 21.3904 70.294 21.6111C70.6366 21.8318 70.8953 22.1401 71.0704 22.5359C71.2455 22.9317 71.333 23.3922 71.333 23.9174C71.333 24.0239 71.3254 24.1343 71.3102 24.2485C71.3026 24.355 71.2911 24.4426 71.2759 24.5111H67.4169L67.4055 23.7119H70.3283C70.3283 23.2247 70.2217 22.848 70.0086 22.5816C69.8031 22.3152 69.4948 22.182 69.0838 22.182C68.8403 22.182 68.6043 22.2505 68.376 22.3875C68.1476 22.5245 67.9573 22.7452 67.8051 23.0497C67.6605 23.3465 67.5882 23.7347 67.5882 24.2142C67.5882 24.6785 67.6719 25.0591 67.8394 25.3559C68.0068 25.6528 68.2237 25.8735 68.4901 26.0181C68.7641 26.1627 69.061 26.2351 69.3807 26.2351C69.6319 26.2351 69.864 26.197 70.0771 26.1209C70.2979 26.0448 70.511 25.942 70.7165 25.8126L71.1161 26.5433C70.8573 26.7108 70.5681 26.8516 70.2484 26.9657C69.9363 27.0799 69.5976 27.137 69.2323 27.137ZM72.634 29.272V21.417H73.5816L73.673 22.0335H73.7072C73.9508 21.828 74.221 21.653 74.5179 21.5084C74.8147 21.3561 75.1192 21.28 75.4312 21.28C75.9031 21.28 76.3027 21.398 76.63 21.6339C76.9573 21.8699 77.2047 22.201 77.3721 22.6272C77.5472 23.0535 77.6347 23.552 77.6347 24.1229C77.6347 24.7622 77.5206 25.3065 77.2922 25.7555C77.0639 26.2046 76.767 26.5471 76.4017 26.7831C76.0439 27.019 75.6558 27.137 75.2371 27.137C74.986 27.137 74.7348 27.0837 74.4836 26.9772C74.2324 26.863 73.9889 26.707 73.7529 26.5091L73.7872 27.4567V29.272H72.634ZM75.0088 26.178C75.2828 26.178 75.5264 26.1019 75.7395 25.9496C75.9602 25.7898 76.1315 25.5576 76.2533 25.2532C76.3827 24.9487 76.4474 24.5758 76.4474 24.1343C76.4474 23.7461 76.4017 23.4112 76.3103 23.1296C76.219 22.8404 76.0744 22.6196 75.8765 22.4674C75.6862 22.3152 75.435 22.2391 75.123 22.2391C74.9098 22.2391 74.6929 22.2961 74.4722 22.4103C74.2591 22.5169 74.0307 22.6881 73.7872 22.9241V25.6642C74.0079 25.8545 74.2248 25.9877 74.4379 26.0638C74.6511 26.1399 74.8413 26.178 75.0088 26.178ZM81.3518 27.137C80.8419 27.137 80.3814 27.0228 79.9703 26.7945C79.5669 26.5585 79.2435 26.2236 78.9999 25.7898C78.7563 25.3559 78.6345 24.8307 78.6345 24.2142C78.6345 23.6129 78.7563 23.0953 78.9999 22.6615C79.2435 22.22 79.5593 21.8813 79.9475 21.6454C80.3357 21.4018 80.7467 21.28 81.1806 21.28C81.6677 21.28 82.0787 21.3904 82.4136 21.6111C82.7561 21.8318 83.0149 22.1401 83.19 22.5359C83.365 22.9317 83.4526 23.3922 83.4526 23.9174C83.4526 24.0239 83.445 24.1343 83.4297 24.2485C83.4221 24.355 83.4107 24.4426 83.3955 24.5111H79.5365L79.5251 23.7119H82.4479C82.4479 23.2247 82.3413 22.848 82.1282 22.5816C81.9227 22.3152 81.6144 22.182 81.2034 22.182C80.9598 22.182 80.7239 22.2505 80.4955 22.3875C80.2672 22.5245 80.0769 22.7452 79.9247 23.0497C79.7801 23.3465 79.7077 23.7347 79.7077 24.2142C79.7077 24.6785 79.7915 25.0591 79.9589 25.3559C80.1264 25.6528 80.3433 25.8735 80.6097 26.0181C80.8837 26.1627 81.1806 26.2351 81.5002 26.2351C81.7514 26.2351 81.9836 26.197 82.1967 26.1209C82.4174 26.0448 82.6305 25.942 82.836 25.8126L83.2356 26.5433C82.9769 26.7108 82.6876 26.8516 82.3679 26.9657C82.0559 27.0799 81.7172 27.137 81.3518 27.137ZM84.7536 27V21.417H85.7012L85.7926 22.4217H85.8268C86.0247 22.064 86.2607 21.7862 86.5347 21.5883C86.8163 21.3828 87.1093 21.28 87.4138 21.28C87.5432 21.28 87.6574 21.2914 87.7563 21.3143C87.8552 21.3295 87.9466 21.3561 88.0303 21.3942L87.8248 22.3989C87.7259 22.3684 87.6345 22.3456 87.5508 22.3304C87.4747 22.3152 87.3795 22.3076 87.2654 22.3076C87.037 22.3076 86.7973 22.3989 86.5461 22.5816C86.2949 22.7566 86.0818 23.0687 85.9067 23.5178V27H84.7536ZM90.4086 27.137C90.0204 27.137 89.6398 27.0647 89.2668 26.9201C88.9015 26.7679 88.5818 26.5814 88.3078 26.3606L88.8558 25.6185C89.0994 25.8088 89.3468 25.9648 89.5979 26.0866C89.8567 26.2008 90.1384 26.2579 90.4428 26.2579C90.7777 26.2579 91.0251 26.1856 91.1849 26.041C91.3448 25.8963 91.4247 25.7175 91.4247 25.5044C91.4247 25.3369 91.3638 25.1961 91.242 25.0819C91.1202 24.9601 90.9642 24.8574 90.7739 24.7737C90.5912 24.6899 90.3971 24.61 90.1916 24.5339C89.9405 24.4349 89.6893 24.3208 89.4381 24.1914C89.1945 24.062 88.989 23.8945 88.8216 23.689C88.6617 23.4835 88.5818 23.2247 88.5818 22.9127C88.5818 22.4408 88.7569 22.0526 89.107 21.7481C89.4647 21.436 89.9519 21.28 90.5684 21.28C90.9414 21.28 91.2801 21.3447 91.5845 21.4741C91.889 21.6035 92.1516 21.7557 92.3723 21.9308L91.8357 22.6501C91.6378 22.5055 91.4361 22.3875 91.2306 22.2961C91.0327 22.2048 90.8196 22.1591 90.5912 22.1591C90.2792 22.1591 90.047 22.2276 89.8948 22.3646C89.7502 22.5016 89.6779 22.6653 89.6779 22.8556C89.6779 23.0154 89.7349 23.1486 89.8491 23.2552C89.9633 23.3541 90.1117 23.4417 90.2944 23.5178C90.4771 23.5939 90.6712 23.67 90.8767 23.7461C91.1354 23.8451 91.3904 23.9592 91.6416 24.0886C91.8928 24.218 92.1021 24.3893 92.2696 24.6024C92.437 24.8079 92.5207 25.0857 92.5207 25.4359C92.5207 25.7479 92.437 26.0333 92.2696 26.2921C92.1097 26.5509 91.8738 26.7564 91.5617 26.9087C91.2496 27.0609 90.8652 27.137 90.4086 27.137ZM97.3613 27.137C97.0417 27.137 96.7562 27.0723 96.505 26.9429C96.2615 26.8059 96.0674 26.6194 95.9228 26.3835C95.7858 26.1399 95.7173 25.8545 95.7173 25.5272C95.7173 24.9259 95.9837 24.4616 96.5165 24.1343C97.0493 23.807 97.8979 23.5787 99.0625 23.4493C99.0625 23.2361 99.0282 23.0344 98.9597 22.8442C98.8988 22.6539 98.7885 22.5016 98.6286 22.3875C98.4764 22.2733 98.2633 22.2162 97.9893 22.2162C97.6924 22.2162 97.407 22.2733 97.133 22.3875C96.8666 22.5016 96.6154 22.6348 96.3795 22.7871L95.9456 22.0107C96.1359 21.8889 96.349 21.7748 96.585 21.6682C96.8209 21.554 97.0721 21.4627 97.3385 21.3942C97.6125 21.3181 97.8979 21.28 98.1948 21.28C98.6515 21.28 99.0282 21.3752 99.3251 21.5654C99.6295 21.7557 99.8541 22.0259 99.9987 22.3761C100.143 22.7262 100.216 23.1486 100.216 23.6434V27H99.268L99.1767 26.3606H99.1424C98.8912 26.5738 98.6172 26.7564 98.3204 26.9087C98.0235 27.0609 97.7038 27.137 97.3613 27.137ZM97.7153 26.2236C97.9588 26.2236 98.1872 26.1665 98.4003 26.0524C98.6134 25.9382 98.8341 25.7746 99.0625 25.5614V24.18C98.5069 24.2485 98.0654 24.3398 97.7381 24.454C97.4184 24.5681 97.1863 24.709 97.0417 24.8764C96.9046 25.0439 96.8361 25.2303 96.8361 25.4359C96.8361 25.7099 96.9199 25.9116 97.0873 26.041C97.2548 26.1627 97.4641 26.2236 97.7153 26.2236ZM103.387 27.137C102.998 27.137 102.618 27.0647 102.245 26.9201C101.88 26.7679 101.56 26.5814 101.286 26.3606L101.834 25.6185C102.077 25.8088 102.325 25.9648 102.576 26.0866C102.835 26.2008 103.116 26.2579 103.421 26.2579C103.756 26.2579 104.003 26.1856 104.163 26.041C104.323 25.8963 104.403 25.7175 104.403 25.5044C104.403 25.3369 104.342 25.1961 104.22 25.0819C104.098 24.9601 103.942 24.8574 103.752 24.7737C103.569 24.6899 103.375 24.61 103.17 24.5339C102.919 24.4349 102.667 24.3208 102.416 24.1914C102.173 24.062 101.967 23.8945 101.8 23.689C101.64 23.4835 101.56 23.2247 101.56 22.9127C101.56 22.4408 101.735 22.0526 102.085 21.7481C102.443 21.436 102.93 21.28 103.546 21.28C103.919 21.28 104.258 21.3447 104.563 21.4741C104.867 21.6035 105.13 21.7557 105.35 21.9308L104.814 22.6501C104.616 22.5055 104.414 22.3875 104.209 22.2961C104.011 22.2048 103.798 22.1591 103.569 22.1591C103.257 22.1591 103.025 22.2276 102.873 22.3646C102.728 22.5016 102.656 22.6653 102.656 22.8556C102.656 23.0154 102.713 23.1486 102.827 23.2552C102.941 23.3541 103.09 23.4417 103.272 23.5178C103.455 23.5939 103.649 23.67 103.855 23.7461C104.114 23.8451 104.369 23.9592 104.62 24.0886C104.871 24.218 105.08 24.3893 105.248 24.6024C105.415 24.8079 105.499 25.0857 105.499 25.4359C105.499 25.7479 105.415 26.0333 105.248 26.2921C105.088 26.5509 104.852 26.7564 104.54 26.9087C104.228 27.0609 103.843 27.137 103.387 27.137ZM108.248 27.137C107.86 27.137 107.479 27.0647 107.106 26.9201C106.741 26.7679 106.421 26.5814 106.147 26.3606L106.695 25.6185C106.939 25.8088 107.186 25.9648 107.437 26.0866C107.696 26.2008 107.978 26.2579 108.282 26.2579C108.617 26.2579 108.864 26.1856 109.024 26.041C109.184 25.8963 109.264 25.7175 109.264 25.5044C109.264 25.3369 109.203 25.1961 109.081 25.0819C108.96 24.9601 108.803 24.8574 108.613 24.7737C108.431 24.6899 108.236 24.61 108.031 24.5339C107.78 24.4349 107.529 24.3208 107.277 24.1914C107.034 24.062 106.828 23.8945 106.661 23.689C106.501 23.4835 106.421 23.2247 106.421 22.9127C106.421 22.4408 106.596 22.0526 106.946 21.7481C107.304 21.436 107.791 21.28 108.408 21.28C108.781 21.28 109.119 21.3447 109.424 21.4741C109.728 21.6035 109.991 21.7557 110.212 21.9308L109.675 22.6501C109.477 22.5055 109.275 22.3875 109.07 22.2961C108.872 22.2048 108.659 22.1591 108.431 22.1591C108.118 22.1591 107.886 22.2276 107.734 22.3646C107.589 22.5016 107.517 22.6653 107.517 22.8556C107.517 23.0154 107.574 23.1486 107.688 23.2552C107.803 23.3541 107.951 23.4417 108.134 23.5178C108.316 23.5939 108.51 23.67 108.716 23.7461C108.975 23.8451 109.23 23.9592 109.481 24.0886C109.732 24.218 109.941 24.3893 110.109 24.6024C110.276 24.8079 110.36 25.0857 110.36 25.4359C110.36 25.7479 110.276 26.0333 110.109 26.2921C109.949 26.5509 109.713 26.7564 109.401 26.9087C109.089 27.0609 108.705 27.137 108.248 27.137ZM113.828 27.137C113.364 27.137 112.934 27.0228 112.538 26.7945C112.142 26.5661 111.819 26.2351 111.568 25.8012C111.324 25.3597 111.202 24.8307 111.202 24.2142C111.202 23.5977 111.324 23.0725 111.568 22.6387C111.819 22.1972 112.142 21.8623 112.538 21.6339C112.934 21.398 113.364 21.28 113.828 21.28C114.285 21.28 114.711 21.398 115.107 21.6339C115.51 21.8623 115.834 22.1972 116.077 22.6387C116.329 23.0725 116.454 23.5977 116.454 24.2142C116.454 24.8307 116.329 25.3597 116.077 25.8012C115.834 26.2351 115.51 26.5661 115.107 26.7945C114.711 27.0228 114.285 27.137 113.828 27.137ZM113.828 26.1894C114.125 26.1894 114.38 26.1095 114.593 25.9496C114.814 25.7822 114.981 25.55 115.096 25.2532C115.21 24.9563 115.267 24.61 115.267 24.2142C115.267 23.8184 115.21 23.4721 115.096 23.1753C114.981 22.8708 114.814 22.6387 114.593 22.4788C114.38 22.3114 114.125 22.2276 113.828 22.2276C113.531 22.2276 113.276 22.3114 113.063 22.4788C112.85 22.6387 112.683 22.8708 112.561 23.1753C112.447 23.4721 112.39 23.8184 112.39 24.2142C112.39 24.61 112.447 24.9563 112.561 25.2532C112.683 25.55 112.85 25.7822 113.063 25.9496C113.276 26.1095 113.531 26.1894 113.828 26.1894ZM120.095 27.137C119.593 27.137 119.14 27.0228 118.737 26.7945C118.341 26.5661 118.025 26.2351 117.789 25.8012C117.553 25.3597 117.435 24.8307 117.435 24.2142C117.435 23.5977 117.564 23.0725 117.823 22.6387C118.082 22.1972 118.417 21.8623 118.828 21.6339C119.247 21.398 119.699 21.28 120.187 21.28C120.544 21.28 120.856 21.3447 121.123 21.4741C121.389 21.5959 121.621 21.7443 121.819 21.9194L121.248 22.6729C121.096 22.5283 120.94 22.4179 120.78 22.3418C120.62 22.2657 120.441 22.2276 120.244 22.2276C119.924 22.2276 119.642 22.3114 119.399 22.4788C119.155 22.6387 118.965 22.8708 118.828 23.1753C118.691 23.4721 118.622 23.8184 118.622 24.2142C118.622 24.61 118.687 24.9563 118.816 25.2532C118.953 25.55 119.14 25.7822 119.376 25.9496C119.619 26.1095 119.897 26.1894 120.209 26.1894C120.445 26.1894 120.666 26.1399 120.872 26.041C121.085 25.942 121.271 25.8202 121.431 25.6756L121.911 26.4406C121.652 26.6689 121.366 26.844 121.054 26.9657C120.742 27.0799 120.422 27.137 120.095 27.137ZM123.063 27V21.417H124.217V27H123.063ZM123.646 20.3666C123.448 20.3666 123.28 20.3019 123.143 20.1725C123.006 20.0355 122.938 19.8681 122.938 19.6702C122.938 19.4723 123.006 19.3087 123.143 19.1793C123.28 19.0499 123.448 18.9852 123.646 18.9852C123.851 18.9852 124.019 19.0499 124.148 19.1793C124.285 19.3087 124.354 19.4723 124.354 19.6702C124.354 19.8681 124.285 20.0355 124.148 20.1725C124.019 20.3019 123.851 20.3666 123.646 20.3666ZM127.298 27.137C126.978 27.137 126.693 27.0723 126.442 26.9429C126.198 26.8059 126.004 26.6194 125.859 26.3835C125.722 26.1399 125.654 25.8545 125.654 25.5272C125.654 24.9259 125.92 24.4616 126.453 24.1343C126.986 23.807 127.834 23.5787 128.999 23.4493C128.999 23.2361 128.965 23.0344 128.896 22.8442C128.835 22.6539 128.725 22.5016 128.565 22.3875C128.413 22.2733 128.2 22.2162 127.926 22.2162C127.629 22.2162 127.344 22.2733 127.07 22.3875C126.803 22.5016 126.552 22.6348 126.316 22.7871L125.882 22.0107C126.072 21.8889 126.286 21.7748 126.522 21.6682C126.757 21.554 127.009 21.4627 127.275 21.3942C127.549 21.3181 127.834 21.28 128.131 21.28C128.588 21.28 128.965 21.3752 129.262 21.5654C129.566 21.7557 129.791 22.0259 129.935 22.3761C130.08 22.7262 130.152 23.1486 130.152 23.6434V27H129.205L129.113 26.3606H129.079C128.828 26.5738 128.554 26.7564 128.257 26.9087C127.96 27.0609 127.64 27.137 127.298 27.137ZM127.652 26.2236C127.895 26.2236 128.124 26.1665 128.337 26.0524C128.55 25.9382 128.771 25.7746 128.999 25.5614V24.18C128.443 24.2485 128.002 24.3398 127.675 24.454C127.355 24.5681 127.123 24.709 126.978 24.8764C126.841 25.0439 126.773 25.2303 126.773 25.4359C126.773 25.7099 126.856 25.9116 127.024 26.041C127.191 26.1627 127.401 26.2236 127.652 26.2236ZM133.677 27.137C133.053 27.137 132.615 26.9581 132.364 26.6004C132.113 26.2351 131.987 25.7631 131.987 25.1847V22.3418H131.177V21.4741L132.044 21.417L132.181 19.8757H133.141V21.417H134.602V22.3418H133.141V25.1961C133.141 25.5234 133.205 25.7746 133.335 25.9496C133.464 26.1247 133.673 26.2122 133.963 26.2122C134.062 26.2122 134.164 26.2008 134.271 26.178C134.385 26.1475 134.484 26.1133 134.568 26.0752L134.773 26.9315C134.621 26.9848 134.45 27.0304 134.259 27.0685C134.069 27.1142 133.875 27.137 133.677 27.137ZM135.807 27V21.417H136.961V27H135.807ZM136.39 20.3666C136.192 20.3666 136.024 20.3019 135.887 20.1725C135.75 20.0355 135.682 19.8681 135.682 19.6702C135.682 19.4723 135.75 19.3087 135.887 19.1793C136.024 19.0499 136.192 18.9852 136.39 18.9852C136.595 18.9852 136.763 19.0499 136.892 19.1793C137.029 19.3087 137.098 19.4723 137.098 19.6702C137.098 19.8681 137.029 20.0355 136.892 20.1725C136.763 20.3019 136.595 20.3666 136.39 20.3666ZM140.955 27.137C140.491 27.137 140.061 27.0228 139.665 26.7945C139.269 26.5661 138.946 26.2351 138.695 25.8012C138.451 25.3597 138.329 24.8307 138.329 24.2142C138.329 23.5977 138.451 23.0725 138.695 22.6387C138.946 22.1972 139.269 21.8623 139.665 21.6339C140.061 21.398 140.491 21.28 140.955 21.28C141.412 21.28 141.838 21.398 142.234 21.6339C142.637 21.8623 142.961 22.1972 143.204 22.6387C143.456 23.0725 143.581 23.5977 143.581 24.2142C143.581 24.8307 143.456 25.3597 143.204 25.8012C142.961 26.2351 142.637 26.5661 142.234 26.7945C141.838 27.0228 141.412 27.137 140.955 27.137ZM140.955 26.1894C141.252 26.1894 141.507 26.1095 141.72 25.9496C141.941 25.7822 142.108 25.55 142.223 25.2532C142.337 24.9563 142.394 24.61 142.394 24.2142C142.394 23.8184 142.337 23.4721 142.223 23.1753C142.108 22.8708 141.941 22.6387 141.72 22.4788C141.507 22.3114 141.252 22.2276 140.955 22.2276C140.658 22.2276 140.403 22.3114 140.19 22.4788C139.977 22.6387 139.81 22.8708 139.688 23.1753C139.574 23.4721 139.517 23.8184 139.517 24.2142C139.517 24.61 139.574 24.9563 139.688 25.2532C139.81 25.55 139.977 25.7822 140.19 25.9496C140.403 26.1095 140.658 26.1894 140.955 26.1894ZM144.95 27V21.417H145.898L145.989 22.1934H146.023C146.282 21.9422 146.56 21.7291 146.857 21.554C147.154 21.3713 147.492 21.28 147.873 21.28C148.467 21.28 148.9 21.4703 149.174 21.8509C149.448 22.2314 149.585 22.7757 149.585 23.4835V27H148.432V23.6319C148.432 23.1448 148.356 22.7985 148.204 22.593C148.059 22.3799 147.82 22.2733 147.485 22.2733C147.218 22.2733 146.982 22.338 146.777 22.4674C146.579 22.5968 146.354 22.7871 146.103 23.0383V27H144.95ZM152.197 24.6252C152.151 24.2827 152.17 23.9783 152.254 23.7119C152.345 23.4455 152.471 23.2019 152.63 22.9812C152.79 22.7604 152.954 22.5549 153.121 22.3646C153.289 22.1667 153.43 21.9727 153.544 21.7824C153.666 21.5845 153.727 21.3752 153.727 21.1544C153.727 20.9641 153.688 20.7929 153.612 20.6407C153.536 20.4884 153.422 20.3704 153.27 20.2867C153.118 20.203 152.935 20.1611 152.722 20.1611C152.486 20.1611 152.265 20.2182 152.06 20.3324C151.854 20.4389 151.664 20.5874 151.489 20.7777L150.838 20.184C151.089 19.9023 151.382 19.6702 151.717 19.4875C152.052 19.3048 152.433 19.2135 152.859 19.2135C153.247 19.2135 153.59 19.2858 153.886 19.4304C154.191 19.5751 154.427 19.7882 154.594 20.0698C154.762 20.3438 154.845 20.6787 154.845 21.0745C154.845 21.3637 154.785 21.6263 154.663 21.8623C154.541 22.0982 154.393 22.319 154.217 22.5245C154.042 22.73 153.871 22.9393 153.704 23.1524C153.544 23.3579 153.411 23.5787 153.304 23.8146C153.205 24.0506 153.175 24.3208 153.213 24.6252H152.197ZM152.722 27.137C152.509 27.137 152.326 27.0609 152.174 26.9087C152.022 26.7564 151.945 26.5623 151.945 26.3264C151.945 26.0828 152.022 25.8849 152.174 25.7327C152.326 25.5805 152.509 25.5044 152.722 25.5044C152.943 25.5044 153.125 25.5805 153.27 25.7327C153.422 25.8849 153.498 26.0828 153.498 26.3264C153.498 26.5623 153.422 26.7564 153.27 26.9087C153.125 27.0609 152.943 27.137 152.722 27.137Z" fill="black"/>
<path d="M96 149.143V54C148.546 54 191.143 96.5969 191.143 149.143C191.143 194.933 158.525 234.228 113.517 242.659L96 149.143Z" fill="#A887BF" stroke="white" stroke-width="0.237857"/>
<path d="M95.9998 149.143L113.517 242.659C61.8691 252.333 12.1578 218.307 2.48348 166.66C-1.31536 146.379 1.58164 125.413 10.7377 106.923L95.9998 149.143Z" fill="#D7C8E1" stroke="white" stroke-width="0.237857"/>
<path d="M95.9993 149.143L10.7373 106.923C15.9641 96.3675 23.1055 86.8743 31.7983 78.9263L95.9993 149.143Z" fill="#FFC835" stroke="white" stroke-width="0.237857"/>
<path d="M96.0003 149.143L31.7993 78.9264C40.4921 70.9783 50.5852 64.7135 61.5653 60.4504L96.0003 149.143Z" fill="#CE801C" stroke="white" stroke-width="0.237857"/>
<path d="M95.9995 149.143L61.5645 60.4502C72.5446 56.1871 84.2208 54 95.9995 54V149.143Z" fill="#935015" stroke="white" stroke-width="0.237857"/>
<path d="M49.4784 177.454C49.0902 177.454 48.7477 177.405 48.4509 177.306C48.154 177.207 47.8953 177.081 47.6745 176.929C47.4538 176.769 47.2635 176.602 47.1037 176.427L47.5261 175.879C47.7468 176.107 48.0056 176.312 48.3025 176.495C48.6069 176.67 48.9837 176.758 49.4328 176.758C49.8894 176.758 50.2624 176.632 50.5516 176.381C50.8485 176.122 50.9969 175.78 50.9969 175.353C50.9969 175.057 50.917 174.794 50.7571 174.566C50.6049 174.337 50.3537 174.162 50.0036 174.04C49.6611 173.911 49.1968 173.846 48.6107 173.846V173.196C49.1359 173.196 49.5507 173.135 49.8552 173.013C50.1673 172.883 50.3918 172.712 50.5288 172.499C50.6658 172.286 50.7343 172.046 50.7343 171.78C50.7343 171.414 50.6163 171.125 50.3804 170.912C50.1444 170.691 49.8247 170.581 49.4213 170.581C49.1093 170.581 48.82 170.653 48.5536 170.798C48.2872 170.935 48.0475 171.114 47.8344 171.335L47.3777 170.798C47.6593 170.539 47.9676 170.326 48.3025 170.159C48.6374 169.984 49.0179 169.896 49.4442 169.896C49.8552 169.896 50.2205 169.968 50.5402 170.113C50.8599 170.258 51.1111 170.467 51.2938 170.741C51.484 171.007 51.5792 171.335 51.5792 171.723C51.5792 172.172 51.4536 172.541 51.2024 172.83C50.9589 173.112 50.6354 173.325 50.232 173.47V173.515C50.5288 173.584 50.799 173.702 51.0426 173.869C51.2861 174.029 51.4802 174.238 51.6249 174.497C51.7695 174.748 51.8418 175.041 51.8418 175.376C51.8418 175.81 51.7352 176.183 51.5221 176.495C51.309 176.8 51.0235 177.036 50.6658 177.203C50.3081 177.37 49.9123 177.454 49.4784 177.454ZM55.0636 177.454C54.6754 177.454 54.3329 177.408 54.036 177.317C53.7468 177.218 53.4918 177.093 53.2711 176.94C53.0579 176.788 52.8677 176.628 52.7002 176.461L53.1226 175.913C53.3434 176.126 53.5984 176.32 53.8876 176.495C54.1844 176.67 54.5536 176.758 54.995 176.758C55.2995 176.758 55.5773 176.685 55.8285 176.541C56.0797 176.396 56.2776 176.194 56.4222 175.936C56.5668 175.677 56.6391 175.372 56.6391 175.022C56.6391 174.497 56.4945 174.09 56.2053 173.801C55.916 173.504 55.5278 173.355 55.0407 173.355C54.7819 173.355 54.5574 173.393 54.3671 173.47C54.1844 173.546 53.9827 173.656 53.762 173.801L53.3053 173.515L53.5451 170.033H57.1186V170.752H54.2758L54.0703 173.024C54.2529 172.925 54.4356 172.849 54.6183 172.796C54.801 172.735 55.0065 172.705 55.2348 172.705C55.6534 172.705 56.0302 172.788 56.3651 172.956C56.7076 173.116 56.9778 173.363 57.1757 173.698C57.3812 174.033 57.484 174.463 57.484 174.988C57.484 175.513 57.3698 175.962 57.1415 176.335C56.9131 176.701 56.6125 176.978 56.2395 177.169C55.8742 177.359 55.4822 177.454 55.0636 177.454ZM59.4156 177.454C59.2482 177.454 59.0997 177.393 58.9704 177.271C58.8486 177.15 58.7877 176.99 58.7877 176.792C58.7877 176.586 58.8486 176.423 58.9704 176.301C59.0997 176.179 59.2482 176.118 59.4156 176.118C59.5907 176.118 59.7391 176.179 59.8609 176.301C59.9827 176.423 60.0436 176.586 60.0436 176.792C60.0436 176.99 59.9827 177.15 59.8609 177.271C59.7391 177.393 59.5907 177.454 59.4156 177.454ZM63.4823 177.454C63.0941 177.454 62.7516 177.405 62.4547 177.306C62.1579 177.207 61.8991 177.081 61.6784 176.929C61.4576 176.769 61.2673 176.602 61.1075 176.427L61.5299 175.879C61.7507 176.107 62.0095 176.312 62.3063 176.495C62.6108 176.67 62.9875 176.758 63.4366 176.758C63.8933 176.758 64.2662 176.632 64.5555 176.381C64.8523 176.122 65.0007 175.78 65.0007 175.353C65.0007 175.057 64.9208 174.794 64.761 174.566C64.6088 174.337 64.3576 174.162 64.0075 174.04C63.6649 173.911 63.2006 173.846 62.6146 173.846V173.196C63.1398 173.196 63.5546 173.135 63.859 173.013C64.1711 172.883 64.3956 172.712 64.5326 172.499C64.6697 172.286 64.7382 172.046 64.7382 171.78C64.7382 171.414 64.6202 171.125 64.3842 170.912C64.1483 170.691 63.8286 170.581 63.4252 170.581C63.1131 170.581 62.8239 170.653 62.5575 170.798C62.2911 170.935 62.0513 171.114 61.8382 171.335L61.3815 170.798C61.6631 170.539 61.9714 170.326 62.3063 170.159C62.6412 169.984 63.0218 169.896 63.448 169.896C63.859 169.896 64.2244 169.968 64.5441 170.113C64.8637 170.258 65.1149 170.467 65.2976 170.741C65.4879 171.007 65.583 171.335 65.583 171.723C65.583 172.172 65.4574 172.541 65.2063 172.83C64.9627 173.112 64.6392 173.325 64.2358 173.47V173.515C64.5326 173.584 64.8029 173.702 65.0464 173.869C65.29 174.029 65.4841 174.238 65.6287 174.497C65.7733 174.748 65.8456 175.041 65.8456 175.376C65.8456 175.81 65.7391 176.183 65.5259 176.495C65.3128 176.8 65.0274 177.036 64.6697 177.203C64.3119 177.37 63.9161 177.454 63.4823 177.454ZM68.702 177.454L72.8465 169.679H73.4287L69.2843 177.454H68.702ZM68.508 174.337C68.173 174.337 67.8762 174.246 67.6174 174.063C67.3662 173.873 67.1721 173.603 67.0351 173.253C66.8981 172.895 66.8296 172.465 66.8296 171.962C66.8296 171.209 66.9819 170.63 67.2863 170.227C67.5984 169.816 68.0056 169.611 68.508 169.611C69.0179 169.611 69.4251 169.816 69.7296 170.227C70.034 170.63 70.1863 171.209 70.1863 171.962C70.1863 172.465 70.1178 172.895 69.9808 173.253C69.8438 173.603 69.6497 173.873 69.3985 174.063C69.1473 174.246 68.8505 174.337 68.508 174.337ZM68.508 173.812C68.82 173.812 69.0712 173.656 69.2615 173.344C69.4518 173.024 69.5469 172.564 69.5469 171.962C69.5469 171.354 69.4518 170.897 69.2615 170.592C69.0712 170.288 68.82 170.136 68.508 170.136C68.2035 170.136 67.9523 170.288 67.7544 170.592C67.5641 170.897 67.469 171.354 67.469 171.962C67.469 172.564 67.5641 173.024 67.7544 173.344C67.9523 173.656 68.2035 173.812 68.508 173.812ZM73.6571 177.454C73.3146 177.454 73.0177 177.363 72.7665 177.18C72.5154 176.99 72.3213 176.72 72.1843 176.37C72.0473 176.012 71.9788 175.582 71.9788 175.079C71.9788 174.326 72.131 173.747 72.4355 173.344C72.7399 172.933 73.1471 172.727 73.6571 172.727C74.1671 172.727 74.5743 172.933 74.8787 173.344C75.1832 173.747 75.3354 174.326 75.3354 175.079C75.3354 175.582 75.2631 176.012 75.1185 176.37C74.9815 176.72 74.7874 176.99 74.5362 177.18C74.285 177.363 73.992 177.454 73.6571 177.454ZM73.6571 176.929C73.9692 176.929 74.2165 176.773 74.3992 176.461C74.5895 176.141 74.6846 175.681 74.6846 175.079C74.6846 174.47 74.5895 174.014 74.3992 173.709C74.2165 173.405 73.9692 173.253 73.6571 173.253C73.3526 173.253 73.1015 173.405 72.9036 173.709C72.7133 174.014 72.6181 174.47 72.6181 175.079C72.6181 175.681 72.7133 176.141 72.9036 176.461C73.1015 176.773 73.3526 176.929 73.6571 176.929ZM55.6674 192.317V189.372L53.4182 184.816H54.3202L55.3249 186.997C55.4543 187.271 55.5761 187.541 55.6902 187.807C55.812 188.074 55.9414 188.344 56.0784 188.618H56.1241C56.2535 188.344 56.3829 188.074 56.5123 187.807C56.6493 187.541 56.7749 187.271 56.889 186.997L57.8938 184.816H58.7729L56.5123 189.372V192.317H55.6674ZM61.9214 192.454C61.4419 192.454 61.0004 192.34 60.597 192.112C60.2012 191.876 59.8854 191.545 59.6494 191.118C59.4135 190.684 59.2955 190.163 59.2955 189.554C59.2955 188.953 59.4135 188.435 59.6494 188.001C59.8854 187.568 60.1898 187.233 60.5628 186.997C60.9434 186.761 61.3468 186.643 61.773 186.643C62.2297 186.643 62.6217 186.749 62.949 186.962C63.2763 187.176 63.5236 187.476 63.6911 187.864C63.8661 188.245 63.9537 188.702 63.9537 189.235C63.9537 189.326 63.9499 189.417 63.9423 189.509C63.9423 189.592 63.9346 189.668 63.9194 189.737H59.9463L59.9348 189.132H63.2116C63.2116 188.538 63.086 188.089 62.8348 187.785C62.5836 187.472 62.2335 187.316 61.7844 187.316C61.5104 187.316 61.244 187.396 60.9852 187.556C60.7264 187.716 60.5133 187.96 60.3459 188.287C60.1784 188.614 60.0947 189.037 60.0947 189.554C60.0947 190.049 60.1822 190.46 60.3573 190.787C60.5323 191.115 60.7645 191.362 61.0537 191.529C61.3506 191.697 61.674 191.781 62.0242 191.781C62.3058 191.781 62.557 191.739 62.7777 191.655C63.006 191.571 63.223 191.465 63.4285 191.335L63.7367 191.883C63.5008 192.036 63.2344 192.169 62.9375 192.283C62.6483 192.397 62.3096 192.454 61.9214 192.454ZM66.7644 192.454C66.3686 192.454 65.9919 192.382 65.6341 192.237C65.2764 192.085 64.9681 191.902 64.7093 191.689L65.1318 191.13C65.3753 191.32 65.6265 191.48 65.8853 191.609C66.1441 191.739 66.4486 191.803 66.7987 191.803C67.1793 191.803 67.4647 191.712 67.655 191.529C67.8453 191.347 67.9404 191.13 67.9404 190.879C67.9404 190.681 67.8757 190.517 67.7463 190.388C67.6169 190.251 67.4533 190.136 67.2554 190.045C67.0575 189.946 66.8558 189.859 66.6503 189.783C66.3915 189.691 66.1327 189.581 65.8739 189.451C65.6151 189.322 65.3982 189.158 65.2231 188.96C65.0557 188.763 64.9719 188.508 64.9719 188.196C64.9719 187.762 65.1356 187.396 65.4629 187.1C65.7978 186.795 66.2621 186.643 66.8558 186.643C67.1907 186.643 67.5027 186.704 67.792 186.825C68.0812 186.947 68.3286 187.092 68.5341 187.259L68.1345 187.796C67.9442 187.659 67.7463 187.545 67.5408 187.453C67.3429 187.354 67.1146 187.305 66.8558 187.305C66.4904 187.305 66.2202 187.393 66.0451 187.568C65.8701 187.735 65.7826 187.929 65.7826 188.15C65.7826 188.333 65.8396 188.485 65.9538 188.607C66.0756 188.721 66.2316 188.82 66.4219 188.903C66.6122 188.987 66.8139 189.071 67.027 189.155C67.301 189.254 67.5674 189.368 67.8262 189.497C68.0926 189.619 68.3134 189.783 68.4884 189.988C68.6635 190.194 68.751 190.475 68.751 190.833C68.751 191.122 68.6749 191.392 68.5227 191.644C68.3704 191.887 68.1459 192.085 67.8491 192.237C67.5522 192.382 67.1907 192.454 66.7644 192.454Z" fill="black"/>
<path d="M132.81 143.779V138.801C132.81 138.611 132.818 138.383 132.833 138.116C132.848 137.85 132.86 137.622 132.867 137.431H132.822C132.73 137.599 132.635 137.762 132.536 137.922C132.437 138.082 132.334 138.253 132.228 138.436L130.413 141.062H134.614V141.724H129.522V141.188L132.707 136.495H133.598V143.779H132.81ZM137.002 143.779C137.04 142.851 137.136 142.017 137.288 141.279C137.44 140.541 137.665 139.848 137.961 139.201C138.258 138.546 138.646 137.884 139.126 137.214H135.45V136.495H140.085V136.998C139.651 137.553 139.297 138.09 139.023 138.607C138.749 139.117 138.532 139.635 138.372 140.16C138.22 140.685 138.106 141.241 138.03 141.827C137.954 142.413 137.897 143.064 137.859 143.779H137.002ZM141.948 143.916C141.781 143.916 141.632 143.855 141.503 143.734C141.381 143.612 141.32 143.452 141.32 143.254C141.32 143.049 141.381 142.885 141.503 142.763C141.632 142.641 141.781 142.58 141.948 142.58C142.123 142.58 142.272 142.641 142.393 142.763C142.515 142.885 142.576 143.049 142.576 143.254C142.576 143.452 142.515 143.612 142.393 143.734C142.272 143.855 142.123 143.916 141.948 143.916ZM143.891 143.779V143.083H145.569V137.546H144.245V137.009C144.572 136.956 144.858 136.887 145.101 136.803C145.345 136.712 145.566 136.609 145.764 136.495H146.403V143.083H147.921V143.779H143.891ZM150.766 143.916L154.911 136.141H155.493L151.349 143.916H150.766ZM150.572 140.799C150.237 140.799 149.94 140.708 149.682 140.525C149.43 140.335 149.236 140.065 149.099 139.715C148.962 139.357 148.894 138.927 148.894 138.425C148.894 137.671 149.046 137.093 149.351 136.689C149.663 136.278 150.07 136.073 150.572 136.073C151.082 136.073 151.489 136.278 151.794 136.689C152.098 137.093 152.25 137.671 152.25 138.425C152.25 138.927 152.182 139.357 152.045 139.715C151.908 140.065 151.714 140.335 151.463 140.525C151.212 140.708 150.915 140.799 150.572 140.799ZM150.572 140.274C150.884 140.274 151.135 140.118 151.326 139.806C151.516 139.486 151.611 139.026 151.611 138.425C151.611 137.816 151.516 137.359 151.326 137.055C151.135 136.75 150.884 136.598 150.572 136.598C150.268 136.598 150.017 136.75 149.819 137.055C149.628 137.359 149.533 137.816 149.533 138.425C149.533 139.026 149.628 139.486 149.819 139.806C150.017 140.118 150.268 140.274 150.572 140.274ZM155.721 143.916C155.379 143.916 155.082 143.825 154.831 143.642C154.58 143.452 154.385 143.182 154.248 142.832C154.111 142.474 154.043 142.044 154.043 141.542C154.043 140.788 154.195 140.21 154.5 139.806C154.804 139.395 155.211 139.19 155.721 139.19C156.231 139.19 156.638 139.395 156.943 139.806C157.247 140.21 157.4 140.788 157.4 141.542C157.4 142.044 157.327 142.474 157.183 142.832C157.046 143.182 156.852 143.452 156.6 143.642C156.349 143.825 156.056 143.916 155.721 143.916ZM155.721 143.391C156.033 143.391 156.281 143.235 156.463 142.923C156.654 142.603 156.749 142.143 156.749 141.542C156.749 140.933 156.654 140.476 156.463 140.171C156.281 139.867 156.033 139.715 155.721 139.715C155.417 139.715 155.166 139.867 154.968 140.171C154.777 140.476 154.682 140.933 154.682 141.542C154.682 142.143 154.777 142.603 154.968 142.923C155.166 143.235 155.417 143.391 155.721 143.391ZM137.865 158.779V151.278H138.733L141.564 156.142L142.386 157.683H142.432C142.409 157.303 142.383 156.914 142.352 156.519C142.329 156.115 142.318 155.723 142.318 155.343V151.278H143.117V158.779H142.249L139.418 153.916L138.596 152.374H138.55C138.581 152.747 138.607 153.128 138.63 153.516C138.653 153.897 138.664 154.281 138.664 154.669V158.779H137.865ZM147.245 158.916C146.796 158.916 146.377 158.802 145.989 158.574C145.601 158.345 145.289 158.018 145.053 157.592C144.817 157.158 144.699 156.633 144.699 156.016C144.699 155.4 144.817 154.875 145.053 154.441C145.289 154.007 145.601 153.676 145.989 153.447C146.377 153.219 146.796 153.105 147.245 153.105C147.694 153.105 148.109 153.219 148.489 153.447C148.878 153.676 149.19 154.007 149.426 154.441C149.669 154.875 149.791 155.4 149.791 156.016C149.791 156.633 149.669 157.158 149.426 157.592C149.19 158.018 148.878 158.345 148.489 158.574C148.109 158.802 147.694 158.916 147.245 158.916ZM147.245 158.22C147.58 158.22 147.873 158.129 148.124 157.946C148.383 157.763 148.581 157.508 148.718 157.181C148.862 156.846 148.935 156.458 148.935 156.016C148.935 155.582 148.862 155.198 148.718 154.863C148.581 154.528 148.383 154.27 148.124 154.087C147.873 153.897 147.58 153.801 147.245 153.801C146.918 153.801 146.625 153.897 146.366 154.087C146.115 154.27 145.917 154.528 145.772 154.863C145.635 155.198 145.567 155.582 145.567 156.016C145.567 156.458 145.635 156.846 145.772 157.181C145.917 157.508 146.115 157.763 146.366 157.946C146.625 158.129 146.918 158.22 147.245 158.22Z" fill="white"/>
</svg>
