<svg width="191" height="245" viewBox="0 0 191 245" fill="none" xmlns="http://www.w3.org/2000/svg">
<path d="M65.7503 12V4.52177H67.6912C68.4523 4.52177 69.0993 4.66258 69.6321 4.9442C70.1725 5.22583 70.5835 5.64446 70.8651 6.20009C71.1468 6.74811 71.2876 7.42553 71.2876 8.23234C71.2876 9.03915 71.1468 9.72418 70.8651 10.2874C70.5835 10.8507 70.1801 11.2769 69.6549 11.5661C69.1297 11.8554 68.4942 12 67.7483 12H65.7503ZM66.9148 11.0524H67.6112C68.1517 11.0524 68.6045 10.9458 68.9699 10.7327C69.3352 10.5196 69.6131 10.2075 69.8033 9.79649C69.9936 9.37786 70.0888 8.85648 70.0888 8.23234C70.0888 7.60821 69.9936 7.09443 69.8033 6.69103C69.6131 6.28001 69.3352 5.97555 68.9699 5.77766C68.6045 5.57215 68.1517 5.46939 67.6112 5.46939H66.9148V11.0524ZM74.9764 12.137C74.5121 12.137 74.082 12.0228 73.6862 11.7945C73.2904 11.5661 72.967 11.2351 72.7158 10.8012C72.4722 10.3597 72.3504 9.83074 72.3504 9.21422C72.3504 8.59769 72.4722 8.0725 72.7158 7.63865C72.967 7.19719 73.2904 6.86228 73.6862 6.63394C74.082 6.39799 74.5121 6.28001 74.9764 6.28001C75.4331 6.28001 75.8593 6.39799 76.2551 6.63394C76.6585 6.86228 76.982 7.19719 77.2256 7.63865C77.4767 8.0725 77.6023 8.59769 77.6023 9.21422C77.6023 9.83074 77.4767 10.3597 77.2256 10.8012C76.982 11.2351 76.6585 11.5661 76.2551 11.7945C75.8593 12.0228 75.4331 12.137 74.9764 12.137ZM74.9764 11.1894C75.2732 11.1894 75.5282 11.1095 75.7413 10.9496C75.9621 10.7822 76.1295 10.55 76.2437 10.2532C76.3578 9.95633 76.4149 9.61001 76.4149 9.21422C76.4149 8.81842 76.3578 8.4721 76.2437 8.17526C76.1295 7.8708 75.9621 7.63865 75.7413 7.47881C75.5282 7.31136 75.2732 7.22763 74.9764 7.22763C74.6795 7.22763 74.4245 7.31136 74.2114 7.47881C73.9983 7.63865 73.8309 7.8708 73.7091 8.17526C73.5949 8.4721 73.5378 8.81842 73.5378 9.21422C73.5378 9.61001 73.5949 9.95633 73.7091 10.2532C73.8309 10.55 73.9983 10.7822 74.2114 10.9496C74.4245 11.1095 74.6795 11.1894 74.9764 11.1894ZM81.5081 14.3405C81.3634 14.3405 81.234 14.3291 81.1199 14.3063C81.0133 14.2834 80.9106 14.2568 80.8116 14.2263L81.0285 13.3244C81.0818 13.3396 81.1465 13.3548 81.2226 13.3701C81.2987 13.3929 81.371 13.4043 81.4395 13.4043C81.744 13.4043 81.9914 13.3016 82.1817 13.096C82.3719 12.8981 82.5166 12.647 82.6155 12.3425L82.7297 11.9657L80.5148 6.41702H81.6907L82.7297 9.30555C82.8134 9.54912 82.8971 9.80791 82.9809 10.0819C83.0722 10.3483 83.1597 10.6147 83.2435 10.8811H83.2891C83.3652 10.6223 83.4375 10.3597 83.5061 10.0933C83.5822 9.81933 83.6583 9.55673 83.7344 9.30555L84.6363 6.41702H85.7552L83.7001 12.3425C83.5555 12.7383 83.3881 13.0846 83.1978 13.3815C83.0075 13.6859 82.7754 13.9219 82.5013 14.0893C82.2273 14.2568 81.8962 14.3405 81.5081 14.3405ZM89.0137 12.137C88.5494 12.137 88.1193 12.0228 87.7235 11.7945C87.3277 11.5661 87.0042 11.2351 86.7531 10.8012C86.5095 10.3597 86.3877 9.83074 86.3877 9.21422C86.3877 8.59769 86.5095 8.0725 86.7531 7.63865C87.0042 7.19719 87.3277 6.86228 87.7235 6.63394C88.1193 6.39799 88.5494 6.28001 89.0137 6.28001C89.4703 6.28001 89.8966 6.39799 90.2924 6.63394C90.6958 6.86228 91.0193 7.19719 91.2628 7.63865C91.514 8.0725 91.6396 8.59769 91.6396 9.21422C91.6396 9.83074 91.514 10.3597 91.2628 10.8012C91.0193 11.2351 90.6958 11.5661 90.2924 11.7945C89.8966 12.0228 89.4703 12.137 89.0137 12.137ZM89.0137 11.1894C89.3105 11.1894 89.5655 11.1095 89.7786 10.9496C89.9993 10.7822 90.1668 10.55 90.281 10.2532C90.3951 9.95633 90.4522 9.61001 90.4522 9.21422C90.4522 8.81842 90.3951 8.4721 90.281 8.17526C90.1668 7.8708 89.9993 7.63865 89.7786 7.47881C89.5655 7.31136 89.3105 7.22763 89.0137 7.22763C88.7168 7.22763 88.4618 7.31136 88.2487 7.47881C88.0356 7.63865 87.8681 7.8708 87.7464 8.17526C87.6322 8.4721 87.5751 8.81842 87.5751 9.21422C87.5751 9.61001 87.6322 9.95633 87.7464 10.2532C87.8681 10.55 88.0356 10.7822 88.2487 10.9496C88.4618 11.1095 88.7168 11.1894 89.0137 11.1894ZM94.6526 12.137C94.0665 12.137 93.6326 11.9467 93.351 11.5661C93.077 11.1856 92.94 10.6414 92.94 9.9335V6.41702H94.0931V9.78507C94.0931 10.2722 94.1692 10.6223 94.3215 10.8355C94.4737 11.041 94.7135 11.1437 95.0408 11.1437C95.2995 11.1437 95.5317 11.079 95.7372 10.9496C95.9427 10.8126 96.1596 10.5957 96.388 10.2988V6.41702H97.5411V12H96.5935L96.5022 11.1551H96.4679C96.2167 11.452 95.9465 11.6917 95.6573 11.8744C95.3757 12.0495 95.0408 12.137 94.6526 12.137ZM101.583 12V3.90524H102.713V9.14571H102.747L104.951 6.41702H106.218L104.323 8.67761L106.435 12H105.179L103.66 9.46539L102.713 10.5614V12H101.583ZM109.732 12.137C109.222 12.137 108.761 12.0228 108.35 11.7945C107.947 11.5585 107.623 11.2236 107.38 10.7898C107.136 10.3559 107.014 9.83074 107.014 9.21422C107.014 8.61291 107.136 8.09534 107.38 7.66149C107.623 7.22002 107.939 6.88131 108.327 6.64536C108.716 6.40179 109.127 6.28001 109.56 6.28001C110.048 6.28001 110.459 6.39038 110.793 6.61111C111.136 6.83184 111.395 7.1401 111.57 7.5359C111.745 7.93169 111.832 8.39218 111.832 8.91737C111.832 9.02393 111.825 9.1343 111.81 9.24847C111.802 9.35503 111.791 9.44256 111.775 9.51106H107.916L107.905 8.71186H110.828C110.828 8.22473 110.721 7.84797 110.508 7.58157C110.303 7.31517 109.994 7.18197 109.583 7.18197C109.34 7.18197 109.104 7.25047 108.875 7.38747C108.647 7.52448 108.457 7.74521 108.305 8.04967C108.16 8.34651 108.088 8.7347 108.088 9.21422C108.088 9.67851 108.171 10.0591 108.339 10.3559C108.506 10.6528 108.723 10.8735 108.99 11.0181C109.264 11.1627 109.56 11.2351 109.88 11.2351C110.131 11.2351 110.363 11.197 110.577 11.1209C110.797 11.0448 111.01 10.942 111.216 10.8126L111.616 11.5433C111.357 11.7108 111.067 11.8516 110.748 11.9657C110.436 12.0799 110.097 12.137 109.732 12.137ZM115.463 12.137C114.953 12.137 114.492 12.0228 114.081 11.7945C113.678 11.5585 113.354 11.2236 113.111 10.7898C112.867 10.3559 112.745 9.83074 112.745 9.21422C112.745 8.61291 112.867 8.09534 113.111 7.66149C113.354 7.22002 113.67 6.88131 114.058 6.64536C114.446 6.40179 114.857 6.28001 115.291 6.28001C115.778 6.28001 116.189 6.39038 116.524 6.61111C116.867 6.83184 117.126 7.1401 117.301 7.5359C117.476 7.93169 117.563 8.39218 117.563 8.91737C117.563 9.02393 117.556 9.1343 117.54 9.24847C117.533 9.35503 117.521 9.44256 117.506 9.51106H113.647L113.636 8.71186H116.559C116.559 8.22473 116.452 7.84797 116.239 7.58157C116.033 7.31517 115.725 7.18197 115.314 7.18197C115.071 7.18197 114.835 7.25047 114.606 7.38747C114.378 7.52448 114.188 7.74521 114.035 8.04967C113.891 8.34651 113.818 8.7347 113.818 9.21422C113.818 9.67851 113.902 10.0591 114.07 10.3559C114.237 10.6528 114.454 10.8735 114.72 11.0181C114.994 11.1627 115.291 11.2351 115.611 11.2351C115.862 11.2351 116.094 11.197 116.307 11.1209C116.528 11.0448 116.741 10.942 116.947 10.8126L117.346 11.5433C117.088 11.7108 116.798 11.8516 116.479 11.9657C116.167 12.0799 115.828 12.137 115.463 12.137ZM118.864 14.272V6.41702H119.812L119.903 7.03354H119.938C120.181 6.82803 120.451 6.65297 120.748 6.50835C121.045 6.35612 121.349 6.28001 121.662 6.28001C122.133 6.28001 122.533 6.39799 122.86 6.63394C123.188 6.8699 123.435 7.20099 123.602 7.62723C123.777 8.05347 123.865 8.55202 123.865 9.12288C123.865 9.76224 123.751 10.3065 123.523 10.7555C123.294 11.2046 122.997 11.5471 122.632 11.7831C122.274 12.019 121.886 12.137 121.467 12.137C121.216 12.137 120.965 12.0837 120.714 11.9772C120.463 11.863 120.219 11.707 119.983 11.5091L120.017 12.4567V14.272H118.864ZM121.239 11.178C121.513 11.178 121.757 11.1019 121.97 10.9496C122.191 10.7898 122.362 10.5576 122.484 10.2532C122.613 9.94872 122.678 9.57576 122.678 9.1343C122.678 8.74611 122.632 8.41121 122.541 8.12959C122.449 7.84035 122.305 7.61962 122.107 7.46739C121.917 7.31517 121.665 7.23905 121.353 7.23905C121.14 7.23905 120.923 7.29614 120.702 7.41031C120.489 7.51687 120.261 7.68813 120.017 7.92408V10.6642C120.238 10.8545 120.455 10.9877 120.668 11.0638C120.881 11.1399 121.072 11.178 121.239 11.178ZM59.1588 29.3405C59.0142 29.3405 58.8848 29.3291 58.7706 29.3063C58.664 29.2834 58.5613 29.2568 58.4623 29.2263L58.6793 28.3244C58.7325 28.3396 58.7972 28.3548 58.8733 28.3701C58.9495 28.3929 59.0218 28.4043 59.0903 28.4043C59.3947 28.4043 59.6421 28.3016 59.8324 28.096C60.0227 27.8981 60.1673 27.647 60.2662 27.3425L60.3804 26.9657L58.1655 21.417H59.3414L60.3804 24.3056C60.4641 24.5491 60.5479 24.8079 60.6316 25.0819C60.7229 25.3483 60.8105 25.6147 60.8942 25.8811H60.9398C61.016 25.6223 61.0883 25.3597 61.1568 25.0933C61.2329 24.8193 61.309 24.5567 61.3851 24.3056L62.2871 21.417H63.4059L61.3509 27.3425C61.2062 27.7383 61.0388 28.0846 60.8485 28.3815C60.6582 28.6859 60.4261 28.9219 60.1521 29.0893C59.8781 29.2568 59.547 29.3405 59.1588 29.3405ZM66.6644 27.137C66.2001 27.137 65.77 27.0228 65.3742 26.7945C64.9785 26.5661 64.655 26.2351 64.4038 25.8012C64.1602 25.3597 64.0384 24.8307 64.0384 24.2142C64.0384 23.5977 64.1602 23.0725 64.4038 22.6387C64.655 22.1972 64.9785 21.8623 65.3742 21.6339C65.77 21.398 66.2001 21.28 66.6644 21.28C67.1211 21.28 67.5473 21.398 67.9431 21.6339C68.3465 21.8623 68.67 22.1972 68.9136 22.6387C69.1647 23.0725 69.2903 23.5977 69.2903 24.2142C69.2903 24.8307 69.1647 25.3597 68.9136 25.8012C68.67 26.2351 68.3465 26.5661 67.9431 26.7945C67.5473 27.0228 67.1211 27.137 66.6644 27.137ZM66.6644 26.1894C66.9612 26.1894 67.2162 26.1095 67.4293 25.9496C67.6501 25.7822 67.8175 25.55 67.9317 25.2532C68.0459 24.9563 68.1029 24.61 68.1029 24.2142C68.1029 23.8184 68.0459 23.4721 67.9317 23.1753C67.8175 22.8708 67.6501 22.6387 67.4293 22.4788C67.2162 22.3114 66.9612 22.2276 66.6644 22.2276C66.3675 22.2276 66.1126 22.3114 65.8994 22.4788C65.6863 22.6387 65.5189 22.8708 65.3971 23.1753C65.2829 23.4721 65.2258 23.8184 65.2258 24.2142C65.2258 24.61 65.2829 24.9563 65.3971 25.2532C65.5189 25.55 65.6863 25.7822 65.8994 25.9496C66.1126 26.1095 66.3675 26.1894 66.6644 26.1894ZM72.3033 27.137C71.7172 27.137 71.2834 26.9467 71.0017 26.5661C70.7277 26.1856 70.5907 25.6414 70.5907 24.9335V21.417H71.7439V24.7851C71.7439 25.2722 71.82 25.6223 71.9722 25.8355C72.1244 26.041 72.3642 26.1437 72.6915 26.1437C72.9503 26.1437 73.1824 26.079 73.3879 25.9496C73.5934 25.8126 73.8104 25.5957 74.0387 25.2988V21.417H75.1918V27H74.2442L74.1529 26.1551H74.1186C73.8674 26.452 73.5972 26.6917 73.308 26.8744C73.0264 27.0495 72.6915 27.137 72.3033 27.137ZM76.9476 27V21.417H77.8952L77.9865 22.4217H78.0208C78.2187 22.064 78.4546 21.7862 78.7286 21.5883C79.0103 21.3828 79.3033 21.28 79.6078 21.28C79.7372 21.28 79.8513 21.2914 79.9503 21.3143C80.0492 21.3295 80.1406 21.3561 80.2243 21.3942L80.0188 22.3989C79.9198 22.3684 79.8285 22.3456 79.7448 22.3304C79.6687 22.3152 79.5735 22.3076 79.4593 22.3076C79.231 22.3076 78.9912 22.3989 78.7401 22.5816C78.4889 22.7566 78.2758 23.0687 78.1007 23.5178V27H76.9476ZM85.6075 27.137C85.1432 27.137 84.7131 27.0228 84.3173 26.7945C83.9215 26.5661 83.5981 26.2351 83.3469 25.8012C83.1033 25.3597 82.9815 24.8307 82.9815 24.2142C82.9815 23.5977 83.1033 23.0725 83.3469 22.6387C83.5981 22.1972 83.9215 21.8623 84.3173 21.6339C84.7131 21.398 85.1432 21.28 85.6075 21.28C86.0642 21.28 86.4904 21.398 86.8862 21.6339C87.2896 21.8623 87.6131 22.1972 87.8567 22.6387C88.1078 23.0725 88.2334 23.5977 88.2334 24.2142C88.2334 24.8307 88.1078 25.3597 87.8567 25.8012C87.6131 26.2351 87.2896 26.5661 86.8862 26.7945C86.4904 27.0228 86.0642 27.137 85.6075 27.137ZM85.6075 26.1894C85.9043 26.1894 86.1593 26.1095 86.3724 25.9496C86.5932 25.7822 86.7606 25.55 86.8748 25.2532C86.9889 24.9563 87.046 24.61 87.046 24.2142C87.046 23.8184 86.9889 23.4721 86.8748 23.1753C86.7606 22.8708 86.5932 22.6387 86.3724 22.4788C86.1593 22.3114 85.9043 22.2276 85.6075 22.2276C85.3106 22.2276 85.0556 22.3114 84.8425 22.4788C84.6294 22.6387 84.462 22.8708 84.3402 23.1753C84.226 23.4721 84.1689 23.8184 84.1689 24.2142C84.1689 24.61 84.226 24.9563 84.3402 25.2532C84.462 25.55 84.6294 25.7822 84.8425 25.9496C85.0556 26.1095 85.3106 26.1894 85.6075 26.1894ZM90.5043 27L88.9972 21.417H90.1618L90.9039 24.454C90.9572 24.7204 91.0066 24.9868 91.0523 25.2532C91.1056 25.512 91.1589 25.7746 91.2121 26.041H91.2578C91.3111 25.7746 91.3682 25.512 91.4291 25.2532C91.49 24.9868 91.5546 24.7204 91.6232 24.454L92.4109 21.417H93.4841L94.2833 24.454C94.3519 24.7204 94.4165 24.9868 94.4774 25.2532C94.5383 25.512 94.5992 25.7746 94.6601 26.041H94.7058C94.7591 25.7746 94.8085 25.512 94.8542 25.2532C94.9075 24.9868 94.9646 24.7204 95.0255 24.454L95.7562 21.417H96.8408L95.3908 27H94.0093L93.2901 24.2256C93.2292 23.9592 93.1683 23.6966 93.1074 23.4379C93.0541 23.1715 92.997 22.8936 92.9361 22.6044H92.8905C92.8296 22.8936 92.7725 23.1715 92.7192 23.4379C92.6659 23.7043 92.605 23.9707 92.5365 24.2371L91.8401 27H90.5043ZM97.9979 27V21.417H98.9456L99.0369 22.1934H99.0711C99.3299 21.9422 99.6078 21.7291 99.9046 21.554C100.201 21.3713 100.54 21.28 100.921 21.28C101.514 21.28 101.948 21.4703 102.222 21.8509C102.496 22.2314 102.633 22.7757 102.633 23.4835V27H101.48V23.6319C101.48 23.1448 101.404 22.7985 101.252 22.593C101.107 22.3799 100.867 22.2733 100.533 22.2733C100.266 22.2733 100.03 22.338 99.8247 22.4674C99.6268 22.5968 99.4022 22.7871 99.1511 23.0383V27H97.9979ZM109.209 27.137C108.95 27.137 108.687 27.0761 108.421 26.9543C108.154 26.8249 107.899 26.6461 107.656 26.4177H107.622L107.519 27H106.605V18.9052H107.759V21.0517L107.724 22.0107C107.968 21.7976 108.23 21.6225 108.512 21.4855C108.801 21.3485 109.094 21.28 109.391 21.28C109.863 21.28 110.263 21.398 110.59 21.6339C110.925 21.8699 111.176 22.201 111.344 22.6272C111.519 23.0459 111.606 23.5444 111.606 24.1229C111.606 24.7546 111.492 25.2988 111.264 25.7555C111.035 26.2046 110.738 26.5471 110.373 26.7831C110.015 27.019 109.627 27.137 109.209 27.137ZM108.98 26.178C109.254 26.178 109.498 26.1019 109.711 25.9496C109.932 25.7898 110.103 25.5576 110.225 25.2532C110.354 24.9487 110.419 24.5758 110.419 24.1343C110.419 23.7461 110.373 23.4112 110.282 23.1296C110.19 22.8404 110.046 22.6196 109.848 22.4674C109.658 22.3152 109.406 22.2391 109.094 22.2391C108.881 22.2391 108.664 22.2961 108.444 22.4103C108.223 22.5169 107.994 22.6881 107.759 22.9241V25.6642C107.972 25.8545 108.185 25.9877 108.398 26.0638C108.619 26.1399 108.813 26.178 108.98 26.178ZM115.312 27.137C114.802 27.137 114.342 27.0228 113.931 26.7945C113.527 26.5585 113.204 26.2236 112.96 25.7898C112.717 25.3559 112.595 24.8307 112.595 24.2142C112.595 23.6129 112.717 23.0953 112.96 22.6615C113.204 22.22 113.52 21.8813 113.908 21.6454C114.296 21.4018 114.707 21.28 115.141 21.28C115.628 21.28 116.039 21.3904 116.374 21.6111C116.716 21.8318 116.975 22.1401 117.15 22.5359C117.325 22.9317 117.413 23.3922 117.413 23.9174C117.413 24.0239 117.405 24.1343 117.39 24.2485C117.382 24.355 117.371 24.4426 117.356 24.5111H113.497L113.485 23.7119H116.408C116.408 23.2247 116.302 22.848 116.088 22.5816C115.883 22.3152 115.575 22.182 115.164 22.182C114.92 22.182 114.684 22.2505 114.456 22.3875C114.227 22.5245 114.037 22.7452 113.885 23.0497C113.74 23.3465 113.668 23.7347 113.668 24.2142C113.668 24.6785 113.752 25.0591 113.919 25.3559C114.087 25.6528 114.304 25.8735 114.57 26.0181C114.844 26.1627 115.141 26.2351 115.46 26.2351C115.712 26.2351 115.944 26.197 116.157 26.1209C116.378 26.0448 116.591 25.942 116.796 25.8126L117.196 26.5433C116.937 26.7108 116.648 26.8516 116.328 26.9657C116.016 27.0799 115.677 27.137 115.312 27.137ZM121.043 27.137C120.533 27.137 120.072 27.0228 119.661 26.7945C119.258 26.5585 118.935 26.2236 118.691 25.7898C118.447 25.3559 118.326 24.8307 118.326 24.2142C118.326 23.6129 118.447 23.0953 118.691 22.6615C118.935 22.22 119.25 21.8813 119.639 21.6454C120.027 21.4018 120.438 21.28 120.872 21.28C121.359 21.28 121.77 21.3904 122.105 21.6111C122.447 21.8318 122.706 22.1401 122.881 22.5359C123.056 22.9317 123.144 23.3922 123.144 23.9174C123.144 24.0239 123.136 24.1343 123.121 24.2485C123.113 24.355 123.102 24.4426 123.087 24.5111H119.228L119.216 23.7119H122.139C122.139 23.2247 122.032 22.848 121.819 22.5816C121.614 22.3152 121.305 22.182 120.894 22.182C120.651 22.182 120.415 22.2505 120.187 22.3875C119.958 22.5245 119.768 22.7452 119.616 23.0497C119.471 23.3465 119.399 23.7347 119.399 24.2142C119.399 24.6785 119.483 25.0591 119.65 25.3559C119.817 25.6528 120.034 25.8735 120.301 26.0181C120.575 26.1627 120.872 26.2351 121.191 26.2351C121.443 26.2351 121.675 26.197 121.888 26.1209C122.109 26.0448 122.322 25.942 122.527 25.8126L122.927 26.5433C122.668 26.7108 122.379 26.8516 122.059 26.9657C121.747 27.0799 121.408 27.137 121.043 27.137ZM125.963 27.137C125.575 27.137 125.194 27.0647 124.821 26.9201C124.456 26.7679 124.136 26.5814 123.862 26.3606L124.41 25.6185C124.654 25.8088 124.901 25.9648 125.153 26.0866C125.411 26.2008 125.693 26.2579 125.997 26.2579C126.332 26.2579 126.58 26.1856 126.74 26.041C126.899 25.8963 126.979 25.7175 126.979 25.5044C126.979 25.3369 126.918 25.1961 126.797 25.0819C126.675 24.9601 126.519 24.8574 126.329 24.7737C126.146 24.6899 125.952 24.61 125.746 24.5339C125.495 24.4349 125.244 24.3208 124.993 24.1914C124.749 24.062 124.544 23.8945 124.376 23.689C124.216 23.4835 124.136 23.2247 124.136 22.9127C124.136 22.4408 124.311 22.0526 124.662 21.7481C125.019 21.436 125.506 21.28 126.123 21.28C126.496 21.28 126.835 21.3447 127.139 21.4741C127.444 21.6035 127.706 21.7557 127.927 21.9308L127.39 22.6501C127.192 22.5055 126.991 22.3875 126.785 22.2961C126.587 22.2048 126.374 22.1591 126.146 22.1591C125.834 22.1591 125.602 22.2276 125.449 22.3646C125.305 22.5016 125.232 22.6653 125.232 22.8556C125.232 23.0154 125.29 23.1486 125.404 23.2552C125.518 23.3541 125.666 23.4417 125.849 23.5178C126.032 23.5939 126.226 23.67 126.431 23.7461C126.69 23.8451 126.945 23.9592 127.196 24.0886C127.447 24.218 127.657 24.3893 127.824 24.6024C127.992 24.8079 128.075 25.0857 128.075 25.4359C128.075 25.7479 127.992 26.0333 127.824 26.2921C127.664 26.5509 127.428 26.7564 127.116 26.9087C126.804 27.0609 126.42 27.137 125.963 27.137ZM130.231 24.6252C130.185 24.2827 130.204 23.9783 130.288 23.7119C130.379 23.4455 130.505 23.2019 130.665 22.9812C130.824 22.7604 130.988 22.5549 131.155 22.3646C131.323 22.1667 131.464 21.9727 131.578 21.7824C131.7 21.5845 131.761 21.3752 131.761 21.1544C131.761 20.9641 131.723 20.7929 131.646 20.6407C131.57 20.4884 131.456 20.3704 131.304 20.2867C131.152 20.203 130.969 20.1611 130.756 20.1611C130.52 20.1611 130.299 20.2182 130.094 20.3324C129.888 20.4389 129.698 20.5874 129.523 20.7777L128.872 20.184C129.123 19.9023 129.416 19.6702 129.751 19.4875C130.086 19.3048 130.467 19.2135 130.893 19.2135C131.281 19.2135 131.624 19.2858 131.92 19.4304C132.225 19.5751 132.461 19.7882 132.628 20.0698C132.796 20.3438 132.879 20.6787 132.879 21.0745C132.879 21.3637 132.819 21.6263 132.697 21.8623C132.575 22.0982 132.427 22.319 132.252 22.5245C132.076 22.73 131.905 22.9393 131.738 23.1524C131.578 23.3579 131.445 23.5787 131.338 23.8146C131.239 24.0506 131.209 24.3208 131.247 24.6252H130.231ZM130.756 27.137C130.543 27.137 130.36 27.0609 130.208 26.9087C130.056 26.7564 129.979 26.5623 129.979 26.3264C129.979 26.0828 130.056 25.8849 130.208 25.7327C130.36 25.5805 130.543 25.5044 130.756 25.5044C130.977 25.5044 131.159 25.5805 131.304 25.7327C131.456 25.8849 131.532 26.0828 131.532 26.3264C131.532 26.5623 131.456 26.7564 131.304 26.9087C131.159 27.0609 130.977 27.137 130.756 27.137Z" fill="black"/>
<path d="M95.7141 149.143V54.0002C148.26 54.0002 190.857 96.5972 190.857 149.143C190.857 201.689 148.26 244.286 95.7141 244.286C43.1682 244.286 0.571289 201.689 0.571289 149.143C0.571289 122.456 11.7792 96.9964 31.4611 78.974L95.7141 149.143Z" fill="#A887BF" stroke="white" stroke-width="0.237857"/>
<path d="M95.7135 149.143L31.4604 78.9738C49.0033 62.9099 71.927 54 95.7135 54V149.143Z" fill="#D7C8E1" stroke="white" stroke-width="0.237857"/>
<path d="M95.054 180.071C94.6049 180.071 94.2015 179.987 93.8438 179.819C93.486 179.644 93.2044 179.405 92.9989 179.1C92.7934 178.796 92.6906 178.453 92.6906 178.073C92.6906 177.753 92.7591 177.467 92.8961 177.216C93.0331 176.965 93.2082 176.744 93.4213 176.554C93.6344 176.364 93.8552 176.208 94.0835 176.086V176.04C93.8171 175.85 93.5774 175.618 93.3642 175.344C93.1587 175.07 93.056 174.743 93.056 174.362C93.056 173.989 93.1435 173.666 93.3186 173.392C93.5012 173.11 93.7448 172.893 94.0493 172.741C94.3537 172.589 94.6962 172.512 95.0768 172.512C95.7162 172.512 96.2147 172.695 96.5725 173.06C96.9378 173.418 97.1205 173.879 97.1205 174.442C97.1205 174.701 97.0634 174.944 96.9492 175.173C96.8427 175.393 96.7095 175.595 96.5496 175.778C96.3974 175.96 96.249 176.109 96.1044 176.223V176.269C96.3175 176.398 96.5192 176.547 96.7095 176.714C96.9074 176.874 97.0672 177.072 97.189 177.308C97.3108 177.536 97.3717 177.81 97.3717 178.13C97.3717 178.495 97.2765 178.822 97.0862 179.112C96.8959 179.401 96.6257 179.633 96.2756 179.808C95.9255 179.983 95.5183 180.071 95.054 180.071ZM95.0768 179.443C95.3737 179.443 95.6324 179.386 95.8532 179.271C96.0815 179.157 96.2566 179.001 96.3784 178.803C96.5078 178.598 96.5725 178.369 96.5725 178.118C96.5725 177.783 96.4773 177.513 96.287 177.308C96.0967 177.102 95.8456 176.927 95.5335 176.782C95.229 176.638 94.8941 176.493 94.5288 176.349C94.2243 176.547 93.9655 176.782 93.7524 177.056C93.5469 177.33 93.4442 177.646 93.4442 178.004C93.4442 178.278 93.5127 178.525 93.6497 178.746C93.7943 178.959 93.9884 179.131 94.2319 179.26C94.4831 179.382 94.7647 179.443 95.0768 179.443ZM95.5678 176.006C95.8342 175.77 96.0359 175.527 96.1729 175.275C96.3175 175.024 96.3898 174.758 96.3898 174.476C96.3898 174.233 96.3365 174.012 96.2299 173.814C96.131 173.608 95.9826 173.445 95.7847 173.323C95.5868 173.201 95.347 173.14 95.0654 173.14C94.7077 173.14 94.4108 173.255 94.1749 173.483C93.9465 173.704 93.8323 173.997 93.8323 174.362C93.8323 174.666 93.9123 174.918 94.0721 175.116C94.2396 175.313 94.4565 175.481 94.7229 175.618C94.9893 175.755 95.2709 175.884 95.5678 176.006ZM100.673 180.071C100.224 180.071 99.8209 179.987 99.4631 179.819C99.1054 179.644 98.8238 179.405 98.6183 179.1C98.4128 178.796 98.31 178.453 98.31 178.073C98.31 177.753 98.3785 177.467 98.5155 177.216C98.6525 176.965 98.8276 176.744 99.0407 176.554C99.2538 176.364 99.4746 176.208 99.7029 176.086V176.04C99.4365 175.85 99.1967 175.618 98.9836 175.344C98.7781 175.07 98.6754 174.743 98.6754 174.362C98.6754 173.989 98.7629 173.666 98.9379 173.392C99.1206 173.11 99.3642 172.893 99.6686 172.741C99.9731 172.589 100.316 172.512 100.696 172.512C101.336 172.512 101.834 172.695 102.192 173.06C102.557 173.418 102.74 173.879 102.74 174.442C102.74 174.701 102.683 174.944 102.569 175.173C102.462 175.393 102.329 175.595 102.169 175.778C102.017 175.96 101.868 176.109 101.724 176.223V176.269C101.937 176.398 102.139 176.547 102.329 176.714C102.527 176.874 102.687 177.072 102.808 177.308C102.93 177.536 102.991 177.81 102.991 178.13C102.991 178.495 102.896 178.822 102.706 179.112C102.515 179.401 102.245 179.633 101.895 179.808C101.545 179.983 101.138 180.071 100.673 180.071ZM100.696 179.443C100.993 179.443 101.252 179.386 101.473 179.271C101.701 179.157 101.876 179.001 101.998 178.803C102.127 178.598 102.192 178.369 102.192 178.118C102.192 177.783 102.097 177.513 101.906 177.308C101.716 177.102 101.465 176.927 101.153 176.782C100.848 176.638 100.514 176.493 100.148 176.349C99.8437 176.547 99.5849 176.782 99.3718 177.056C99.1663 177.33 99.0635 177.646 99.0635 178.004C99.0635 178.278 99.132 178.525 99.269 178.746C99.4137 178.959 99.6078 179.131 99.8513 179.26C100.102 179.382 100.384 179.443 100.696 179.443ZM101.187 176.006C101.454 175.77 101.655 175.527 101.792 175.275C101.937 175.024 102.009 174.758 102.009 174.476C102.009 174.233 101.956 174.012 101.849 173.814C101.75 173.608 101.602 173.445 101.404 173.323C101.206 173.201 100.966 173.14 100.685 173.14C100.327 173.14 100.03 173.255 99.7942 173.483C99.5659 173.704 99.4517 173.997 99.4517 174.362C99.4517 174.666 99.5316 174.918 99.6915 175.116C99.8589 175.313 100.076 175.481 100.342 175.618C100.609 175.755 100.89 175.884 101.187 176.006ZM104.843 180.071C104.675 180.071 104.527 180.01 104.397 179.888C104.276 179.766 104.215 179.606 104.215 179.408C104.215 179.203 104.276 179.039 104.397 178.917C104.527 178.796 104.675 178.735 104.843 178.735C105.018 178.735 105.166 178.796 105.288 178.917C105.41 179.039 105.471 179.203 105.471 179.408C105.471 179.606 105.41 179.766 105.288 179.888C105.166 180.01 105.018 180.071 104.843 180.071ZM106.683 179.934V179.443C107.429 178.689 108.061 178.031 108.578 177.467C109.096 176.897 109.488 176.387 109.754 175.938C110.021 175.489 110.154 175.062 110.154 174.659C110.154 174.233 110.036 173.883 109.8 173.608C109.572 173.334 109.21 173.197 108.715 173.197C108.411 173.197 108.122 173.281 107.848 173.449C107.581 173.616 107.341 173.829 107.128 174.088L106.637 173.608C106.942 173.281 107.265 173.019 107.608 172.821C107.95 172.615 108.354 172.512 108.818 172.512C109.26 172.512 109.64 172.6 109.96 172.775C110.287 172.95 110.538 173.197 110.713 173.517C110.888 173.829 110.976 174.198 110.976 174.625C110.976 175.089 110.843 175.557 110.576 176.029C110.318 176.501 109.956 177.003 109.492 177.536C109.035 178.061 108.506 178.64 107.905 179.271C108.103 179.256 108.308 179.245 108.521 179.237C108.734 179.222 108.936 179.214 109.126 179.214H111.33V179.934H106.683ZM112.302 179.934V179.443C113.048 178.689 113.68 178.031 114.198 177.467C114.715 176.897 115.107 176.387 115.374 175.938C115.64 175.489 115.773 175.062 115.773 174.659C115.773 174.233 115.655 173.883 115.419 173.608C115.191 173.334 114.829 173.197 114.335 173.197C114.03 173.197 113.741 173.281 113.467 173.449C113.201 173.616 112.961 173.829 112.748 174.088L112.257 173.608C112.561 173.281 112.885 173.019 113.227 172.821C113.57 172.615 113.973 172.512 114.437 172.512C114.879 172.512 115.259 172.6 115.579 172.775C115.906 172.95 116.158 173.197 116.333 173.517C116.508 173.829 116.595 174.198 116.595 174.625C116.595 175.089 116.462 175.557 116.196 176.029C115.937 176.501 115.575 177.003 115.111 177.536C114.654 178.061 114.125 178.64 113.524 179.271C113.722 179.256 113.927 179.245 114.141 179.237C114.354 179.222 114.555 179.214 114.746 179.214H116.949V179.934H112.302ZM119.749 180.071L123.893 172.296H124.475L120.331 180.071H119.749ZM119.554 176.954C119.22 176.954 118.923 176.862 118.664 176.68C118.413 176.489 118.219 176.219 118.082 175.869C117.945 175.511 117.876 175.081 117.876 174.579C117.876 173.825 118.028 173.247 118.333 172.844C118.645 172.433 119.052 172.227 119.554 172.227C120.064 172.227 120.472 172.433 120.776 172.844C121.081 173.247 121.233 173.825 121.233 174.579C121.233 175.081 121.164 175.511 121.027 175.869C120.89 176.219 120.696 176.489 120.445 176.68C120.194 176.862 119.897 176.954 119.554 176.954ZM119.554 176.429C119.867 176.429 120.118 176.272 120.308 175.96C120.498 175.641 120.593 175.18 120.593 174.579C120.593 173.97 120.498 173.513 120.308 173.209C120.118 172.904 119.867 172.752 119.554 172.752C119.25 172.752 118.999 172.904 118.801 173.209C118.611 173.513 118.515 173.97 118.515 174.579C118.515 175.18 118.611 175.641 118.801 175.96C118.999 176.272 119.25 176.429 119.554 176.429ZM124.704 180.071C124.361 180.071 124.064 179.979 123.813 179.797C123.562 179.606 123.368 179.336 123.231 178.986C123.094 178.628 123.025 178.198 123.025 177.696C123.025 176.942 123.177 176.364 123.482 175.96C123.786 175.549 124.194 175.344 124.704 175.344C125.214 175.344 125.621 175.549 125.925 175.96C126.23 176.364 126.382 176.942 126.382 177.696C126.382 178.198 126.31 178.628 126.165 178.986C126.028 179.336 125.834 179.606 125.583 179.797C125.332 179.979 125.038 180.071 124.704 180.071ZM124.704 179.545C125.016 179.545 125.263 179.389 125.446 179.077C125.636 178.758 125.731 178.297 125.731 177.696C125.731 177.087 125.636 176.63 125.446 176.326C125.263 176.021 125.016 175.869 124.704 175.869C124.399 175.869 124.148 176.021 123.95 176.326C123.76 176.63 123.665 177.087 123.665 177.696C123.665 178.297 123.76 178.758 123.95 179.077C124.148 179.389 124.399 179.545 124.704 179.545ZM103.904 194.934V191.988L101.655 187.433H102.557L103.562 189.613C103.691 189.887 103.813 190.157 103.927 190.424C104.049 190.69 104.178 190.96 104.315 191.234H104.361C104.49 190.96 104.62 190.69 104.749 190.424C104.886 190.157 105.012 189.887 105.126 189.613L106.131 187.433H107.01L104.749 191.988V194.934H103.904ZM110.158 195.071C109.679 195.071 109.237 194.956 108.834 194.728C108.438 194.492 108.122 194.161 107.886 193.735C107.65 193.301 107.532 192.78 107.532 192.171C107.532 191.569 107.65 191.052 107.886 190.618C108.122 190.184 108.427 189.849 108.8 189.613C109.18 189.377 109.584 189.259 110.01 189.259C110.466 189.259 110.858 189.366 111.186 189.579C111.513 189.792 111.76 190.093 111.928 190.481C112.103 190.861 112.19 191.318 112.19 191.851C112.19 191.942 112.187 192.034 112.179 192.125C112.179 192.209 112.171 192.285 112.156 192.353H108.183L108.172 191.748H111.448C111.448 191.155 111.323 190.705 111.072 190.401C110.82 190.089 110.47 189.933 110.021 189.933C109.747 189.933 109.481 190.013 109.222 190.173C108.963 190.332 108.75 190.576 108.583 190.903C108.415 191.231 108.331 191.653 108.331 192.171C108.331 192.665 108.419 193.076 108.594 193.404C108.769 193.731 109.001 193.978 109.291 194.146C109.587 194.313 109.911 194.397 110.261 194.397C110.543 194.397 110.794 194.355 111.015 194.271C111.243 194.188 111.46 194.081 111.665 193.952L111.974 194.5C111.738 194.652 111.471 194.785 111.174 194.899C110.885 195.014 110.546 195.071 110.158 195.071ZM115.001 195.071C114.605 195.071 114.229 194.998 113.871 194.854C113.513 194.701 113.205 194.519 112.946 194.306L113.369 193.746C113.612 193.936 113.863 194.096 114.122 194.226C114.381 194.355 114.685 194.42 115.035 194.42C115.416 194.42 115.701 194.328 115.892 194.146C116.082 193.963 116.177 193.746 116.177 193.495C116.177 193.297 116.113 193.133 115.983 193.004C115.854 192.867 115.69 192.753 115.492 192.662C115.294 192.563 115.093 192.475 114.887 192.399C114.628 192.308 114.369 192.197 114.111 192.068C113.852 191.938 113.635 191.775 113.46 191.577C113.292 191.379 113.209 191.124 113.209 190.812C113.209 190.378 113.372 190.013 113.7 189.716C114.035 189.412 114.499 189.259 115.093 189.259C115.427 189.259 115.74 189.32 116.029 189.442C116.318 189.564 116.565 189.708 116.771 189.876L116.371 190.412C116.181 190.275 115.983 190.161 115.778 190.07C115.58 189.971 115.351 189.921 115.093 189.921C114.727 189.921 114.457 190.009 114.282 190.184C114.107 190.352 114.019 190.546 114.019 190.766C114.019 190.949 114.076 191.101 114.191 191.223C114.312 191.337 114.468 191.436 114.659 191.52C114.849 191.604 115.051 191.687 115.264 191.771C115.538 191.87 115.804 191.984 116.063 192.114C116.329 192.235 116.55 192.399 116.725 192.604C116.9 192.81 116.988 193.092 116.988 193.449C116.988 193.739 116.912 194.009 116.759 194.26C116.607 194.504 116.383 194.701 116.086 194.854C115.789 194.998 115.427 195.071 115.001 195.071Z" fill="white"/>
<path d="M58.2406 88.1208V87.4244H59.9189V81.8871H58.5945V81.3505C58.9218 81.2972 59.2073 81.2287 59.4508 81.145C59.6944 81.0536 59.9151 80.9509 60.113 80.8367H60.7524V87.4244H62.2709V88.1208H58.2406ZM63.3917 88.1208V87.4244H65.07V81.8871H63.7456V81.3505C64.0729 81.2972 64.3583 81.2287 64.6019 81.145C64.8455 81.0536 65.0662 80.9509 65.2641 80.8367H65.9035V87.4244H67.4219V88.1208H63.3917ZM69.3648 88.2579C69.1974 88.2579 69.0489 88.197 68.9196 88.0752C68.7978 87.9534 68.7369 87.7936 68.7369 87.5957C68.7369 87.3902 68.7978 87.2265 68.9196 87.1047C69.0489 86.9829 69.1974 86.922 69.3648 86.922C69.5399 86.922 69.6883 86.9829 69.8101 87.1047C69.9319 87.2265 69.9928 87.3902 69.9928 87.5957C69.9928 87.7936 69.9319 87.9534 69.8101 88.0752C69.6883 88.197 69.5399 88.2579 69.3648 88.2579ZM73.5799 88.2579C73.1308 88.2579 72.7274 88.1741 72.3697 88.0067C72.0119 87.8316 71.7303 87.5919 71.5248 87.2874C71.3193 86.9829 71.2165 86.6404 71.2165 86.2599C71.2165 85.9402 71.285 85.6547 71.4221 85.4036C71.5591 85.1524 71.7341 84.9317 71.9472 84.7414C72.1604 84.5511 72.3811 84.3951 72.6094 84.2733V84.2276C72.343 84.0373 72.1033 83.8052 71.8902 83.5312C71.6846 83.2571 71.5819 82.9299 71.5819 82.5493C71.5819 82.1763 71.6694 81.8528 71.8445 81.5788C72.0272 81.2972 72.2707 81.0803 72.5752 80.928C72.8796 80.7758 73.2222 80.6997 73.6027 80.6997C74.2421 80.6997 74.7406 80.8824 75.0984 81.2477C75.4637 81.6055 75.6464 82.066 75.6464 82.6292C75.6464 82.888 75.5893 83.1316 75.4751 83.3599C75.3686 83.5806 75.2354 83.7823 75.0755 83.965C74.9233 84.1477 74.7749 84.2961 74.6303 84.4103V84.4559C74.8434 84.5853 75.0451 84.7338 75.2354 84.9012C75.4333 85.0611 75.5931 85.259 75.7149 85.4949C75.8367 85.7232 75.8976 85.9973 75.8976 86.3169C75.8976 86.6823 75.8024 87.0096 75.6121 87.2988C75.4219 87.588 75.1517 87.8202 74.8015 87.9953C74.4514 88.1703 74.0442 88.2579 73.5799 88.2579ZM73.6027 87.6299C73.8996 87.6299 74.1584 87.5728 74.3791 87.4587C74.6074 87.3445 74.7825 87.1884 74.9043 86.9906C75.0337 86.785 75.0984 86.5567 75.0984 86.3055C75.0984 85.9706 75.0032 85.7004 74.8129 85.4949C74.6227 85.2894 74.3715 85.1143 74.0594 84.9697C73.755 84.8251 73.4201 84.6805 73.0547 84.5359C72.7502 84.7338 72.4915 84.9697 72.2783 85.2437C72.0728 85.5177 71.9701 85.8336 71.9701 86.1914C71.9701 86.4654 72.0386 86.7127 72.1756 86.9335C72.3202 87.1466 72.5143 87.3178 72.7579 87.4472C73.009 87.569 73.2907 87.6299 73.6027 87.6299ZM74.0937 84.1934C74.3601 83.9574 74.5618 83.7138 74.6988 83.4627C74.8434 83.2115 74.9157 82.9451 74.9157 82.6635C74.9157 82.4199 74.8624 82.1992 74.7559 82.0013C74.6569 81.7958 74.5085 81.6321 74.3106 81.5103C74.1127 81.3885 73.8729 81.3276 73.5913 81.3276C73.2336 81.3276 72.9367 81.4418 72.7008 81.6702C72.4724 81.8909 72.3583 82.1839 72.3583 82.5493C72.3583 82.8537 72.4382 83.1049 72.598 83.3028C72.7655 83.5007 72.9824 83.6682 73.2488 83.8052C73.5152 83.9422 73.7968 84.0716 74.0937 84.1934ZM78.6512 88.2579L82.7957 80.4828H83.3779L79.2335 88.2579H78.6512ZM78.4572 85.141C78.1222 85.141 77.8254 85.0496 77.5666 84.867C77.3154 84.6767 77.1213 84.4065 76.9843 84.0563C76.8473 83.6986 76.7788 83.2686 76.7788 82.7662C76.7788 82.0127 76.9311 81.4342 77.2355 81.0308C77.5476 80.6198 77.9548 80.4143 78.4572 80.4143C78.9671 80.4143 79.3743 80.6198 79.6788 81.0308C79.9832 81.4342 80.1355 82.0127 80.1355 82.7662C80.1355 83.2686 80.067 83.6986 79.93 84.0563C79.793 84.4065 79.5989 84.6767 79.3477 84.867C79.0965 85.0496 78.7997 85.141 78.4572 85.141ZM78.4572 84.6158C78.7692 84.6158 79.0204 84.4598 79.2107 84.1477C79.401 83.828 79.4961 83.3675 79.4961 82.7662C79.4961 82.1573 79.401 81.7006 79.2107 81.3962C79.0204 81.0917 78.7692 80.9395 78.4572 80.9395C78.1527 80.9395 77.9015 81.0917 77.7036 81.3962C77.5133 81.7006 77.4182 82.1573 77.4182 82.7662C77.4182 83.3675 77.5133 83.828 77.7036 84.1477C77.9015 84.4598 78.1527 84.6158 78.4572 84.6158ZM83.6063 88.2579C83.2638 88.2579 82.9669 88.1665 82.7157 87.9838C82.4646 87.7936 82.2705 87.5234 82.1335 87.1732C81.9965 86.8155 81.928 86.3854 81.928 85.8831C81.928 85.1296 82.0802 84.5511 82.3846 84.1477C82.6891 83.7367 83.0963 83.5312 83.6063 83.5312C84.1163 83.5312 84.5235 83.7367 84.8279 84.1477C85.1324 84.5511 85.2846 85.1296 85.2846 85.8831C85.2846 86.3854 85.2123 86.8155 85.0677 87.1732C84.9307 87.5234 84.7366 87.7936 84.4854 87.9838C84.2342 88.1665 83.9412 88.2579 83.6063 88.2579ZM83.6063 87.7327C83.9184 87.7327 84.1657 87.5766 84.3484 87.2646C84.5387 86.9449 84.6338 86.4844 84.6338 85.8831C84.6338 85.2742 84.5387 84.8175 84.3484 84.513C84.1657 84.2086 83.9184 84.0563 83.6063 84.0563C83.3018 84.0563 83.0507 84.2086 82.8528 84.513C82.6625 84.8175 82.5673 85.2742 82.5673 85.8831C82.5673 86.4844 82.6625 86.9449 82.8528 87.2646C83.0507 87.5766 83.3018 87.7327 83.6063 87.7327ZM65.9843 103.121V95.6198H66.852L69.6835 100.483L70.5055 102.025H70.5512C70.5283 101.644 70.5017 101.256 70.4713 100.86C70.4484 100.457 70.437 100.065 70.437 99.6843V95.6198H71.2362V103.121H70.3685L67.5371 98.2571L66.715 96.7158H66.6694C66.6998 97.0888 66.7264 97.4694 66.7493 97.8575C66.7721 98.2381 66.7835 98.6225 66.7835 99.0107V103.121H65.9843ZM75.3641 103.258C74.9151 103.258 74.4964 103.144 74.1082 102.915C73.7201 102.687 73.408 102.36 73.172 101.933C72.9361 101.5 72.8181 100.974 72.8181 100.358C72.8181 99.7414 72.9361 99.2162 73.172 98.7823C73.408 98.3485 73.7201 98.0174 74.1082 97.789C74.4964 97.5607 74.9151 97.4465 75.3641 97.4465C75.8132 97.4465 76.228 97.5607 76.6086 97.789C76.9968 98.0174 77.3089 98.3485 77.5448 98.7823C77.7884 99.2162 77.9102 99.7414 77.9102 100.358C77.9102 100.974 77.7884 101.5 77.5448 101.933C77.3089 102.36 76.9968 102.687 76.6086 102.915C76.228 103.144 75.8132 103.258 75.3641 103.258ZM75.3641 102.561C75.699 102.561 75.9921 102.47 76.2433 102.287C76.502 102.105 76.6999 101.85 76.8369 101.522C76.9816 101.188 77.0539 100.799 77.0539 100.358C77.0539 99.924 76.9816 99.5397 76.8369 99.2048C76.6999 98.8699 76.502 98.6111 76.2433 98.4284C75.9921 98.2381 75.699 98.143 75.3641 98.143C75.0368 98.143 74.7438 98.2381 74.485 98.4284C74.2338 98.6111 74.0359 98.8699 73.8913 99.2048C73.7543 99.5397 73.6858 99.924 73.6858 100.358C73.6858 100.799 73.7543 101.188 73.8913 101.522C74.0359 101.85 74.2338 102.105 74.485 102.287C74.7438 102.47 75.0368 102.561 75.3641 102.561Z" fill="black"/>
</svg>
