<svg width="191" height="245" viewBox="0 0 191 245" fill="none" xmlns="http://www.w3.org/2000/svg">
<path d="M53.0585 12L51.5286 4.52177H52.7274L53.4353 8.42643C53.4962 8.82984 53.5609 9.23325 53.6294 9.63665C53.6979 10.0324 53.7664 10.4282 53.8349 10.824H53.8805C53.9567 10.4282 54.0366 10.0286 54.1203 9.62523C54.2116 9.22183 54.2992 8.82223 54.3829 8.42643L55.3533 4.52177H56.3809L57.3513 8.42643C57.4351 8.82223 57.5188 9.22183 57.6025 9.62523C57.6939 10.021 57.7814 10.4206 57.8651 10.824H57.9108C57.9717 10.4206 58.0326 10.021 58.0935 9.62523C58.162 9.22183 58.2305 8.82223 58.299 8.42643L59.0068 4.52177H60.1257L58.6415 12H57.2143L56.1982 7.82133C56.1373 7.52448 56.0764 7.23524 56.0155 6.95362C55.9623 6.672 55.909 6.39038 55.8557 6.10875H55.81C55.7568 6.39038 55.6997 6.672 55.6388 6.95362C55.5779 7.23524 55.517 7.52448 55.4561 7.82133L54.4628 12H53.0585ZM61.244 12V3.90524H62.3971V6.05167L62.3514 7.15913C62.595 6.92318 62.8614 6.71767 63.1506 6.54261C63.4475 6.36754 63.7862 6.28001 64.1668 6.28001C64.7604 6.28001 65.1943 6.4703 65.4683 6.85087C65.7423 7.23144 65.8793 7.77566 65.8793 8.48352V12H64.7262V8.63194C64.7262 8.14481 64.6501 7.79849 64.4979 7.59298C64.3532 7.37986 64.1135 7.2733 63.7786 7.2733C63.5122 7.2733 63.2762 7.338 63.0707 7.46739C62.8728 7.59679 62.6483 7.78707 62.3971 8.03825V12H61.244ZM67.7946 14.3405C67.65 14.3405 67.5206 14.3291 67.4065 14.3063C67.2999 14.2834 67.1971 14.2568 67.0982 14.2263L67.3151 13.3244C67.3684 13.3396 67.4331 13.3548 67.5092 13.3701C67.5853 13.3929 67.6576 13.4043 67.7261 13.4043C68.0306 13.4043 68.278 13.3016 68.4683 13.096C68.6585 12.8981 68.8032 12.647 68.9021 12.3425L69.0163 11.9657L66.8014 6.41702H67.9773L69.0163 9.30555C69.1 9.54912 69.1837 9.80791 69.2675 10.0819C69.3588 10.3483 69.4463 10.6147 69.5301 10.8811H69.5757C69.6518 10.6223 69.7241 10.3597 69.7926 10.0933C69.8688 9.81933 69.9449 9.55673 70.021 9.30555L70.9229 6.41702H72.0418L69.9867 12.3425C69.8421 12.7383 69.6747 13.0846 69.4844 13.3815C69.2941 13.6859 69.0619 13.9219 68.7879 14.0893C68.5139 14.2568 68.1828 14.3405 67.7946 14.3405ZM77.2777 12.137C76.585 12.137 76.0294 11.882 75.6108 11.3721C75.1921 10.8545 74.9828 10.1352 74.9828 9.21422C74.9828 8.61291 75.0932 8.09534 75.3139 7.66149C75.5422 7.22002 75.8391 6.88131 76.2044 6.64536C76.5698 6.40179 76.958 6.28001 77.369 6.28001C77.6963 6.28001 77.9741 6.3371 78.2024 6.45127C78.4308 6.55783 78.6553 6.71006 78.8761 6.90795L78.8304 5.98317V3.90524H79.9835V12H79.0359L78.9446 11.3721H78.9103C78.7048 11.5776 78.4612 11.7564 78.1796 11.9087C77.898 12.0609 77.5973 12.137 77.2777 12.137ZM77.5517 11.178C77.7876 11.178 78.0084 11.1247 78.2139 11.0181C78.427 10.904 78.6325 10.7289 78.8304 10.4929V7.75282C78.6249 7.56254 78.4194 7.42934 78.2139 7.35322C78.016 7.27711 77.8105 7.23905 77.5973 7.23905C77.3309 7.23905 77.0912 7.31897 76.8781 7.47881C76.6649 7.63104 76.4937 7.85558 76.3643 8.15242C76.2349 8.44927 76.1702 8.79939 76.1702 9.2028C76.1702 9.83455 76.2882 10.3217 76.5241 10.6642C76.7677 11.0067 77.1102 11.178 77.5517 11.178ZM81.7369 12V6.41702H82.89V12H81.7369ZM82.3191 5.36664C82.1212 5.36664 81.9538 5.30194 81.8168 5.17255C81.6798 5.03554 81.6113 4.86809 81.6113 4.67019C81.6113 4.4723 81.6798 4.30865 81.8168 4.17926C81.9538 4.04986 82.1212 3.98516 82.3191 3.98516C82.5246 3.98516 82.6921 4.04986 82.8215 4.17926C82.9585 4.30865 83.027 4.4723 83.027 4.67019C83.027 4.86809 82.9585 5.03554 82.8215 5.17255C82.6921 5.30194 82.5246 5.36664 82.3191 5.36664ZM86.5764 12.137C85.8837 12.137 85.3281 11.882 84.9095 11.3721C84.4909 10.8545 84.2815 10.1352 84.2815 9.21422C84.2815 8.61291 84.3919 8.09534 84.6126 7.66149C84.841 7.22002 85.1378 6.88131 85.5032 6.64536C85.8685 6.40179 86.2567 6.28001 86.6677 6.28001C86.995 6.28001 87.2728 6.3371 87.5012 6.45127C87.7295 6.55783 87.9541 6.71006 88.1748 6.90795L88.1291 5.98317V3.90524H89.2822V12H88.3346L88.2433 11.3721H88.209C88.0035 11.5776 87.76 11.7564 87.4783 11.9087C87.1967 12.0609 86.8961 12.137 86.5764 12.137ZM86.8504 11.178C87.0863 11.178 87.3071 11.1247 87.5126 11.0181C87.7257 10.904 87.9312 10.7289 88.1291 10.4929V7.75282C87.9236 7.56254 87.7181 7.42934 87.5126 7.35322C87.3147 7.27711 87.1092 7.23905 86.8961 7.23905C86.6297 7.23905 86.3899 7.31897 86.1768 7.47881C85.9637 7.63104 85.7924 7.85558 85.663 8.15242C85.5336 8.44927 85.4689 8.79939 85.4689 9.2028C85.4689 9.83455 85.5869 10.3217 85.8229 10.6642C86.0664 11.0067 86.4089 11.178 86.8504 11.178ZM93.5724 14.3405C93.4278 14.3405 93.2984 14.3291 93.1842 14.3063C93.0777 14.2834 92.9749 14.2568 92.876 14.2263L93.0929 13.3244C93.1462 13.3396 93.2109 13.3548 93.287 13.3701C93.3631 13.3929 93.4354 13.4043 93.5039 13.4043C93.8084 13.4043 94.0557 13.3016 94.246 13.096C94.4363 12.8981 94.5809 12.647 94.6799 12.3425L94.7941 11.9657L92.5791 6.41702H93.7551L94.7941 9.30555C94.8778 9.54912 94.9615 9.80791 95.0452 10.0819C95.1366 10.3483 95.2241 10.6147 95.3078 10.8811H95.3535C95.4296 10.6223 95.5019 10.3597 95.5704 10.0933C95.6465 9.81933 95.7226 9.55673 95.7988 9.30555L96.7007 6.41702H97.8196L95.7645 12.3425C95.6199 12.7383 95.4524 13.0846 95.2622 13.3815C95.0719 13.6859 94.8397 13.9219 94.5657 14.0893C94.2917 14.2568 93.9606 14.3405 93.5724 14.3405ZM101.078 12.137C100.614 12.137 100.184 12.0228 99.7879 11.7945C99.3921 11.5661 99.0686 11.2351 98.8174 10.8012C98.5739 10.3597 98.4521 9.83074 98.4521 9.21422C98.4521 8.59769 98.5739 8.0725 98.8174 7.63865C99.0686 7.19719 99.3921 6.86228 99.7879 6.63394C100.184 6.39799 100.614 6.28001 101.078 6.28001C101.535 6.28001 101.961 6.39799 102.357 6.63394C102.76 6.86228 103.084 7.19719 103.327 7.63865C103.578 8.0725 103.704 8.59769 103.704 9.21422C103.704 9.83074 103.578 10.3597 103.327 10.8012C103.084 11.2351 102.76 11.5661 102.357 11.7945C101.961 12.0228 101.535 12.137 101.078 12.137ZM101.078 11.1894C101.375 11.1894 101.63 11.1095 101.843 10.9496C102.064 10.7822 102.231 10.55 102.345 10.2532C102.46 9.95633 102.517 9.61001 102.517 9.21422C102.517 8.81842 102.46 8.4721 102.345 8.17526C102.231 7.8708 102.064 7.63865 101.843 7.47881C101.63 7.31136 101.375 7.22763 101.078 7.22763C100.781 7.22763 100.526 7.31136 100.313 7.47881C100.1 7.63865 99.9325 7.8708 99.8107 8.17526C99.6966 8.4721 99.6395 8.81842 99.6395 9.21422C99.6395 9.61001 99.6966 9.95633 99.8107 10.2532C99.9325 10.55 100.1 10.7822 100.313 10.9496C100.526 11.1095 100.781 11.1894 101.078 11.1894ZM106.717 12.137C106.131 12.137 105.697 11.9467 105.415 11.5661C105.141 11.1856 105.004 10.6414 105.004 9.9335V6.41702H106.157V9.78507C106.157 10.2722 106.234 10.6223 106.386 10.8355C106.538 11.041 106.778 11.1437 107.105 11.1437C107.364 11.1437 107.596 11.079 107.802 10.9496C108.007 10.8126 108.224 10.5957 108.452 10.2988V6.41702H109.605V12H108.658L108.567 11.1551H108.532C108.281 11.452 108.011 11.6917 107.722 11.8744C107.44 12.0495 107.105 12.137 106.717 12.137ZM113.179 14.409C112.996 14.409 112.832 14.3938 112.688 14.3633C112.543 14.3329 112.418 14.2987 112.311 14.2606L112.528 13.3929C112.604 13.4157 112.684 13.4348 112.768 13.45C112.851 13.4728 112.939 13.4842 113.03 13.4842C113.297 13.4842 113.472 13.3929 113.556 13.2102C113.647 13.0275 113.693 12.7726 113.693 12.4453L113.704 6.41702H114.857L114.846 12.4339C114.846 12.822 114.792 13.1645 114.686 13.4614C114.579 13.7582 114.404 13.9904 114.161 14.1578C113.917 14.3253 113.59 14.409 113.179 14.409ZM113.179 14.409C112.996 14.409 112.832 14.3938 112.688 14.3633C112.543 14.3329 112.418 14.2987 112.311 14.2606L112.528 13.3929C112.604 13.4157 112.684 13.4348 112.768 13.45C112.851 13.4728 112.939 13.4842 113.03 13.4842C113.297 13.4842 113.472 13.3929 113.556 13.2102C113.647 13.0275 113.693 12.7726 113.693 12.4453L113.704 6.41702H114.857L114.846 12.4339C114.846 12.822 114.792 13.1645 114.686 13.4614C114.579 13.7582 114.404 13.9904 114.161 14.1578C113.917 14.3253 113.59 14.409 113.179 14.409ZM114.241 5.36664C114.035 5.36664 113.864 5.30194 113.727 5.17255C113.597 5.03554 113.533 4.86809 113.533 4.67019C113.533 4.4723 113.597 4.30865 113.727 4.17926C113.864 4.04986 114.035 3.98516 114.241 3.98516C114.446 3.98516 114.614 4.04986 114.743 4.17926C114.88 4.30865 114.948 4.4723 114.948 4.67019C114.948 4.86809 114.88 5.03554 114.743 5.17255C114.614 5.30194 114.446 5.36664 114.241 5.36664ZM118.806 12.137C118.342 12.137 117.911 12.0228 117.516 11.7945C117.12 11.5661 116.796 11.2351 116.545 10.8012C116.302 10.3597 116.18 9.83074 116.18 9.21422C116.18 8.59769 116.302 8.0725 116.545 7.63865C116.796 7.19719 117.12 6.86228 117.516 6.63394C117.911 6.39799 118.342 6.28001 118.806 6.28001C119.263 6.28001 119.689 6.39799 120.085 6.63394C120.488 6.86228 120.811 7.19719 121.055 7.63865C121.306 8.0725 121.432 8.59769 121.432 9.21422C121.432 9.83074 121.306 10.3597 121.055 10.8012C120.811 11.2351 120.488 11.5661 120.085 11.7945C119.689 12.0228 119.263 12.137 118.806 12.137ZM118.806 11.1894C119.103 11.1894 119.358 11.1095 119.571 10.9496C119.792 10.7822 119.959 10.55 120.073 10.2532C120.187 9.95633 120.244 9.61001 120.244 9.21422C120.244 8.81842 120.187 8.4721 120.073 8.17526C119.959 7.8708 119.792 7.63865 119.571 7.47881C119.358 7.31136 119.103 7.22763 118.806 7.22763C118.509 7.22763 118.254 7.31136 118.041 7.47881C117.828 7.63865 117.66 7.8708 117.539 8.17526C117.424 8.4721 117.367 8.81842 117.367 9.21422C117.367 9.61001 117.424 9.95633 117.539 10.2532C117.66 10.55 117.828 10.7822 118.041 10.9496C118.254 11.1095 118.509 11.1894 118.806 11.1894ZM122.801 12V6.41702H123.954V12H122.801ZM123.383 5.36664C123.185 5.36664 123.018 5.30194 122.881 5.17255C122.744 5.03554 122.675 4.86809 122.675 4.67019C122.675 4.4723 122.744 4.30865 122.881 4.17926C123.018 4.04986 123.185 3.98516 123.383 3.98516C123.588 3.98516 123.756 4.04986 123.885 4.17926C124.022 4.30865 124.091 4.4723 124.091 4.67019C124.091 4.86809 124.022 5.03554 123.885 5.17255C123.756 5.30194 123.588 5.36664 123.383 5.36664ZM125.711 12V6.41702H126.658L126.75 7.19338H126.784C127.043 6.9422 127.321 6.72908 127.617 6.55402C127.914 6.37135 128.253 6.28001 128.633 6.28001C129.227 6.28001 129.661 6.4703 129.935 6.85087C130.209 7.23144 130.346 7.77566 130.346 8.48352V12H129.193V8.63194C129.193 8.14481 129.117 7.79849 128.965 7.59298C128.82 7.37986 128.58 7.2733 128.245 7.2733C127.979 7.2733 127.743 7.338 127.537 7.46739C127.34 7.59679 127.115 7.78707 126.864 8.03825V12H125.711ZM135.643 12.137C135.323 12.137 135.037 12.0723 134.786 11.9429C134.543 11.8059 134.349 11.6194 134.204 11.3835C134.067 11.1399 133.998 10.8545 133.998 10.5272C133.998 9.92589 134.265 9.46159 134.798 9.1343C135.33 8.80701 136.179 8.57866 137.344 8.44927C137.344 8.23615 137.309 8.03445 137.241 7.84416C137.18 7.65387 137.07 7.50165 136.91 7.38747C136.758 7.2733 136.544 7.21622 136.27 7.21622C135.974 7.21622 135.688 7.2733 135.414 7.38747C135.148 7.50165 134.897 7.63485 134.661 7.78707L134.227 7.01071C134.417 6.88893 134.63 6.77475 134.866 6.66819C135.102 6.55402 135.353 6.46268 135.62 6.39418C135.894 6.31807 136.179 6.28001 136.476 6.28001C136.933 6.28001 137.309 6.37515 137.606 6.56544C137.911 6.75572 138.135 7.02593 138.28 7.37606C138.425 7.72618 138.497 8.14862 138.497 8.64336V12H137.549L137.458 11.3606H137.424C137.172 11.5738 136.898 11.7564 136.602 11.9087C136.305 12.0609 135.985 12.137 135.643 12.137ZM135.996 11.2236C136.24 11.2236 136.468 11.1665 136.682 11.0524C136.895 10.9382 137.115 10.7746 137.344 10.5614V9.17997C136.788 9.24847 136.347 9.33981 136.019 9.45398C135.7 9.56815 135.467 9.70896 135.323 9.87641C135.186 10.0439 135.117 10.2303 135.117 10.4359C135.117 10.7099 135.201 10.9116 135.369 11.041C135.536 11.1627 135.745 11.2236 135.996 11.2236ZM39.4017 27.137C39.1429 27.137 38.8803 27.0761 38.6139 26.9543C38.3475 26.8249 38.0925 26.6461 37.849 26.4177H37.8147L37.7119 27H36.7986V18.9052H37.9517V21.0517L37.9175 22.0107C38.161 21.7976 38.4236 21.6225 38.7052 21.4855C38.9945 21.3485 39.2875 21.28 39.5844 21.28C40.0563 21.28 40.4559 21.398 40.7832 21.6339C41.1181 21.8699 41.3692 22.201 41.5367 22.6272C41.7118 23.0459 41.7993 23.5444 41.7993 24.1229C41.7993 24.7546 41.6851 25.2988 41.4568 25.7555C41.2284 26.2046 40.9316 26.5471 40.5662 26.7831C40.2085 27.019 39.8203 27.137 39.4017 27.137ZM39.1733 26.178C39.4474 26.178 39.6909 26.1019 39.904 25.9496C40.1248 25.7898 40.296 25.5576 40.4178 25.2532C40.5472 24.9487 40.6119 24.5758 40.6119 24.1343C40.6119 23.7461 40.5662 23.4112 40.4749 23.1296C40.3836 22.8404 40.2389 22.6196 40.041 22.4674C39.8508 22.3152 39.5996 22.2391 39.2875 22.2391C39.0744 22.2391 38.8575 22.2961 38.6367 22.4103C38.416 22.5169 38.1877 22.6881 37.9517 22.9241V25.6642C38.1648 25.8545 38.3779 25.9877 38.5911 26.0638C38.8118 26.1399 39.0059 26.178 39.1733 26.178ZM45.5052 27.137C44.9952 27.137 44.5348 27.0228 44.1237 26.7945C43.7203 26.5585 43.3968 26.2236 43.1533 25.7898C42.9097 25.3559 42.7879 24.8307 42.7879 24.2142C42.7879 23.6129 42.9097 23.0953 43.1533 22.6615C43.3968 22.22 43.7127 21.8813 44.1009 21.6454C44.4891 21.4018 44.9001 21.28 45.334 21.28C45.8211 21.28 46.2321 21.3904 46.567 21.6111C46.9095 21.8318 47.1683 22.1401 47.3434 22.5359C47.5184 22.9317 47.606 23.3922 47.606 23.9174C47.606 24.0239 47.5984 24.1343 47.5831 24.2485C47.5755 24.355 47.5641 24.4426 47.5489 24.5111H43.6899L43.6785 23.7119H46.6013C46.6013 23.2247 46.4947 22.848 46.2816 22.5816C46.0761 22.3152 45.7678 22.182 45.3568 22.182C45.1132 22.182 44.8773 22.2505 44.6489 22.3875C44.4206 22.5245 44.2303 22.7452 44.0781 23.0497C43.9335 23.3465 43.8611 23.7347 43.8611 24.2142C43.8611 24.6785 43.9449 25.0591 44.1123 25.3559C44.2798 25.6528 44.4967 25.8735 44.7631 26.0181C45.0371 26.1627 45.334 26.2351 45.6536 26.2351C45.9048 26.2351 46.137 26.197 46.3501 26.1209C46.5708 26.0448 46.7839 25.942 46.9894 25.8126L47.389 26.5433C47.1303 26.7108 46.841 26.8516 46.5213 26.9657C46.2093 27.0799 45.8706 27.137 45.5052 27.137ZM51.2361 27.137C50.7261 27.137 50.2656 27.0228 49.8546 26.7945C49.4512 26.5585 49.1277 26.2236 48.8842 25.7898C48.6406 25.3559 48.5188 24.8307 48.5188 24.2142C48.5188 23.6129 48.6406 23.0953 48.8842 22.6615C49.1277 22.22 49.4436 21.8813 49.8318 21.6454C50.22 21.4018 50.631 21.28 51.0648 21.28C51.552 21.28 51.963 21.3904 52.2979 21.6111C52.6404 21.8318 52.8992 22.1401 53.0742 22.5359C53.2493 22.9317 53.3368 23.3922 53.3368 23.9174C53.3368 24.0239 53.3292 24.1343 53.314 24.2485C53.3064 24.355 53.295 24.4426 53.2798 24.5111H49.4208L49.4093 23.7119H52.3321C52.3321 23.2247 52.2256 22.848 52.0125 22.5816C51.8069 22.3152 51.4987 22.182 51.0877 22.182C50.8441 22.182 50.6081 22.2505 50.3798 22.3875C50.1515 22.5245 49.9612 22.7452 49.8089 23.0497C49.6643 23.3465 49.592 23.7347 49.592 24.2142C49.592 24.6785 49.6757 25.0591 49.8432 25.3559C50.0106 25.6528 50.2276 25.8735 50.494 26.0181C50.768 26.1627 51.0648 26.2351 51.3845 26.2351C51.6357 26.2351 51.8678 26.197 52.081 26.1209C52.3017 26.0448 52.5148 25.942 52.7203 25.8126L53.1199 26.5433C52.8611 26.7108 52.5719 26.8516 52.2522 26.9657C51.9401 27.0799 51.6014 27.137 51.2361 27.137ZM54.6379 27V18.9052H55.7682V24.1457H55.8024L58.0059 21.417H59.2732L57.378 23.6776L59.4901 27H58.2343L56.7158 24.4654L55.7682 25.5614V27H54.6379ZM62.787 27.137C62.2771 27.137 61.8166 27.0228 61.4056 26.7945C61.0021 26.5585 60.6787 26.2236 60.4351 25.7898C60.1915 25.3559 60.0697 24.8307 60.0697 24.2142C60.0697 23.6129 60.1915 23.0953 60.4351 22.6615C60.6787 22.22 60.9945 21.8813 61.3827 21.6454C61.7709 21.4018 62.1819 21.28 62.6158 21.28C63.1029 21.28 63.5139 21.3904 63.8488 21.6111C64.1913 21.8318 64.4501 22.1401 64.6252 22.5359C64.8002 22.9317 64.8878 23.3922 64.8878 23.9174C64.8878 24.0239 64.8802 24.1343 64.8649 24.2485C64.8573 24.355 64.8459 24.4426 64.8307 24.5111H60.9717L60.9603 23.7119H63.8831C63.8831 23.2247 63.7765 22.848 63.5634 22.5816C63.3579 22.3152 63.0496 22.182 62.6386 22.182C62.395 22.182 62.1591 22.2505 61.9307 22.3875C61.7024 22.5245 61.5121 22.7452 61.3599 23.0497C61.2153 23.3465 61.143 23.7347 61.143 24.2142C61.143 24.6785 61.2267 25.0591 61.3941 25.3559C61.5616 25.6528 61.7785 25.8735 62.0449 26.0181C62.3189 26.1627 62.6158 26.2351 62.9354 26.2351C63.1866 26.2351 63.4188 26.197 63.6319 26.1209C63.8526 26.0448 64.0657 25.942 64.2713 25.8126L64.6709 26.5433C64.4121 26.7108 64.1228 26.8516 63.8032 26.9657C63.4911 27.0799 63.1524 27.137 62.787 27.137ZM68.5179 27.137C68.0079 27.137 67.5474 27.0228 67.1364 26.7945C66.733 26.5585 66.4095 26.2236 66.166 25.7898C65.9224 25.3559 65.8006 24.8307 65.8006 24.2142C65.8006 23.6129 65.9224 23.0953 66.166 22.6615C66.4095 22.22 66.7254 21.8813 67.1136 21.6454C67.5018 21.4018 67.9128 21.28 68.3466 21.28C68.8338 21.28 69.2448 21.3904 69.5797 21.6111C69.9222 21.8318 70.181 22.1401 70.3561 22.5359C70.5311 22.9317 70.6187 23.3922 70.6187 23.9174C70.6187 24.0239 70.611 24.1343 70.5958 24.2485C70.5882 24.355 70.5768 24.4426 70.5616 24.5111H66.7026L66.6912 23.7119H69.6139C69.6139 23.2247 69.5074 22.848 69.2943 22.5816C69.0888 22.3152 68.7805 22.182 68.3695 22.182C68.1259 22.182 67.89 22.2505 67.6616 22.3875C67.4333 22.5245 67.243 22.7452 67.0908 23.0497C66.9461 23.3465 66.8738 23.7347 66.8738 24.2142C66.8738 24.6785 66.9576 25.0591 67.125 25.3559C67.2925 25.6528 67.5094 25.8735 67.7758 26.0181C68.0498 26.1627 68.3466 26.2351 68.6663 26.2351C68.9175 26.2351 69.1496 26.197 69.3628 26.1209C69.5835 26.0448 69.7966 25.942 70.0021 25.8126L70.4017 26.5433C70.1429 26.7108 69.8537 26.8516 69.534 26.9657C69.222 27.0799 68.8832 27.137 68.5179 27.137ZM71.9197 29.272V21.417H72.8673L72.9586 22.0335H72.9929C73.2364 21.828 73.5067 21.653 73.8035 21.5084C74.1003 21.3561 74.4048 21.28 74.7169 21.28C75.1888 21.28 75.5884 21.398 75.9157 21.6339C76.243 21.8699 76.4903 22.201 76.6578 22.6272C76.8328 23.0535 76.9204 23.552 76.9204 24.1229C76.9204 24.7622 76.8062 25.3065 76.5779 25.7555C76.3495 26.2046 76.0527 26.5471 75.6873 26.7831C75.3296 27.019 74.9414 27.137 74.5228 27.137C74.2716 27.137 74.0204 27.0837 73.7692 26.9772C73.5181 26.863 73.2745 26.707 73.0386 26.5091L73.0728 27.4567V29.272H71.9197ZM74.2944 26.178C74.5684 26.178 74.812 26.1019 75.0251 25.9496C75.2459 25.7898 75.4171 25.5576 75.5389 25.2532C75.6683 24.9487 75.733 24.5758 75.733 24.1343C75.733 23.7461 75.6873 23.4112 75.596 23.1296C75.5047 22.8404 75.36 22.6196 75.1621 22.4674C74.9719 22.3152 74.7207 22.2391 74.4086 22.2391C74.1955 22.2391 73.9786 22.2961 73.7578 22.4103C73.5447 22.5169 73.3164 22.6881 73.0728 22.9241V25.6642C73.2935 25.8545 73.5105 25.9877 73.7236 26.0638C73.9367 26.1399 74.127 26.178 74.2944 26.178ZM80.6375 27.137C80.1275 27.137 79.667 27.0228 79.256 26.7945C78.8526 26.5585 78.5291 26.2236 78.2855 25.7898C78.042 25.3559 77.9202 24.8307 77.9202 24.2142C77.9202 23.6129 78.042 23.0953 78.2855 22.6615C78.5291 22.22 78.845 21.8813 79.2332 21.6454C79.6213 21.4018 80.0324 21.28 80.4662 21.28C80.9533 21.28 81.3644 21.3904 81.6993 21.6111C82.0418 21.8318 82.3006 22.1401 82.4756 22.5359C82.6507 22.9317 82.7382 23.3922 82.7382 23.9174C82.7382 24.0239 82.7306 24.1343 82.7154 24.2485C82.7078 24.355 82.6964 24.4426 82.6811 24.5111H78.8221L78.8107 23.7119H81.7335C81.7335 23.2247 81.6269 22.848 81.4138 22.5816C81.2083 22.3152 80.9001 22.182 80.489 22.182C80.2455 22.182 80.0095 22.2505 79.7812 22.3875C79.5528 22.5245 79.3625 22.7452 79.2103 23.0497C79.0657 23.3465 78.9934 23.7347 78.9934 24.2142C78.9934 24.6785 79.0771 25.0591 79.2446 25.3559C79.412 25.6528 79.6289 25.8735 79.8953 26.0181C80.1694 26.1627 80.4662 26.2351 80.7859 26.2351C81.0371 26.2351 81.2692 26.197 81.4823 26.1209C81.7031 26.0448 81.9162 25.942 82.1217 25.8126L82.5213 26.5433C82.2625 26.7108 81.9733 26.8516 81.6536 26.9657C81.3415 27.0799 81.0028 27.137 80.6375 27.137ZM84.0392 27V21.417H84.9869L85.0782 22.4217H85.1124C85.3103 22.064 85.5463 21.7862 85.8203 21.5883C86.1019 21.3828 86.395 21.28 86.6994 21.28C86.8288 21.28 86.943 21.2914 87.0419 21.3143C87.1409 21.3295 87.2322 21.3561 87.316 21.3942L87.1104 22.3989C87.0115 22.3684 86.9202 22.3456 86.8364 22.3304C86.7603 22.3152 86.6652 22.3076 86.551 22.3076C86.3227 22.3076 86.0829 22.3989 85.8317 22.5816C85.5805 22.7566 85.3674 23.0687 85.1924 23.5178V27H84.0392ZM89.6942 27.137C89.306 27.137 88.9254 27.0647 88.5525 26.9201C88.1871 26.7679 87.8675 26.5814 87.5934 26.3606L88.1415 25.6185C88.385 25.8088 88.6324 25.9648 88.8836 26.0866C89.1424 26.2008 89.424 26.2579 89.7285 26.2579C90.0634 26.2579 90.3107 26.1856 90.4706 26.041C90.6304 25.8963 90.7103 25.7175 90.7103 25.5044C90.7103 25.3369 90.6494 25.1961 90.5277 25.0819C90.4059 24.9601 90.2498 24.8574 90.0595 24.7737C89.8769 24.6899 89.6828 24.61 89.4773 24.5339C89.2261 24.4349 88.9749 24.3208 88.7237 24.1914C88.4802 24.062 88.2747 23.8945 88.1072 23.689C87.9474 23.4835 87.8675 23.2247 87.8675 22.9127C87.8675 22.4408 88.0425 22.0526 88.3926 21.7481C88.7504 21.436 89.2375 21.28 89.854 21.28C90.227 21.28 90.5657 21.3447 90.8702 21.4741C91.1746 21.6035 91.4372 21.7557 91.6579 21.9308L91.1213 22.6501C90.9234 22.5055 90.7217 22.3875 90.5162 22.2961C90.3183 22.2048 90.1052 22.1591 89.8769 22.1591C89.5648 22.1591 89.3327 22.2276 89.1804 22.3646C89.0358 22.5016 88.9635 22.6653 88.9635 22.8556C88.9635 23.0154 89.0206 23.1486 89.1348 23.2552C89.2489 23.3541 89.3974 23.4417 89.58 23.5178C89.7627 23.5939 89.9568 23.67 90.1623 23.7461C90.4211 23.8451 90.6761 23.9592 90.9273 24.0886C91.1784 24.218 91.3877 24.3893 91.5552 24.6024C91.7226 24.8079 91.8064 25.0857 91.8064 25.4359C91.8064 25.7479 91.7226 26.0333 91.5552 26.2921C91.3954 26.5509 91.1594 26.7564 90.8473 26.9087C90.5353 27.0609 90.1509 27.137 89.6942 27.137ZM96.647 27.137C96.3273 27.137 96.0419 27.0723 95.7907 26.9429C95.5471 26.8059 95.353 26.6194 95.2084 26.3835C95.0714 26.1399 95.0029 25.8545 95.0029 25.5272C95.0029 24.9259 95.2693 24.4616 95.8021 24.1343C96.3349 23.807 97.1836 23.5787 98.3481 23.4493C98.3481 23.2361 98.3139 23.0344 98.2454 22.8442C98.1845 22.6539 98.0741 22.5016 97.9143 22.3875C97.762 22.2733 97.5489 22.2162 97.2749 22.2162C96.9781 22.2162 96.6926 22.2733 96.4186 22.3875C96.1522 22.5016 95.9011 22.6348 95.6651 22.7871L95.2312 22.0107C95.4215 21.8889 95.6347 21.7748 95.8706 21.6682C96.1066 21.554 96.3577 21.4627 96.6241 21.3942C96.8982 21.3181 97.1836 21.28 97.4804 21.28C97.9371 21.28 98.3139 21.3752 98.6107 21.5654C98.9152 21.7557 99.1397 22.0259 99.2843 22.3761C99.429 22.7262 99.5013 23.1486 99.5013 23.6434V27H98.5536L98.4623 26.3606H98.428C98.1769 26.5738 97.9029 26.7564 97.606 26.9087C97.3092 27.0609 96.9895 27.137 96.647 27.137ZM97.0009 26.2236C97.2445 26.2236 97.4728 26.1665 97.6859 26.0524C97.8991 25.9382 98.1198 25.7746 98.3481 25.5614V24.18C97.7925 24.2485 97.351 24.3398 97.0237 24.454C96.7041 24.5681 96.4719 24.709 96.3273 24.8764C96.1903 25.0439 96.1218 25.2303 96.1218 25.4359C96.1218 25.7099 96.2055 25.9116 96.373 26.041C96.5404 26.1627 96.7497 26.2236 97.0009 26.2236ZM102.672 27.137C102.284 27.137 101.904 27.0647 101.531 26.9201C101.165 26.7679 100.846 26.5814 100.572 26.3606L101.12 25.6185C101.363 25.8088 101.61 25.9648 101.862 26.0866C102.12 26.2008 102.402 26.2579 102.707 26.2579C103.041 26.2579 103.289 26.1856 103.449 26.041C103.608 25.8963 103.688 25.7175 103.688 25.5044C103.688 25.3369 103.628 25.1961 103.506 25.0819C103.384 24.9601 103.228 24.8574 103.038 24.7737C102.855 24.6899 102.661 24.61 102.455 24.5339C102.204 24.4349 101.953 24.3208 101.702 24.1914C101.458 24.062 101.253 23.8945 101.085 23.689C100.925 23.4835 100.846 23.2247 100.846 22.9127C100.846 22.4408 101.021 22.0526 101.371 21.7481C101.728 21.436 102.216 21.28 102.832 21.28C103.205 21.28 103.544 21.3447 103.848 21.4741C104.153 21.6035 104.415 21.7557 104.636 21.9308L104.099 22.6501C103.902 22.5055 103.7 22.3875 103.494 22.2961C103.296 22.2048 103.083 22.1591 102.855 22.1591C102.543 22.1591 102.311 22.2276 102.159 22.3646C102.014 22.5016 101.942 22.6653 101.942 22.8556C101.942 23.0154 101.999 23.1486 102.113 23.2552C102.227 23.3541 102.375 23.4417 102.558 23.5178C102.741 23.5939 102.935 23.67 103.14 23.7461C103.399 23.8451 103.654 23.9592 103.905 24.0886C104.157 24.218 104.366 24.3893 104.533 24.6024C104.701 24.8079 104.784 25.0857 104.784 25.4359C104.784 25.7479 104.701 26.0333 104.533 26.2921C104.373 26.5509 104.137 26.7564 103.825 26.9087C103.513 27.0609 103.129 27.137 102.672 27.137ZM107.533 27.137C107.145 27.137 106.765 27.0647 106.392 26.9201C106.026 26.7679 105.707 26.5814 105.433 26.3606L105.981 25.6185C106.224 25.8088 106.472 25.9648 106.723 26.0866C106.982 26.2008 107.263 26.2579 107.568 26.2579C107.903 26.2579 108.15 26.1856 108.31 26.041C108.47 25.8963 108.55 25.7175 108.55 25.5044C108.55 25.3369 108.489 25.1961 108.367 25.0819C108.245 24.9601 108.089 24.8574 107.899 24.7737C107.716 24.6899 107.522 24.61 107.317 24.5339C107.065 24.4349 106.814 24.3208 106.563 24.1914C106.319 24.062 106.114 23.8945 105.947 23.689C105.787 23.4835 105.707 23.2247 105.707 22.9127C105.707 22.4408 105.882 22.0526 106.232 21.7481C106.59 21.436 107.077 21.28 107.693 21.28C108.066 21.28 108.405 21.3447 108.709 21.4741C109.014 21.6035 109.277 21.7557 109.497 21.9308L108.961 22.6501C108.763 22.5055 108.561 22.3875 108.356 22.2961C108.158 22.2048 107.945 22.1591 107.716 22.1591C107.404 22.1591 107.172 22.2276 107.02 22.3646C106.875 22.5016 106.803 22.6653 106.803 22.8556C106.803 23.0154 106.86 23.1486 106.974 23.2552C107.088 23.3541 107.237 23.4417 107.419 23.5178C107.602 23.5939 107.796 23.67 108.002 23.7461C108.26 23.8451 108.515 23.9592 108.767 24.0886C109.018 24.218 109.227 24.3893 109.394 24.6024C109.562 24.8079 109.646 25.0857 109.646 25.4359C109.646 25.7479 109.562 26.0333 109.394 26.2921C109.235 26.5509 108.999 26.7564 108.687 26.9087C108.375 27.0609 107.99 27.137 107.533 27.137ZM113.114 27.137C112.65 27.137 112.22 27.0228 111.824 26.7945C111.428 26.5661 111.105 26.2351 110.853 25.8012C110.61 25.3597 110.488 24.8307 110.488 24.2142C110.488 23.5977 110.61 23.0725 110.853 22.6387C111.105 22.1972 111.428 21.8623 111.824 21.6339C112.22 21.398 112.65 21.28 113.114 21.28C113.571 21.28 113.997 21.398 114.393 21.6339C114.796 21.8623 115.12 22.1972 115.363 22.6387C115.614 23.0725 115.74 23.5977 115.74 24.2142C115.74 24.8307 115.614 25.3597 115.363 25.8012C115.12 26.2351 114.796 26.5661 114.393 26.7945C113.997 27.0228 113.571 27.137 113.114 27.137ZM113.114 26.1894C113.411 26.1894 113.666 26.1095 113.879 25.9496C114.1 25.7822 114.267 25.55 114.381 25.2532C114.495 24.9563 114.553 24.61 114.553 24.2142C114.553 23.8184 114.495 23.4721 114.381 23.1753C114.267 22.8708 114.1 22.6387 113.879 22.4788C113.666 22.3114 113.411 22.2276 113.114 22.2276C112.817 22.2276 112.562 22.3114 112.349 22.4788C112.136 22.6387 111.968 22.8708 111.847 23.1753C111.732 23.4721 111.675 23.8184 111.675 24.2142C111.675 24.61 111.732 24.9563 111.847 25.2532C111.968 25.55 112.136 25.7822 112.349 25.9496C112.562 26.1095 112.817 26.1894 113.114 26.1894ZM119.381 27.137C118.878 27.137 118.426 27.0228 118.022 26.7945C117.626 26.5661 117.311 26.2351 117.075 25.8012C116.839 25.3597 116.721 24.8307 116.721 24.2142C116.721 23.5977 116.85 23.0725 117.109 22.6387C117.368 22.1972 117.703 21.8623 118.114 21.6339C118.532 21.398 118.985 21.28 119.472 21.28C119.83 21.28 120.142 21.3447 120.408 21.4741C120.675 21.5959 120.907 21.7443 121.105 21.9194L120.534 22.6729C120.382 22.5283 120.226 22.4179 120.066 22.3418C119.906 22.2657 119.727 22.2276 119.529 22.2276C119.21 22.2276 118.928 22.3114 118.684 22.4788C118.441 22.6387 118.251 22.8708 118.114 23.1753C117.977 23.4721 117.908 23.8184 117.908 24.2142C117.908 24.61 117.973 24.9563 118.102 25.2532C118.239 25.55 118.426 25.7822 118.662 25.9496C118.905 26.1095 119.183 26.1894 119.495 26.1894C119.731 26.1894 119.952 26.1399 120.157 26.041C120.37 25.942 120.557 25.8202 120.717 25.6756L121.196 26.4406C120.937 26.6689 120.652 26.844 120.34 26.9657C120.028 27.0799 119.708 27.137 119.381 27.137ZM122.349 27V21.417H123.502V27H122.349ZM122.931 20.3666C122.733 20.3666 122.566 20.3019 122.429 20.1725C122.292 20.0355 122.224 19.8681 122.224 19.6702C122.224 19.4723 122.292 19.3087 122.429 19.1793C122.566 19.0499 122.733 18.9852 122.931 18.9852C123.137 18.9852 123.304 19.0499 123.434 19.1793C123.571 19.3087 123.639 19.4723 123.639 19.6702C123.639 19.8681 123.571 20.0355 123.434 20.1725C123.304 20.3019 123.137 20.3666 122.931 20.3666ZM126.584 27.137C126.264 27.137 125.978 27.0723 125.727 26.9429C125.484 26.8059 125.29 26.6194 125.145 26.3835C125.008 26.1399 124.939 25.8545 124.939 25.5272C124.939 24.9259 125.206 24.4616 125.739 24.1343C126.271 23.807 127.12 23.5787 128.285 23.4493C128.285 23.2361 128.25 23.0344 128.182 22.8442C128.121 22.6539 128.011 22.5016 127.851 22.3875C127.699 22.2733 127.485 22.2162 127.211 22.2162C126.915 22.2162 126.629 22.2733 126.355 22.3875C126.089 22.5016 125.838 22.6348 125.602 22.7871L125.168 22.0107C125.358 21.8889 125.571 21.7748 125.807 21.6682C126.043 21.554 126.294 21.4627 126.561 21.3942C126.835 21.3181 127.12 21.28 127.417 21.28C127.874 21.28 128.25 21.3752 128.547 21.5654C128.852 21.7557 129.076 22.0259 129.221 22.3761C129.366 22.7262 129.438 23.1486 129.438 23.6434V27H128.49L128.399 26.3606H128.365C128.113 26.5738 127.839 26.7564 127.543 26.9087C127.246 27.0609 126.926 27.137 126.584 27.137ZM126.937 26.2236C127.181 26.2236 127.409 26.1665 127.622 26.0524C127.836 25.9382 128.056 25.7746 128.285 25.5614V24.18C127.729 24.2485 127.288 24.3398 126.96 24.454C126.641 24.5681 126.408 24.709 126.264 24.8764C126.127 25.0439 126.058 25.2303 126.058 25.4359C126.058 25.7099 126.142 25.9116 126.31 26.041C126.477 26.1627 126.686 26.2236 126.937 26.2236ZM132.963 27.137C132.339 27.137 131.901 26.9581 131.65 26.6004C131.399 26.2351 131.273 25.7631 131.273 25.1847V22.3418H130.462V21.4741L131.33 21.417L131.467 19.8757H132.426V21.417H133.888V22.3418H132.426V25.1961C132.426 25.5234 132.491 25.7746 132.62 25.9496C132.75 26.1247 132.959 26.2122 133.248 26.2122C133.347 26.2122 133.45 26.2008 133.556 26.178C133.671 26.1475 133.77 26.1133 133.853 26.0752L134.059 26.9315C133.907 26.9848 133.735 27.0304 133.545 27.0685C133.355 27.1142 133.161 27.137 132.963 27.137ZM135.093 27V21.417H136.246V27H135.093ZM135.675 20.3666C135.477 20.3666 135.31 20.3019 135.173 20.1725C135.036 20.0355 134.967 19.8681 134.967 19.6702C134.967 19.4723 135.036 19.3087 135.173 19.1793C135.31 19.0499 135.477 18.9852 135.675 18.9852C135.881 18.9852 136.048 19.0499 136.178 19.1793C136.315 19.3087 136.383 19.4723 136.383 19.6702C136.383 19.8681 136.315 20.0355 136.178 20.1725C136.048 20.3019 135.881 20.3666 135.675 20.3666ZM140.241 27.137C139.777 27.137 139.346 27.0228 138.951 26.7945C138.555 26.5661 138.231 26.2351 137.98 25.8012C137.737 25.3597 137.615 24.8307 137.615 24.2142C137.615 23.5977 137.737 23.0725 137.98 22.6387C138.231 22.1972 138.555 21.8623 138.951 21.6339C139.346 21.398 139.777 21.28 140.241 21.28C140.698 21.28 141.124 21.398 141.52 21.6339C141.923 21.8623 142.246 22.1972 142.49 22.6387C142.741 23.0725 142.867 23.5977 142.867 24.2142C142.867 24.8307 142.741 25.3597 142.49 25.8012C142.246 26.2351 141.923 26.5661 141.52 26.7945C141.124 27.0228 140.698 27.137 140.241 27.137ZM140.241 26.1894C140.538 26.1894 140.793 26.1095 141.006 25.9496C141.227 25.7822 141.394 25.55 141.508 25.2532C141.622 24.9563 141.679 24.61 141.679 24.2142C141.679 23.8184 141.622 23.4721 141.508 23.1753C141.394 22.8708 141.227 22.6387 141.006 22.4788C140.793 22.3114 140.538 22.2276 140.241 22.2276C139.944 22.2276 139.689 22.3114 139.476 22.4788C139.263 22.6387 139.095 22.8708 138.974 23.1753C138.859 23.4721 138.802 23.8184 138.802 24.2142C138.802 24.61 138.859 24.9563 138.974 25.2532C139.095 25.55 139.263 25.7822 139.476 25.9496C139.689 26.1095 139.944 26.1894 140.241 26.1894ZM144.236 27V21.417H145.183L145.275 22.1934H145.309C145.568 21.9422 145.846 21.7291 146.142 21.554C146.439 21.3713 146.778 21.28 147.158 21.28C147.752 21.28 148.186 21.4703 148.46 21.8509C148.734 22.2314 148.871 22.7757 148.871 23.4835V27H147.718V23.6319C147.718 23.1448 147.642 22.7985 147.49 22.593C147.345 22.3799 147.105 22.2733 146.77 22.2733C146.504 22.2733 146.268 22.338 146.062 22.4674C145.865 22.5968 145.64 22.7871 145.389 23.0383V27H144.236ZM151.482 24.6252C151.437 24.2827 151.456 23.9783 151.539 23.7119C151.631 23.4455 151.756 23.2019 151.916 22.9812C152.076 22.7604 152.24 22.5549 152.407 22.3646C152.575 22.1667 152.715 21.9727 152.829 21.7824C152.951 21.5845 153.012 21.3752 153.012 21.1544C153.012 20.9641 152.974 20.7929 152.898 20.6407C152.822 20.4884 152.708 20.3704 152.555 20.2867C152.403 20.203 152.221 20.1611 152.007 20.1611C151.772 20.1611 151.551 20.2182 151.345 20.3324C151.14 20.4389 150.949 20.5874 150.774 20.7777L150.124 20.184C150.375 19.9023 150.668 19.6702 151.003 19.4875C151.338 19.3048 151.718 19.2135 152.144 19.2135C152.533 19.2135 152.875 19.2858 153.172 19.4304C153.476 19.5751 153.712 19.7882 153.88 20.0698C154.047 20.3438 154.131 20.6787 154.131 21.0745C154.131 21.3637 154.07 21.6263 153.948 21.8623C153.827 22.0982 153.678 22.319 153.503 22.5245C153.328 22.73 153.157 22.9393 152.989 23.1524C152.829 23.3579 152.696 23.5787 152.59 23.8146C152.491 24.0506 152.46 24.3208 152.498 24.6252H151.482ZM152.007 27.137C151.794 27.137 151.612 27.0609 151.459 26.9087C151.307 26.7564 151.231 26.5623 151.231 26.3264C151.231 26.0828 151.307 25.8849 151.459 25.7327C151.612 25.5805 151.794 25.5044 152.007 25.5044C152.228 25.5044 152.411 25.5805 152.555 25.7327C152.708 25.8849 152.784 26.0828 152.784 26.3264C152.784 26.5623 152.708 26.7564 152.555 26.9087C152.411 27.0609 152.228 27.137 152.007 27.137Z" fill="black"/>
<path d="M95.2964 149.132V54C147.836 54 190.428 96.592 190.428 149.132C190.428 156.312 189.615 163.47 188.005 170.467L95.2964 149.132Z" fill="#935015" stroke="white" stroke-width="0.237857"/>
<path d="M95.2964 149.132L188.005 170.467C181.505 198.71 162.486 222.45 136.342 234.954L95.2964 149.132Z" fill="#D7C8E1" stroke="white" stroke-width="0.237857"/>
<path d="M95.2965 149.132L136.342 234.954C88.9437 257.622 32.1435 237.575 9.47483 190.177C-13.1938 142.779 6.85329 85.9788 54.2513 63.3102C67.0663 57.1812 81.0912 54 95.2965 54V149.132Z" fill="#A887BF" stroke="white" stroke-width="0.237857"/>
<path d="M42.4224 141.062C42.0342 141.062 41.6917 141.016 41.3949 140.925C41.1056 140.826 40.8507 140.7 40.6299 140.548C40.4168 140.396 40.2265 140.236 40.0591 140.069L40.4815 139.52C40.7022 139.734 40.9572 139.928 41.2465 140.103C41.5433 140.278 41.9125 140.365 42.3539 140.365C42.6584 140.365 42.9362 140.293 43.1874 140.148C43.4385 140.004 43.6364 139.802 43.7811 139.543C43.9257 139.285 43.998 138.98 43.998 138.63C43.998 138.105 43.8534 137.698 43.5641 137.408C43.2749 137.111 42.8867 136.963 42.3996 136.963C42.1408 136.963 41.9163 137.001 41.726 137.077C41.5433 137.153 41.3416 137.264 41.1209 137.408L40.6642 137.123L40.9039 133.641H44.4775V134.36H41.6346L41.4291 136.632C41.6118 136.533 41.7945 136.457 41.9772 136.404C42.1598 136.343 42.3653 136.312 42.5937 136.312C43.0123 136.312 43.3891 136.396 43.724 136.563C44.0665 136.723 44.3367 136.971 44.5346 137.306C44.7401 137.64 44.8429 138.071 44.8429 138.596C44.8429 139.121 44.7287 139.57 44.5003 139.943C44.272 140.308 43.9713 140.586 43.5984 140.776C43.233 140.967 42.841 141.062 42.4224 141.062ZM47.4481 140.925C47.4862 139.996 47.5813 139.163 47.7335 138.424C47.8858 137.686 48.1103 136.994 48.4071 136.347C48.704 135.692 49.0922 135.03 49.5717 134.36H45.8954V133.641H50.5307V134.143C50.0969 134.699 49.743 135.235 49.4689 135.753C49.1949 136.263 48.978 136.78 48.8182 137.306C48.6659 137.831 48.5518 138.386 48.4756 138.972C48.3995 139.559 48.3424 140.209 48.3044 140.925H47.4481ZM52.3939 141.062C52.2264 141.062 52.078 141.001 51.9486 140.879C51.8268 140.757 51.7659 140.598 51.7659 140.4C51.7659 140.194 51.8268 140.03 51.9486 139.909C52.078 139.787 52.2264 139.726 52.3939 139.726C52.5689 139.726 52.7174 139.787 52.8391 139.909C52.9609 140.03 53.0218 140.194 53.0218 140.4C53.0218 140.598 52.9609 140.757 52.8391 140.879C52.7174 141.001 52.5689 141.062 52.3939 141.062ZM54.3369 140.925V140.228H56.0152V134.691H54.6909V134.154C55.0181 134.101 55.3036 134.033 55.5471 133.949C55.7907 133.858 56.0114 133.755 56.2093 133.641H56.8487V140.228H58.3672V140.925H54.3369ZM61.212 141.062L65.3564 133.287H65.9387L61.7943 141.062H61.212ZM61.0179 137.945C60.683 137.945 60.3862 137.854 60.1274 137.671C59.8762 137.481 59.6821 137.21 59.5451 136.86C59.4081 136.503 59.3396 136.073 59.3396 135.57C59.3396 134.817 59.4918 134.238 59.7963 133.835C60.1083 133.424 60.5156 133.218 61.0179 133.218C61.5279 133.218 61.9351 133.424 62.2395 133.835C62.544 134.238 62.6962 134.817 62.6962 135.57C62.6962 136.073 62.6277 136.503 62.4907 136.86C62.3537 137.21 62.1596 137.481 61.9085 137.671C61.6573 137.854 61.3604 137.945 61.0179 137.945ZM61.0179 137.42C61.33 137.42 61.5812 137.264 61.7714 136.952C61.9617 136.632 62.0569 136.171 62.0569 135.57C62.0569 134.961 61.9617 134.505 61.7714 134.2C61.5812 133.896 61.33 133.743 61.0179 133.743C60.7135 133.743 60.4623 133.896 60.2644 134.2C60.0741 134.505 59.979 134.961 59.979 135.57C59.979 136.171 60.0741 136.632 60.2644 136.952C60.4623 137.264 60.7135 137.42 61.0179 137.42ZM66.167 141.062C65.8245 141.062 65.5277 140.97 65.2765 140.788C65.0253 140.598 64.8312 140.327 64.6942 139.977C64.5572 139.619 64.4887 139.189 64.4887 138.687C64.4887 137.934 64.641 137.355 64.9454 136.952C65.2499 136.541 65.6571 136.335 66.167 136.335C66.677 136.335 67.0842 136.541 67.3887 136.952C67.6931 137.355 67.8454 137.934 67.8454 138.687C67.8454 139.189 67.7731 139.619 67.6284 139.977C67.4914 140.327 67.2973 140.598 67.0462 140.788C66.795 140.97 66.5019 141.062 66.167 141.062ZM66.167 140.537C66.4791 140.537 66.7265 140.381 66.9092 140.069C67.0994 139.749 67.1946 139.288 67.1946 138.687C67.1946 138.078 67.0994 137.621 66.9092 137.317C66.7265 137.013 66.4791 136.86 66.167 136.86C65.8626 136.86 65.6114 137.013 65.4135 137.317C65.2232 137.621 65.1281 138.078 65.1281 138.687C65.1281 139.288 65.2232 139.749 65.4135 140.069C65.6114 140.381 65.8626 140.537 66.167 140.537ZM26.6474 155.925V148.424H30.906V149.143H27.4922V151.621H30.3694V152.328H27.4922V155.206H31.0201V155.925H26.6474ZM34.4157 156.062C33.7231 156.062 33.1713 155.811 32.7603 155.308C32.3492 154.798 32.1437 154.083 32.1437 153.162C32.1437 152.568 32.2541 152.054 32.4748 151.621C32.7032 151.187 33 150.852 33.3654 150.616C33.7307 150.372 34.1265 150.25 34.5528 150.25C34.88 150.25 35.1617 150.308 35.3976 150.422C35.6336 150.536 35.8771 150.696 36.1283 150.901L36.0941 149.942V147.773H36.9161V155.925H36.2311L36.1626 155.251H36.1283C35.9152 155.472 35.6602 155.662 35.3634 155.822C35.0741 155.982 34.7583 156.062 34.4157 156.062ZM34.5984 155.354C34.8648 155.354 35.1198 155.289 35.3634 155.16C35.6069 155.023 35.8505 154.825 36.0941 154.566V151.563C35.8429 151.343 35.6031 151.187 35.3748 151.095C35.1464 151.004 34.9143 150.958 34.6783 150.958C34.3663 150.958 34.0808 151.053 33.8221 151.244C33.5709 151.426 33.3692 151.685 33.2169 152.02C33.0723 152.347 33 152.728 33 153.162C33 153.839 33.137 154.376 33.411 154.772C33.6927 155.16 34.0885 155.354 34.5984 155.354ZM40.4527 156.062C39.8818 156.062 39.4594 155.879 39.1854 155.514C38.9113 155.148 38.7743 154.612 38.7743 153.904V150.387H39.5964V153.801C39.5964 154.334 39.6839 154.726 39.859 154.977C40.034 155.221 40.3156 155.343 40.7038 155.343C40.9931 155.343 41.2557 155.266 41.4916 155.114C41.7276 154.954 41.9826 154.703 42.2566 154.361V150.387H43.09V155.925H42.3936L42.3251 155.046H42.2908C42.032 155.35 41.758 155.598 41.4688 155.788C41.1795 155.97 40.8408 156.062 40.4527 156.062ZM47.1664 156.062C46.6792 156.062 46.2416 155.948 45.8534 155.719C45.4652 155.491 45.157 155.164 44.9286 154.737C44.7003 154.304 44.5861 153.778 44.5861 153.162C44.5861 152.545 44.7079 152.02 44.9515 151.586C45.2026 151.152 45.5261 150.821 45.9219 150.593C46.3177 150.365 46.7516 150.25 47.2235 150.25C47.5888 150.25 47.9009 150.319 48.1597 150.456C48.4185 150.585 48.643 150.738 48.8333 150.913L48.3994 151.461C48.2396 151.308 48.0645 151.187 47.8742 151.095C47.6916 150.996 47.4861 150.947 47.2577 150.947C46.9076 150.947 46.5955 151.042 46.3215 151.232C46.0551 151.415 45.842 151.674 45.6822 152.009C45.5299 152.344 45.4538 152.728 45.4538 153.162C45.4538 153.603 45.5261 153.992 45.6707 154.326C45.823 154.654 46.0323 154.909 46.2987 155.091C46.5651 155.274 46.8771 155.365 47.2349 155.365C47.5013 155.365 47.7487 155.308 47.977 155.194C48.2053 155.08 48.407 154.947 48.5821 154.795L48.9475 155.354C48.7039 155.575 48.4299 155.75 48.1254 155.879C47.821 156.001 47.5013 156.062 47.1664 156.062ZM51.4604 156.062C51.1559 156.062 50.8819 156.001 50.6383 155.879C50.3948 155.757 50.2007 155.582 50.0561 155.354C49.9115 155.118 49.8391 154.833 49.8391 154.498C49.8391 153.896 50.1132 153.436 50.6612 153.116C51.2168 152.789 52.0921 152.561 53.2871 152.431C53.2871 152.18 53.2529 151.94 53.1844 151.712C53.1235 151.484 53.0055 151.301 52.8304 151.164C52.663 151.019 52.4194 150.947 52.0997 150.947C51.7648 150.947 51.4528 151.012 51.1635 151.141C50.8819 151.27 50.6345 151.407 50.4214 151.552L50.0903 150.981C50.2502 150.875 50.4405 150.764 50.6612 150.65C50.8819 150.536 51.1255 150.441 51.3919 150.365C51.6583 150.289 51.9399 150.25 52.2368 150.25C52.6858 150.25 53.0474 150.346 53.3214 150.536C53.5954 150.726 53.7933 150.989 53.9151 151.324C54.0445 151.659 54.1092 152.051 54.1092 152.5V155.925H53.4241L53.3556 155.251H53.3214C53.055 155.472 52.7657 155.662 52.4537 155.822C52.1416 155.982 51.8105 156.062 51.4604 156.062ZM51.6773 155.388C51.9665 155.388 52.2329 155.324 52.4765 155.194C52.7277 155.057 52.9979 154.863 53.2871 154.612V152.991C52.6325 153.067 52.115 153.173 51.7344 153.31C51.3538 153.44 51.0798 153.6 50.9124 153.79C50.7449 153.98 50.6612 154.201 50.6612 154.452C50.6612 154.779 50.7601 155.019 50.958 155.171C51.1635 155.316 51.4033 155.388 51.6773 155.388ZM57.6025 156.062C57.0317 156.062 56.6321 155.894 56.4037 155.559C56.183 155.225 56.0726 154.791 56.0726 154.258V151.073H55.2392V150.445L56.1069 150.387L56.2097 148.823H56.9061V150.387H58.4246V151.073H56.9061V154.281C56.9061 154.623 56.967 154.893 57.0888 155.091C57.2182 155.282 57.4503 155.377 57.7852 155.377C57.8842 155.377 57.9907 155.362 58.1049 155.331C58.2267 155.301 58.3332 155.266 58.4246 155.228L58.5958 155.856C58.4436 155.91 58.28 155.955 58.1049 155.993C57.9298 156.039 57.7624 156.062 57.6025 156.062ZM59.7039 155.925V150.387H60.526V155.925H59.7039ZM60.1264 149.2C59.9665 149.2 59.8295 149.147 59.7153 149.04C59.6088 148.934 59.5555 148.793 59.5555 148.618C59.5555 148.45 59.6088 148.317 59.7153 148.218C59.8295 148.112 59.9665 148.058 60.1264 148.058C60.2938 148.058 60.4308 148.112 60.5374 148.218C60.6439 148.317 60.6972 148.45 60.6972 148.618C60.6972 148.793 60.6439 148.934 60.5374 149.04C60.4308 149.147 60.2938 149.2 60.1264 149.2ZM64.5812 156.062C64.1321 156.062 63.7135 155.948 63.3253 155.719C62.9371 155.491 62.625 155.164 62.3891 154.737C62.1531 154.304 62.0352 153.778 62.0352 153.162C62.0352 152.545 62.1531 152.02 62.3891 151.586C62.625 151.152 62.9371 150.821 63.3253 150.593C63.7135 150.365 64.1321 150.25 64.5812 150.25C65.0303 150.25 65.4451 150.365 65.8256 150.593C66.2138 150.821 66.5259 151.152 66.7619 151.586C67.0054 152.02 67.1272 152.545 67.1272 153.162C67.1272 153.778 67.0054 154.304 66.7619 154.737C66.5259 155.164 66.2138 155.491 65.8256 155.719C65.4451 155.948 65.0303 156.062 64.5812 156.062ZM64.5812 155.365C64.9161 155.365 65.2091 155.274 65.4603 155.091C65.7191 154.909 65.917 154.654 66.054 154.326C66.1986 153.992 66.2709 153.603 66.2709 153.162C66.2709 152.728 66.1986 152.344 66.054 152.009C65.917 151.674 65.7191 151.415 65.4603 151.232C65.2091 151.042 64.9161 150.947 64.5812 150.947C64.2539 150.947 63.9608 151.042 63.7021 151.232C63.4509 151.415 63.253 151.674 63.1084 152.009C62.9714 152.344 62.9029 152.728 62.9029 153.162C62.9029 153.603 62.9714 153.992 63.1084 154.326C63.253 154.654 63.4509 154.909 63.7021 155.091C63.9608 155.274 64.2539 155.365 64.5812 155.365ZM68.6347 155.925V150.387H69.3197L69.3882 151.21H69.4225C69.6889 150.936 69.9705 150.707 70.2674 150.524C70.5718 150.342 70.9105 150.25 71.2835 150.25C71.8696 150.25 72.2958 150.433 72.5622 150.799C72.8362 151.164 72.9732 151.7 72.9732 152.408V155.925H72.1398V152.511C72.1398 151.978 72.0522 151.59 71.8772 151.347C71.7097 151.103 71.4319 150.981 71.0437 150.981C70.7545 150.981 70.4919 151.057 70.2559 151.21C70.02 151.354 69.7536 151.575 69.4567 151.872V155.925H68.6347ZM76.0898 156.062C75.7853 156.062 75.5113 156.001 75.2677 155.879C75.0242 155.757 74.8301 155.582 74.6854 155.354C74.5408 155.118 74.4685 154.833 74.4685 154.498C74.4685 153.896 74.7425 153.436 75.2906 153.116C75.8462 152.789 76.7215 152.561 77.9165 152.431C77.9165 152.18 77.8822 151.94 77.8137 151.712C77.7529 151.484 77.6349 151.301 77.4598 151.164C77.2924 151.019 77.0488 150.947 76.7291 150.947C76.3942 150.947 76.0821 151.012 75.7929 151.141C75.5113 151.27 75.2639 151.407 75.0508 151.552L74.7197 150.981C74.8795 150.875 75.0698 150.764 75.2906 150.65C75.5113 150.536 75.7549 150.441 76.0213 150.365C76.2877 150.289 76.5693 150.25 76.8661 150.25C77.3152 150.25 77.6767 150.346 77.9507 150.536C78.2248 150.726 78.4227 150.989 78.5444 151.324C78.6738 151.659 78.7385 152.051 78.7385 152.5V155.925H78.0535L77.985 155.251H77.9507C77.6843 155.472 77.3951 155.662 77.083 155.822C76.771 155.982 76.4399 156.062 76.0898 156.062ZM76.3067 155.388C76.5959 155.388 76.8623 155.324 77.1059 155.194C77.3571 155.057 77.6273 154.863 77.9165 154.612V152.991C77.2619 153.067 76.7443 153.173 76.3638 153.31C75.9832 153.44 75.7092 153.6 75.5417 153.79C75.3743 153.98 75.2906 154.201 75.2906 154.452C75.2906 154.779 75.3895 155.019 75.5874 155.171C75.7929 155.316 76.0327 155.388 76.3067 155.388ZM81.4555 156.062C81.25 156.062 81.0788 156.016 80.9418 155.925C80.8048 155.841 80.7058 155.715 80.6449 155.548C80.584 155.373 80.5536 155.16 80.5536 154.909V147.773H81.3756V154.977C81.3756 155.114 81.4023 155.213 81.4555 155.274C81.5088 155.335 81.5697 155.365 81.6382 155.365C81.6611 155.365 81.6877 155.365 81.7181 155.365C81.7486 155.358 81.7904 155.35 81.8437 155.343L81.9579 155.982C81.897 155.997 81.8247 156.012 81.741 156.028C81.6649 156.05 81.5697 156.062 81.4555 156.062ZM32.7331 170.925V165.387H33.4182L33.4867 166.21H33.5209C33.7645 165.943 34.0309 165.719 34.3201 165.536C34.617 165.346 34.9252 165.25 35.2449 165.25C35.6788 165.25 36.0137 165.349 36.2496 165.547C36.4932 165.738 36.6683 165.996 36.7748 166.324C37.0717 166.004 37.3685 165.745 37.6654 165.547C37.9698 165.349 38.2857 165.25 38.613 165.25C39.1838 165.25 39.6063 165.433 39.8803 165.799C40.1543 166.164 40.2913 166.7 40.2913 167.408V170.925H39.4578V167.511C39.4578 166.978 39.3703 166.59 39.1953 166.347C39.0202 166.103 38.7462 165.981 38.3732 165.981C38.1525 165.981 37.9203 166.057 37.6768 166.21C37.4408 166.354 37.1896 166.575 36.9232 166.872V170.925H36.0898V167.511C36.0898 166.978 36.0023 166.59 35.8272 166.347C35.6597 166.103 35.3895 165.981 35.0166 165.981C34.5751 165.981 34.088 166.278 33.5552 166.872V170.925H32.7331ZM43.4104 171.062C43.1059 171.062 42.8319 171.001 42.5884 170.879C42.3448 170.757 42.1507 170.582 42.0061 170.354C41.8615 170.118 41.7892 169.833 41.7892 169.498C41.7892 168.896 42.0632 168.436 42.6112 168.116C43.1668 167.789 44.0422 167.561 45.2371 167.431C45.2371 167.18 45.2029 166.94 45.1344 166.712C45.0735 166.484 44.9555 166.301 44.7805 166.164C44.613 166.019 44.3694 165.947 44.0498 165.947C43.7149 165.947 43.4028 166.012 43.1136 166.141C42.8319 166.27 42.5846 166.407 42.3714 166.552L42.0403 165.981C42.2002 165.875 42.3905 165.764 42.6112 165.65C42.8319 165.536 43.0755 165.441 43.3419 165.365C43.6083 165.289 43.8899 165.25 44.1868 165.25C44.6358 165.25 44.9974 165.346 45.2714 165.536C45.5454 165.726 45.7433 165.989 45.8651 166.324C45.9945 166.659 46.0592 167.051 46.0592 167.5V170.925H45.3742L45.3057 170.251H45.2714C45.005 170.472 44.7158 170.662 44.4037 170.822C44.0916 170.982 43.7605 171.062 43.4104 171.062ZM43.6273 170.388C43.9166 170.388 44.183 170.324 44.4265 170.194C44.6777 170.057 44.9479 169.863 45.2371 169.612V167.991C44.5826 168.067 44.065 168.173 43.6844 168.31C43.3038 168.44 43.0298 168.6 42.8624 168.79C42.6949 168.98 42.6112 169.201 42.6112 169.452C42.6112 169.779 42.7102 170.019 42.9081 170.171C43.1136 170.316 43.3533 170.388 43.6273 170.388ZM49.5526 171.062C48.9817 171.062 48.5821 170.894 48.3538 170.559C48.133 170.225 48.0227 169.791 48.0227 169.258V166.073H47.1892V165.445L48.0569 165.387L48.1597 163.823H48.8561V165.387H50.3746V166.073H48.8561V169.281C48.8561 169.623 48.917 169.893 49.0388 170.091C49.1682 170.282 49.4003 170.377 49.7352 170.377C49.8342 170.377 49.9407 170.362 50.0549 170.331C50.1767 170.301 50.2833 170.266 50.3746 170.228L50.5459 170.856C50.3936 170.91 50.23 170.955 50.0549 170.993C49.8799 171.039 49.7124 171.062 49.5526 171.062ZM53.846 171.062C53.3665 171.062 52.925 170.948 52.5216 170.719C52.1258 170.483 51.81 170.152 51.574 169.726C51.3381 169.292 51.2201 168.771 51.2201 168.162C51.2201 167.561 51.3381 167.043 51.574 166.609C51.81 166.175 52.1144 165.84 52.4874 165.604C52.868 165.368 53.2714 165.25 53.6976 165.25C54.1543 165.25 54.5463 165.357 54.8736 165.57C55.2009 165.783 55.4482 166.084 55.6157 166.472C55.7908 166.853 55.8783 167.309 55.8783 167.842C55.8783 167.934 55.8745 168.025 55.8669 168.116C55.8669 168.2 55.8593 168.276 55.844 168.345H51.8709L51.8594 167.739H55.1362C55.1362 167.146 55.0106 166.697 54.7594 166.392C54.5082 166.08 54.1581 165.924 53.709 165.924C53.435 165.924 53.1686 166.004 52.9098 166.164C52.651 166.324 52.4379 166.567 52.2705 166.895C52.103 167.222 52.0193 167.644 52.0193 168.162C52.0193 168.657 52.1068 169.068 52.2819 169.395C52.4569 169.722 52.6891 169.97 52.9783 170.137C53.2752 170.304 53.5987 170.388 53.9488 170.388C54.2304 170.388 54.4816 170.346 54.7023 170.263C54.9307 170.179 55.1476 170.072 55.3531 169.943L55.6614 170.491C55.4254 170.643 55.159 170.776 54.8622 170.891C54.5729 171.005 54.2342 171.062 53.846 171.062ZM57.2733 170.925V165.387H57.9583L58.0268 166.404H58.0611C58.2514 166.053 58.4797 165.776 58.7461 165.57C59.0201 165.357 59.317 165.25 59.6367 165.25C59.7508 165.25 59.8536 165.262 59.9449 165.285C60.0363 165.3 60.1238 165.327 60.2075 165.365L60.0477 166.095C59.9563 166.065 59.8726 166.042 59.7965 166.027C59.728 166.012 59.6367 166.004 59.5225 166.004C59.2865 166.004 59.0392 166.103 58.7804 166.301C58.5216 166.491 58.2932 166.83 58.0953 167.317V170.925H57.2733ZM61.1534 170.925V165.387H61.9754V170.925H61.1534ZM61.5758 164.2C61.416 164.2 61.2789 164.147 61.1648 164.04C61.0582 163.934 61.0049 163.793 61.0049 163.618C61.0049 163.45 61.0582 163.317 61.1648 163.218C61.2789 163.112 61.416 163.058 61.5758 163.058C61.7432 163.058 61.8803 163.112 61.9868 163.218C62.0934 163.317 62.1467 163.45 62.1467 163.618C62.1467 163.793 62.0934 163.934 61.9868 164.04C61.8803 164.147 61.7432 164.2 61.5758 164.2ZM65.1743 171.062C64.8699 171.062 64.5959 171.001 64.3523 170.879C64.1087 170.757 63.9146 170.582 63.77 170.354C63.6254 170.118 63.5531 169.833 63.5531 169.498C63.5531 168.896 63.8271 168.436 64.3751 168.116C64.9308 167.789 65.8061 167.561 67.0011 167.431C67.0011 167.18 66.9668 166.94 66.8983 166.712C66.8374 166.484 66.7195 166.301 66.5444 166.164C66.3769 166.019 66.1334 165.947 65.8137 165.947C65.4788 165.947 65.1667 166.012 64.8775 166.141C64.5959 166.27 64.3485 166.407 64.1354 166.552L63.8043 165.981C63.9641 165.875 64.1544 165.764 64.3751 165.65C64.5959 165.536 64.8394 165.441 65.1058 165.365C65.3722 165.289 65.6539 165.25 65.9507 165.25C66.3998 165.25 66.7613 165.346 67.0353 165.536C67.3093 165.726 67.5072 165.989 67.629 166.324C67.7584 166.659 67.8231 167.051 67.8231 167.5V170.925H67.1381L67.0696 170.251H67.0353C66.7689 170.472 66.4797 170.662 66.1676 170.822C65.8556 170.982 65.5245 171.062 65.1743 171.062ZM65.3913 170.388C65.6805 170.388 65.9469 170.324 66.1905 170.194C66.4416 170.057 66.7118 169.863 67.0011 169.612V167.991C66.3465 168.067 65.8289 168.173 65.4483 168.31C65.0678 168.44 64.7938 168.6 64.6263 168.79C64.4589 168.98 64.3751 169.201 64.3751 169.452C64.3751 169.779 64.4741 170.019 64.672 170.171C64.8775 170.316 65.1173 170.388 65.3913 170.388ZM70.5401 171.062C70.3346 171.062 70.1634 171.016 70.0264 170.925C69.8894 170.841 69.7904 170.715 69.7295 170.548C69.6686 170.373 69.6382 170.16 69.6382 169.909V162.773H70.4602V169.977C70.4602 170.114 70.4868 170.213 70.5401 170.274C70.5934 170.335 70.6543 170.365 70.7228 170.365C70.7456 170.365 70.7723 170.365 70.8027 170.365C70.8332 170.358 70.875 170.35 70.9283 170.343L71.0425 170.982C70.9816 170.997 70.9093 171.012 70.8256 171.028C70.7494 171.05 70.6543 171.062 70.5401 171.062ZM73.9082 171.062C73.5124 171.062 73.1356 170.99 72.7779 170.845C72.4202 170.693 72.1119 170.51 71.8531 170.297L72.2755 169.737C72.5191 169.928 72.7703 170.088 73.0291 170.217C73.2879 170.346 73.5923 170.411 73.9424 170.411C74.323 170.411 74.6084 170.32 74.7987 170.137C74.989 169.954 75.0842 169.737 75.0842 169.486C75.0842 169.288 75.0195 169.125 74.8901 168.995C74.7607 168.858 74.597 168.744 74.3991 168.653C74.2012 168.554 73.9995 168.466 73.794 168.39C73.5352 168.299 73.2764 168.188 73.0176 168.059C72.7589 167.93 72.5419 167.766 72.3669 167.568C72.1994 167.37 72.1157 167.115 72.1157 166.803C72.1157 166.369 72.2793 166.004 72.6066 165.707C72.9415 165.403 73.4058 165.25 73.9995 165.25C74.3344 165.25 74.6465 165.311 74.9357 165.433C75.225 165.555 75.4723 165.7 75.6778 165.867L75.2782 166.404C75.088 166.267 74.8901 166.152 74.6846 166.061C74.4867 165.962 74.2583 165.913 73.9995 165.913C73.6342 165.913 73.364 166 73.1889 166.175C73.0138 166.343 72.9263 166.537 72.9263 166.758C72.9263 166.94 72.9834 167.092 73.0976 167.214C73.2194 167.328 73.3754 167.427 73.5657 167.511C73.756 167.595 73.9577 167.679 74.1708 167.762C74.4448 167.861 74.7112 167.975 74.97 168.105C75.2364 168.227 75.4571 168.39 75.6322 168.596C75.8072 168.801 75.8948 169.083 75.8948 169.441C75.8948 169.73 75.8187 170 75.6664 170.251C75.5142 170.495 75.2897 170.693 74.9928 170.845C74.696 170.99 74.3344 171.062 73.9082 171.062Z" fill="white"/>
<path d="M131.789 176.604V175.907H133.467V170.37H132.142V169.833C132.47 169.78 132.755 169.711 132.999 169.628C133.242 169.536 133.463 169.434 133.661 169.319H134.3V175.907H135.819V176.604H131.789ZM139.862 176.604V171.626C139.862 171.435 139.87 171.207 139.885 170.941C139.901 170.674 139.912 170.446 139.92 170.256H139.874C139.783 170.423 139.687 170.587 139.588 170.747C139.489 170.906 139.387 171.078 139.28 171.26L137.465 173.886H141.666V174.548H136.574V174.012L139.76 169.319H140.65V176.604H139.862ZM143.381 176.741C143.214 176.741 143.065 176.68 142.936 176.558C142.814 176.436 142.753 176.276 142.753 176.078C142.753 175.873 142.814 175.709 142.936 175.587C143.065 175.466 143.214 175.405 143.381 175.405C143.556 175.405 143.705 175.466 143.826 175.587C143.948 175.709 144.009 175.873 144.009 176.078C144.009 176.276 143.948 176.436 143.826 176.558C143.705 176.68 143.556 176.741 143.381 176.741ZM147.448 176.741C147.06 176.741 146.717 176.691 146.42 176.592C146.123 176.493 145.865 176.368 145.644 176.215C145.423 176.055 145.233 175.888 145.073 175.713L145.495 175.165C145.716 175.393 145.975 175.599 146.272 175.781C146.576 175.957 146.953 176.044 147.402 176.044C147.859 176.044 148.232 175.918 148.521 175.667C148.818 175.409 148.966 175.066 148.966 174.64C148.966 174.343 148.886 174.08 148.726 173.852C148.574 173.624 148.323 173.449 147.973 173.327C147.63 173.197 147.166 173.133 146.58 173.133V172.482C147.105 172.482 147.52 172.421 147.824 172.299C148.137 172.17 148.361 171.999 148.498 171.785C148.635 171.572 148.704 171.333 148.704 171.066C148.704 170.701 148.586 170.412 148.35 170.198C148.114 169.978 147.794 169.867 147.391 169.867C147.079 169.867 146.789 169.94 146.523 170.084C146.257 170.221 146.017 170.4 145.804 170.621L145.347 170.084C145.629 169.826 145.937 169.612 146.272 169.445C146.607 169.27 146.987 169.182 147.413 169.182C147.824 169.182 148.19 169.255 148.51 169.399C148.829 169.544 149.08 169.753 149.263 170.027C149.453 170.294 149.548 170.621 149.548 171.009C149.548 171.458 149.423 171.827 149.172 172.117C148.928 172.398 148.605 172.611 148.201 172.756V172.802C148.498 172.87 148.768 172.988 149.012 173.156C149.255 173.315 149.45 173.525 149.594 173.783C149.739 174.035 149.811 174.328 149.811 174.663C149.811 175.096 149.705 175.469 149.491 175.781C149.278 176.086 148.993 176.322 148.635 176.489C148.277 176.657 147.882 176.741 147.448 176.741ZM152.667 176.741L156.812 168.965H157.394L153.25 176.741H152.667ZM152.473 173.624C152.138 173.624 151.842 173.532 151.583 173.35C151.332 173.159 151.138 172.889 151.001 172.539C150.864 172.181 150.795 171.751 150.795 171.249C150.795 170.495 150.947 169.917 151.252 169.513C151.564 169.102 151.971 168.897 152.473 168.897C152.983 168.897 153.391 169.102 153.695 169.513C153.999 169.917 154.152 170.495 154.152 171.249C154.152 171.751 154.083 172.181 153.946 172.539C153.809 172.889 153.615 173.159 153.364 173.35C153.113 173.532 152.816 173.624 152.473 173.624ZM152.473 173.098C152.785 173.098 153.037 172.942 153.227 172.63C153.417 172.311 153.512 171.85 153.512 171.249C153.512 170.64 153.417 170.183 153.227 169.879C153.037 169.574 152.785 169.422 152.473 169.422C152.169 169.422 151.918 169.574 151.72 169.879C151.53 170.183 151.434 170.64 151.434 171.249C151.434 171.85 151.53 172.311 151.72 172.63C151.918 172.942 152.169 173.098 152.473 173.098ZM157.623 176.741C157.28 176.741 156.983 176.649 156.732 176.467C156.481 176.276 156.287 176.006 156.15 175.656C156.013 175.298 155.944 174.868 155.944 174.366C155.944 173.612 156.096 173.034 156.401 172.63C156.705 172.219 157.113 172.014 157.623 172.014C158.132 172.014 158.54 172.219 158.844 172.63C159.149 173.034 159.301 173.612 159.301 174.366C159.301 174.868 159.229 175.298 159.084 175.656C158.947 176.006 158.753 176.276 158.502 176.467C158.25 176.649 157.957 176.741 157.623 176.741ZM157.623 176.215C157.935 176.215 158.182 176.059 158.365 175.747C158.555 175.428 158.65 174.967 158.65 174.366C158.65 173.757 158.555 173.3 158.365 172.996C158.182 172.691 157.935 172.539 157.623 172.539C157.318 172.539 157.067 172.691 156.869 172.996C156.679 173.3 156.584 173.757 156.584 174.366C156.584 174.967 156.679 175.428 156.869 175.747C157.067 176.059 157.318 176.215 157.623 176.215ZM119.084 191.604V184.102H119.952L122.783 188.966L123.605 190.507H123.651C123.628 190.127 123.601 189.739 123.571 189.343C123.548 188.94 123.537 188.548 123.537 188.167V184.102H124.336V191.604H123.468L120.637 186.74L119.815 185.198H119.769C119.799 185.571 119.826 185.952 119.849 186.34C119.872 186.721 119.883 187.105 119.883 187.493V191.604H119.084ZM128.464 191.741C128.015 191.741 127.596 191.626 127.208 191.398C126.82 191.17 126.508 190.842 126.272 190.416C126.036 189.982 125.918 189.457 125.918 188.841C125.918 188.224 126.036 187.699 126.272 187.265C126.508 186.831 126.82 186.5 127.208 186.272C127.596 186.043 128.015 185.929 128.464 185.929C128.913 185.929 129.328 186.043 129.708 186.272C130.096 186.5 130.409 186.831 130.644 187.265C130.888 187.699 131.01 188.224 131.01 188.841C131.01 189.457 130.888 189.982 130.644 190.416C130.409 190.842 130.096 191.17 129.708 191.398C129.328 191.626 128.913 191.741 128.464 191.741ZM128.464 191.044C128.799 191.044 129.092 190.953 129.343 190.77C129.602 190.587 129.8 190.332 129.937 190.005C130.081 189.67 130.154 189.282 130.154 188.841C130.154 188.407 130.081 188.022 129.937 187.687C129.8 187.353 129.602 187.094 129.343 186.911C129.092 186.721 128.799 186.626 128.464 186.626C128.137 186.626 127.843 186.721 127.585 186.911C127.334 187.094 127.136 187.353 126.991 187.687C126.854 188.022 126.785 188.407 126.785 188.841C126.785 189.282 126.854 189.67 126.991 190.005C127.136 190.332 127.334 190.587 127.585 190.77C127.843 190.953 128.137 191.044 128.464 191.044ZM132.517 191.604V186.066H133.202L133.271 186.888H133.305C133.572 186.614 133.853 186.386 134.15 186.203C134.454 186.021 134.793 185.929 135.166 185.929C135.752 185.929 136.178 186.112 136.445 186.477C136.719 186.843 136.856 187.379 136.856 188.087V191.604H136.022V188.19C136.022 187.657 135.935 187.269 135.76 187.025C135.592 186.782 135.315 186.66 134.926 186.66C134.637 186.66 134.375 186.736 134.139 186.888C133.903 187.033 133.636 187.254 133.339 187.55V191.604H132.517ZM140.909 191.741C140.429 191.741 139.988 191.626 139.584 191.398C139.188 191.162 138.873 190.831 138.637 190.405C138.401 189.971 138.283 189.449 138.283 188.841C138.283 188.239 138.401 187.722 138.637 187.288C138.873 186.854 139.177 186.519 139.55 186.283C139.931 186.047 140.334 185.929 140.76 185.929C141.217 185.929 141.609 186.036 141.936 186.249C142.263 186.462 142.511 186.763 142.678 187.151C142.853 187.531 142.941 187.988 142.941 188.521C142.941 188.612 142.937 188.704 142.929 188.795C142.929 188.879 142.922 188.955 142.907 189.023H138.933L138.922 188.418H142.199C142.199 187.824 142.073 187.375 141.822 187.071C141.571 186.759 141.221 186.603 140.772 186.603C140.498 186.603 140.231 186.683 139.972 186.843C139.714 187.002 139.5 187.246 139.333 187.573C139.166 187.901 139.082 188.323 139.082 188.841C139.082 189.335 139.169 189.746 139.344 190.074C139.52 190.401 139.752 190.648 140.041 190.816C140.338 190.983 140.661 191.067 141.011 191.067C141.293 191.067 141.544 191.025 141.765 190.941C141.993 190.858 142.21 190.751 142.416 190.622L142.724 191.17C142.488 191.322 142.222 191.455 141.925 191.569C141.635 191.683 141.297 191.741 140.909 191.741ZM148.734 191.741C148.285 191.741 147.866 191.626 147.478 191.398C147.09 191.17 146.778 190.842 146.542 190.416C146.306 189.982 146.188 189.457 146.188 188.841C146.188 188.224 146.306 187.699 146.542 187.265C146.778 186.831 147.09 186.5 147.478 186.272C147.866 186.043 148.285 185.929 148.734 185.929C149.183 185.929 149.598 186.043 149.978 186.272C150.366 186.5 150.678 186.831 150.914 187.265C151.158 187.699 151.28 188.224 151.28 188.841C151.28 189.457 151.158 189.982 150.914 190.416C150.678 190.842 150.366 191.17 149.978 191.398C149.598 191.626 149.183 191.741 148.734 191.741ZM148.734 191.044C149.069 191.044 149.362 190.953 149.613 190.77C149.872 190.587 150.07 190.332 150.207 190.005C150.351 189.67 150.423 189.282 150.423 188.841C150.423 188.407 150.351 188.022 150.207 187.687C150.07 187.353 149.872 187.094 149.613 186.911C149.362 186.721 149.069 186.626 148.734 186.626C148.406 186.626 148.113 186.721 147.855 186.911C147.603 187.094 147.406 187.353 147.261 187.687C147.124 188.022 147.055 188.407 147.055 188.841C147.055 189.282 147.124 189.67 147.261 190.005C147.406 190.332 147.603 190.587 147.855 190.77C148.113 190.953 148.406 191.044 148.734 191.044ZM152.913 191.604V185.107C152.913 184.734 152.97 184.415 153.084 184.148C153.198 183.882 153.37 183.676 153.598 183.532C153.834 183.387 154.127 183.315 154.477 183.315C154.637 183.315 154.793 183.334 154.945 183.372C155.105 183.402 155.246 183.444 155.368 183.497L155.185 184.137C155.078 184.083 154.972 184.049 154.865 184.034C154.759 184.011 154.652 184 154.545 184C154.279 184 154.077 184.095 153.94 184.285C153.811 184.475 153.746 184.753 153.746 185.119V191.604H152.913ZM152.159 186.751V186.123L152.947 186.066H154.945V186.751H152.159ZM159.996 191.741C159.425 191.741 159.025 191.573 158.797 191.238C158.576 190.903 158.466 190.469 158.466 189.937V186.751H157.632V186.123L158.5 186.066L158.603 184.502H159.299V186.066H160.818V186.751H159.299V189.959C159.299 190.302 159.36 190.572 159.482 190.77C159.611 190.96 159.844 191.055 160.178 191.055C160.277 191.055 160.384 191.04 160.498 191.01C160.62 190.979 160.726 190.945 160.818 190.907L160.989 191.535C160.837 191.588 160.673 191.634 160.498 191.672C160.323 191.718 160.156 191.741 159.996 191.741ZM162.097 191.604V183.452H162.919V185.712L162.896 186.877C163.163 186.61 163.444 186.386 163.741 186.203C164.038 186.021 164.373 185.929 164.746 185.929C165.332 185.929 165.758 186.112 166.025 186.477C166.299 186.843 166.436 187.379 166.436 188.087V191.604H165.602V188.19C165.602 187.657 165.515 187.269 165.34 187.025C165.172 186.782 164.894 186.66 164.506 186.66C164.217 186.66 163.954 186.736 163.718 186.888C163.482 187.033 163.216 187.254 162.919 187.55V191.604H162.097ZM170.455 191.741C169.975 191.741 169.534 191.626 169.131 191.398C168.735 191.162 168.419 190.831 168.183 190.405C167.947 189.971 167.829 189.449 167.829 188.841C167.829 188.239 167.947 187.722 168.183 187.288C168.419 186.854 168.723 186.519 169.096 186.283C169.477 186.047 169.88 185.929 170.306 185.929C170.763 185.929 171.155 186.036 171.482 186.249C171.81 186.462 172.057 186.763 172.225 187.151C172.4 187.531 172.487 187.988 172.487 188.521C172.487 188.612 172.483 188.704 172.476 188.795C172.476 188.879 172.468 188.955 172.453 189.023H168.48L168.468 188.418H171.745C171.745 187.824 171.619 187.375 171.368 187.071C171.117 186.759 170.767 186.603 170.318 186.603C170.044 186.603 169.777 186.683 169.519 186.843C169.26 187.002 169.047 187.246 168.879 187.573C168.712 187.901 168.628 188.323 168.628 188.841C168.628 189.335 168.716 189.746 168.891 190.074C169.066 190.401 169.298 190.648 169.587 190.816C169.884 190.983 170.208 191.067 170.558 191.067C170.839 191.067 171.09 191.025 171.311 190.941C171.54 190.858 171.756 190.751 171.962 190.622L172.27 191.17C172.034 191.322 171.768 191.455 171.471 191.569C171.182 191.683 170.843 191.741 170.455 191.741ZM133.182 206.741C132.878 206.741 132.604 206.68 132.36 206.558C132.117 206.436 131.923 206.261 131.778 206.033C131.633 205.797 131.561 205.511 131.561 205.176C131.561 204.575 131.835 204.115 132.383 203.795C132.939 203.468 133.814 203.239 135.009 203.11C135.009 202.859 134.975 202.619 134.906 202.391C134.845 202.162 134.727 201.98 134.552 201.843C134.385 201.698 134.141 201.626 133.822 201.626C133.487 201.626 133.175 201.69 132.885 201.82C132.604 201.949 132.356 202.086 132.143 202.231L131.812 201.66C131.972 201.553 132.162 201.443 132.383 201.329C132.604 201.215 132.847 201.119 133.114 201.043C133.38 200.967 133.662 200.929 133.959 200.929C134.408 200.929 134.769 201.024 135.043 201.215C135.317 201.405 135.515 201.668 135.637 202.002C135.766 202.337 135.831 202.729 135.831 203.178V206.604H135.146L135.078 205.93H135.043C134.777 206.151 134.488 206.341 134.176 206.501C133.864 206.661 133.532 206.741 133.182 206.741ZM133.399 206.067C133.688 206.067 133.955 206.002 134.198 205.873C134.45 205.736 134.72 205.542 135.009 205.291V203.669C134.354 203.745 133.837 203.852 133.456 203.989C133.076 204.118 132.802 204.278 132.634 204.469C132.467 204.659 132.383 204.88 132.383 205.131C132.383 205.458 132.482 205.698 132.68 205.85C132.885 205.995 133.125 206.067 133.399 206.067ZM140.021 206.741C139.762 206.741 139.492 206.68 139.21 206.558C138.936 206.428 138.674 206.253 138.423 206.033H138.388L138.308 206.604H137.646V198.452H138.468V200.712L138.445 201.728C138.704 201.5 138.986 201.31 139.29 201.158C139.595 201.005 139.907 200.929 140.226 200.929C140.706 200.929 141.109 201.047 141.437 201.283C141.764 201.511 142.007 201.839 142.167 202.265C142.335 202.684 142.419 203.178 142.419 203.749C142.419 204.381 142.304 204.921 142.076 205.37C141.855 205.812 141.562 206.151 141.197 206.387C140.832 206.623 140.44 206.741 140.021 206.741ZM139.884 206.033C140.211 206.033 140.5 205.941 140.752 205.759C141.003 205.576 141.201 205.313 141.345 204.971C141.49 204.628 141.562 204.225 141.562 203.761C141.562 203.342 141.509 202.973 141.402 202.653C141.303 202.334 141.14 202.086 140.911 201.911C140.691 201.728 140.398 201.637 140.032 201.637C139.789 201.637 139.538 201.706 139.279 201.843C139.02 201.972 138.75 202.17 138.468 202.436V205.428C138.727 205.648 138.982 205.804 139.233 205.896C139.484 205.987 139.701 206.033 139.884 206.033ZM146.047 206.741C145.598 206.741 145.179 206.626 144.791 206.398C144.403 206.17 144.091 205.842 143.855 205.416C143.619 204.982 143.501 204.457 143.501 203.841C143.501 203.224 143.619 202.699 143.855 202.265C144.091 201.831 144.403 201.5 144.791 201.272C145.179 201.043 145.598 200.929 146.047 200.929C146.496 200.929 146.911 201.043 147.291 201.272C147.679 201.5 147.991 201.831 148.227 202.265C148.471 202.699 148.593 203.224 148.593 203.841C148.593 204.457 148.471 204.982 148.227 205.416C147.991 205.842 147.679 206.17 147.291 206.398C146.911 206.626 146.496 206.741 146.047 206.741ZM146.047 206.044C146.382 206.044 146.675 205.953 146.926 205.77C147.185 205.587 147.382 205.332 147.519 205.005C147.664 204.67 147.736 204.282 147.736 203.841C147.736 203.407 147.664 203.022 147.519 202.687C147.382 202.353 147.185 202.094 146.926 201.911C146.675 201.721 146.382 201.626 146.047 201.626C145.719 201.626 145.426 201.721 145.168 201.911C144.916 202.094 144.718 202.353 144.574 202.687C144.437 203.022 144.368 203.407 144.368 203.841C144.368 204.282 144.437 204.67 144.574 205.005C144.718 205.332 144.916 205.587 145.168 205.77C145.426 205.953 145.719 206.044 146.047 206.044ZM151.288 206.604L149.267 201.066H150.123L151.219 204.297C151.31 204.564 151.398 204.834 151.482 205.108C151.573 205.382 151.661 205.652 151.744 205.918H151.79C151.874 205.652 151.961 205.382 152.053 205.108C152.144 204.834 152.231 204.564 152.315 204.297L153.411 201.066H154.233L152.247 206.604H151.288ZM157.533 206.741C157.053 206.741 156.612 206.626 156.208 206.398C155.812 206.162 155.497 205.831 155.261 205.405C155.025 204.971 154.907 204.449 154.907 203.841C154.907 203.239 155.025 202.722 155.261 202.288C155.497 201.854 155.801 201.519 156.174 201.283C156.555 201.047 156.958 200.929 157.384 200.929C157.841 200.929 158.233 201.036 158.56 201.249C158.887 201.462 159.135 201.763 159.302 202.151C159.477 202.531 159.565 202.988 159.565 203.521C159.565 203.612 159.561 203.704 159.553 203.795C159.553 203.879 159.546 203.955 159.531 204.023H155.557L155.546 203.418H158.823C158.823 202.824 158.697 202.375 158.446 202.071C158.195 201.759 157.845 201.603 157.396 201.603C157.122 201.603 156.855 201.683 156.596 201.843C156.338 202.002 156.124 202.246 155.957 202.573C155.79 202.901 155.706 203.323 155.706 203.841C155.706 204.335 155.793 204.746 155.968 205.074C156.143 205.401 156.376 205.648 156.665 205.816C156.962 205.983 157.285 206.067 157.635 206.067C157.917 206.067 158.168 206.025 158.389 205.941C158.617 205.858 158.834 205.751 159.04 205.622L159.348 206.17C159.112 206.322 158.846 206.455 158.549 206.569C158.259 206.683 157.921 206.741 157.533 206.741Z" fill="black"/>
<path d="M123.722 103.106V102.615C124.468 101.861 125.1 101.203 125.617 100.64C126.135 100.069 126.527 99.5588 126.793 99.1097C127.059 98.6606 127.193 98.2344 127.193 97.831C127.193 97.4048 127.075 97.0546 126.839 96.7806C126.61 96.5066 126.249 96.3696 125.754 96.3696C125.45 96.3696 125.16 96.4533 124.886 96.6208C124.62 96.7882 124.38 97.0013 124.167 97.2601L123.676 96.7806C123.981 96.4533 124.304 96.1907 124.647 95.9928C124.989 95.7873 125.393 95.6846 125.857 95.6846C126.298 95.6846 126.679 95.7721 126.999 95.9472C127.326 96.1222 127.577 96.3696 127.752 96.6893C127.927 97.0013 128.015 97.3705 128.015 97.7967C128.015 98.261 127.882 98.7291 127.615 99.201C127.356 99.673 126.995 100.175 126.53 100.708C126.074 101.233 125.545 101.812 124.943 102.444C125.141 102.428 125.347 102.417 125.56 102.409C125.773 102.394 125.975 102.386 126.165 102.386H128.369V103.106H123.722ZM131.716 103.243C131.267 103.243 130.864 103.159 130.506 102.992C130.148 102.816 129.866 102.577 129.661 102.272C129.455 101.968 129.353 101.625 129.353 101.245C129.353 100.925 129.421 100.64 129.558 100.388C129.695 100.137 129.87 99.9165 130.083 99.7262C130.296 99.536 130.517 99.3799 130.746 99.2581V99.2125C130.479 99.0222 130.239 98.79 130.026 98.516C129.821 98.242 129.718 97.9147 129.718 97.5341C129.718 97.1612 129.806 96.8377 129.981 96.5637C130.163 96.2821 130.407 96.0651 130.711 95.9129C131.016 95.7607 131.358 95.6846 131.739 95.6846C132.378 95.6846 132.877 95.8672 133.234 96.2326C133.6 96.5903 133.783 97.0508 133.783 97.6141C133.783 97.8729 133.725 98.1164 133.611 98.3448C133.505 98.5655 133.371 98.7672 133.212 98.9499C133.059 99.1325 132.911 99.281 132.766 99.3951V99.4408C132.979 99.5702 133.181 99.7186 133.371 99.8861C133.569 100.046 133.729 100.244 133.851 100.48C133.973 100.708 134.034 100.982 134.034 101.302C134.034 101.667 133.939 101.994 133.748 102.284C133.558 102.573 133.288 102.805 132.938 102.98C132.588 103.155 132.18 103.243 131.716 103.243ZM131.739 102.615C132.036 102.615 132.294 102.558 132.515 102.444C132.744 102.329 132.919 102.173 133.04 101.975C133.17 101.77 133.234 101.542 133.234 101.29C133.234 100.955 133.139 100.685 132.949 100.48C132.759 100.274 132.508 100.099 132.196 99.9546C131.891 99.81 131.556 99.6653 131.191 99.5207C130.886 99.7186 130.628 99.9546 130.414 100.229C130.209 100.503 130.106 100.818 130.106 101.176C130.106 101.45 130.175 101.698 130.312 101.918C130.456 102.131 130.65 102.303 130.894 102.432C131.145 102.554 131.427 102.615 131.739 102.615ZM132.23 99.1782C132.496 98.9423 132.698 98.6987 132.835 98.4475C132.979 98.1963 133.052 97.9299 133.052 97.6483C133.052 97.4048 132.999 97.184 132.892 96.9861C132.793 96.7806 132.645 96.617 132.447 96.4952C132.249 96.3734 132.009 96.3125 131.727 96.3125C131.37 96.3125 131.073 96.4267 130.837 96.655C130.609 96.8758 130.494 97.1688 130.494 97.5341C130.494 97.8386 130.574 98.0898 130.734 98.2877C130.902 98.4856 131.119 98.653 131.385 98.79C131.651 98.927 131.933 99.0564 132.23 99.1782ZM135.885 103.243C135.718 103.243 135.57 103.182 135.44 103.06C135.318 102.938 135.257 102.778 135.257 102.581C135.257 102.375 135.318 102.211 135.44 102.09C135.57 101.968 135.718 101.907 135.885 101.907C136.06 101.907 136.209 101.968 136.331 102.09C136.452 102.211 136.513 102.375 136.513 102.581C136.513 102.778 136.452 102.938 136.331 103.06C136.209 103.182 136.06 103.243 135.885 103.243ZM140.306 103.243C139.948 103.243 139.617 103.17 139.313 103.026C139.008 102.881 138.746 102.664 138.525 102.375C138.312 102.078 138.141 101.713 138.011 101.279C137.889 100.838 137.828 100.331 137.828 99.7605C137.828 99.0146 137.905 98.3828 138.057 97.8652C138.209 97.3477 138.411 96.929 138.662 96.6094C138.921 96.2897 139.214 96.0575 139.541 95.9129C139.876 95.7607 140.222 95.6846 140.58 95.6846C140.961 95.6846 141.288 95.7569 141.562 95.9015C141.843 96.0385 142.083 96.2174 142.281 96.4381L141.813 96.9633C141.661 96.7806 141.478 96.6398 141.265 96.5409C141.06 96.4343 140.839 96.381 140.603 96.381C140.245 96.381 139.914 96.4876 139.61 96.7007C139.313 96.9138 139.073 97.2677 138.89 97.7625C138.708 98.2496 138.616 98.9156 138.616 99.7605C138.616 100.354 138.681 100.864 138.81 101.29C138.94 101.709 139.13 102.029 139.381 102.249C139.632 102.47 139.944 102.581 140.317 102.581C140.561 102.581 140.782 102.512 140.98 102.375C141.185 102.23 141.345 102.033 141.459 101.781C141.573 101.53 141.63 101.245 141.63 100.925C141.63 100.598 141.577 100.312 141.471 100.069C141.372 99.8252 141.219 99.6387 141.014 99.5093C140.808 99.3723 140.546 99.3038 140.226 99.3038C139.982 99.3038 139.716 99.3837 139.427 99.5436C139.138 99.7034 138.86 99.9774 138.593 100.366L138.571 99.6806C138.807 99.3685 139.084 99.1211 139.404 98.9385C139.724 98.7558 140.043 98.6644 140.363 98.6644C140.782 98.6644 141.143 98.752 141.448 98.927C141.76 99.0945 142 99.3457 142.167 99.6806C142.334 100.008 142.418 100.423 142.418 100.925C142.418 101.382 142.323 101.785 142.133 102.135C141.942 102.478 141.687 102.748 141.368 102.946C141.048 103.144 140.694 103.243 140.306 103.243ZM145.172 103.243L149.316 95.4676H149.899L145.754 103.243H145.172ZM144.978 100.126C144.643 100.126 144.346 100.035 144.087 99.8518C143.836 99.6615 143.642 99.3913 143.505 99.0412C143.368 98.6835 143.299 98.2534 143.299 97.7511C143.299 96.9975 143.452 96.4191 143.756 96.0157C144.068 95.6046 144.475 95.3991 144.978 95.3991C145.488 95.3991 145.895 95.6046 146.199 96.0157C146.504 96.4191 146.656 96.9975 146.656 97.7511C146.656 98.2534 146.588 98.6835 146.451 99.0412C146.314 99.3913 146.119 99.6615 145.868 99.8518C145.617 100.035 145.32 100.126 144.978 100.126ZM144.978 99.6006C145.29 99.6006 145.541 99.4446 145.731 99.1325C145.922 98.8129 146.017 98.3524 146.017 97.7511C146.017 97.1422 145.922 96.6855 145.731 96.381C145.541 96.0766 145.29 95.9243 144.978 95.9243C144.673 95.9243 144.422 96.0766 144.224 96.381C144.034 96.6855 143.939 97.1422 143.939 97.7511C143.939 98.3524 144.034 98.8129 144.224 99.1325C144.422 99.4446 144.673 99.6006 144.978 99.6006ZM150.127 103.243C149.784 103.243 149.487 103.151 149.236 102.969C148.985 102.778 148.791 102.508 148.654 102.158C148.517 101.8 148.449 101.37 148.449 100.868C148.449 100.114 148.601 99.536 148.905 99.1325C149.21 98.7215 149.617 98.516 150.127 98.516C150.637 98.516 151.044 98.7215 151.348 99.1325C151.653 99.536 151.805 100.114 151.805 100.868C151.805 101.37 151.733 101.8 151.588 102.158C151.451 102.508 151.257 102.778 151.006 102.969C150.755 103.151 150.462 103.243 150.127 103.243ZM150.127 102.718C150.439 102.718 150.686 102.561 150.869 102.249C151.059 101.93 151.154 101.469 151.154 100.868C151.154 100.259 151.059 99.8024 150.869 99.4979C150.686 99.1934 150.439 99.0412 150.127 99.0412C149.822 99.0412 149.571 99.1934 149.373 99.4979C149.183 99.8024 149.088 100.259 149.088 100.868C149.088 101.469 149.183 101.93 149.373 102.249C149.571 102.561 149.822 102.718 150.127 102.718ZM113.75 118.243C113.126 118.243 112.57 118.09 112.083 117.786C111.596 117.474 111.211 117.029 110.93 116.45C110.648 115.864 110.507 115.168 110.507 114.361C110.507 113.752 110.587 113.212 110.747 112.74C110.914 112.26 111.147 111.849 111.443 111.507C111.748 111.164 112.098 110.905 112.494 110.73C112.897 110.555 113.335 110.468 113.807 110.468C114.264 110.468 114.663 110.563 115.006 110.753C115.356 110.936 115.634 111.145 115.839 111.381L115.371 111.94C115.173 111.72 114.945 111.545 114.686 111.415C114.435 111.278 114.146 111.21 113.818 111.21C113.331 111.21 112.905 111.339 112.54 111.598C112.174 111.849 111.889 112.211 111.683 112.683C111.485 113.147 111.386 113.699 111.386 114.338C111.386 114.985 111.482 115.544 111.672 116.016C111.87 116.488 112.148 116.854 112.505 117.112C112.871 117.371 113.297 117.501 113.784 117.501C114.157 117.501 114.484 117.424 114.766 117.272C115.055 117.12 115.322 116.907 115.565 116.633L116.033 117.158C115.744 117.501 115.413 117.767 115.04 117.957C114.667 118.148 114.237 118.243 113.75 118.243ZM119.496 118.243C119.047 118.243 118.629 118.129 118.241 117.9C117.852 117.672 117.54 117.345 117.304 116.918C117.068 116.484 116.95 115.959 116.95 115.343C116.95 114.726 117.068 114.201 117.304 113.767C117.54 113.333 117.852 113.002 118.241 112.774C118.629 112.546 119.047 112.431 119.496 112.431C119.945 112.431 120.36 112.546 120.741 112.774C121.129 113.002 121.441 113.333 121.677 113.767C121.921 114.201 122.042 114.726 122.042 115.343C122.042 115.959 121.921 116.484 121.677 116.918C121.441 117.345 121.129 117.672 120.741 117.9C120.36 118.129 119.945 118.243 119.496 118.243ZM119.496 117.546C119.831 117.546 120.124 117.455 120.376 117.272C120.634 117.09 120.832 116.835 120.969 116.507C121.114 116.172 121.186 115.784 121.186 115.343C121.186 114.909 121.114 114.525 120.969 114.19C120.832 113.855 120.634 113.596 120.376 113.413C120.124 113.223 119.831 113.128 119.496 113.128C119.169 113.128 118.876 113.223 118.617 113.413C118.366 113.596 118.168 113.855 118.024 114.19C117.887 114.525 117.818 114.909 117.818 115.343C117.818 115.784 117.887 116.172 118.024 116.507C118.168 116.835 118.366 117.09 118.617 117.272C118.876 117.455 119.169 117.546 119.496 117.546ZM123.55 118.106V112.568H124.235L124.303 113.39H124.338C124.581 113.124 124.848 112.899 125.137 112.717C125.434 112.527 125.742 112.431 126.062 112.431C126.496 112.431 126.83 112.53 127.066 112.728C127.31 112.919 127.485 113.177 127.592 113.505C127.888 113.185 128.185 112.926 128.482 112.728C128.787 112.53 129.102 112.431 129.43 112.431C130.001 112.431 130.423 112.614 130.697 112.979C130.971 113.345 131.108 113.881 131.108 114.589V118.106H130.275V114.692C130.275 114.159 130.187 113.771 130.012 113.527C129.837 113.284 129.563 113.162 129.19 113.162C128.969 113.162 128.737 113.238 128.494 113.39C128.258 113.535 128.006 113.756 127.74 114.053V118.106H126.907V114.692C126.907 114.159 126.819 113.771 126.644 113.527C126.477 113.284 126.206 113.162 125.833 113.162C125.392 113.162 124.905 113.459 124.372 114.053V118.106H123.55ZM132.971 118.106V112.568H133.656L133.725 113.39H133.759C134.003 113.124 134.269 112.899 134.558 112.717C134.855 112.527 135.163 112.431 135.483 112.431C135.917 112.431 136.252 112.53 136.488 112.728C136.731 112.919 136.906 113.177 137.013 113.505C137.31 113.185 137.607 112.926 137.904 112.728C138.208 112.53 138.524 112.431 138.851 112.431C139.422 112.431 139.844 112.614 140.118 112.979C140.392 113.345 140.529 113.881 140.529 114.589V118.106H139.696V114.692C139.696 114.159 139.608 113.771 139.433 113.527C139.258 113.284 138.984 113.162 138.611 113.162C138.391 113.162 138.158 113.238 137.915 113.39C137.679 113.535 137.428 113.756 137.161 114.053V118.106H136.328V114.692C136.328 114.159 136.24 113.771 136.065 113.527C135.898 113.284 135.628 113.162 135.255 113.162C134.813 113.162 134.326 113.459 133.793 114.053V118.106H132.971ZM143.991 118.243C143.42 118.243 142.998 118.06 142.724 117.695C142.45 117.329 142.313 116.793 142.313 116.085V112.568H143.135V115.982C143.135 116.515 143.222 116.907 143.397 117.158C143.572 117.402 143.854 117.523 144.242 117.523C144.531 117.523 144.794 117.447 145.03 117.295C145.266 117.135 145.521 116.884 145.795 116.542V112.568H146.628V118.106H145.932L145.863 117.227H145.829C145.57 117.531 145.296 117.778 145.007 117.969C144.718 118.151 144.379 118.243 143.991 118.243ZM148.558 118.106V112.568H149.243L149.312 113.39H149.346C149.613 113.116 149.894 112.888 150.191 112.705C150.495 112.523 150.834 112.431 151.207 112.431C151.793 112.431 152.219 112.614 152.486 112.979C152.76 113.345 152.897 113.881 152.897 114.589V118.106H152.063V114.692C152.063 114.159 151.976 113.771 151.801 113.527C151.633 113.284 151.356 113.162 150.967 113.162C150.678 113.162 150.416 113.238 150.18 113.39C149.944 113.535 149.677 113.756 149.38 114.053V118.106H148.558ZM154.758 118.106V112.568H155.58V118.106H154.758ZM155.18 111.381C155.02 111.381 154.883 111.328 154.769 111.221C154.662 111.115 154.609 110.974 154.609 110.799C154.609 110.631 154.662 110.498 154.769 110.399C154.883 110.293 155.02 110.239 155.18 110.239C155.347 110.239 155.484 110.293 155.591 110.399C155.698 110.498 155.751 110.631 155.751 110.799C155.751 110.974 155.698 111.115 155.591 111.221C155.484 111.328 155.347 111.381 155.18 111.381ZM159.201 118.243C158.63 118.243 158.23 118.075 158.002 117.74C157.781 117.405 157.671 116.972 157.671 116.439V113.253H156.838V112.625L157.705 112.568L157.808 111.004H158.505V112.568H160.023V113.253H158.505V116.462C158.505 116.804 158.565 117.074 158.687 117.272C158.817 117.463 159.049 117.558 159.384 117.558C159.483 117.558 159.589 117.542 159.703 117.512C159.825 117.482 159.932 117.447 160.023 117.409L160.194 118.037C160.042 118.09 159.878 118.136 159.703 118.174C159.528 118.22 159.361 118.243 159.201 118.243ZM161.314 120.526C161.192 120.526 161.078 120.515 160.971 120.492C160.865 120.469 160.77 120.442 160.686 120.412L160.846 119.738C160.907 119.761 160.975 119.78 161.051 119.795C161.135 119.818 161.211 119.83 161.279 119.83C161.599 119.83 161.866 119.708 162.079 119.464C162.292 119.228 162.455 118.928 162.57 118.562L162.707 118.14L160.469 112.568H161.325L162.513 115.742C162.604 115.978 162.695 116.233 162.787 116.507C162.886 116.774 162.977 117.036 163.061 117.295H163.106C163.19 117.044 163.274 116.785 163.357 116.519C163.441 116.245 163.517 115.986 163.586 115.742L164.625 112.568H165.435L163.335 118.619C163.205 118.97 163.053 119.289 162.878 119.579C162.703 119.868 162.486 120.096 162.227 120.264C161.976 120.439 161.671 120.526 161.314 120.526ZM114.129 133.243C113.642 133.243 113.204 133.129 112.816 132.9C112.428 132.672 112.119 132.345 111.891 131.918C111.663 131.484 111.548 130.959 111.548 130.343C111.548 129.726 111.67 129.201 111.914 128.767C112.165 128.333 112.488 128.002 112.884 127.774C113.28 127.546 113.714 127.431 114.186 127.431C114.551 127.431 114.863 127.5 115.122 127.637C115.381 127.766 115.605 127.919 115.796 128.094L115.362 128.642C115.202 128.489 115.027 128.368 114.837 128.276C114.654 128.177 114.448 128.128 114.22 128.128C113.87 128.128 113.558 128.223 113.284 128.413C113.017 128.596 112.804 128.855 112.644 129.19C112.492 129.525 112.416 129.909 112.416 130.343C112.416 130.784 112.488 131.172 112.633 131.507C112.785 131.835 112.995 132.09 113.261 132.272C113.527 132.455 113.839 132.546 114.197 132.546C114.464 132.546 114.711 132.489 114.939 132.375C115.168 132.261 115.369 132.128 115.544 131.975L115.91 132.535C115.666 132.756 115.392 132.931 115.088 133.06C114.783 133.182 114.464 133.243 114.129 133.243ZM119.279 133.243C118.83 133.243 118.411 133.129 118.023 132.9C117.635 132.672 117.323 132.345 117.087 131.918C116.851 131.484 116.733 130.959 116.733 130.343C116.733 129.726 116.851 129.201 117.087 128.767C117.323 128.333 117.635 128.002 118.023 127.774C118.411 127.546 118.83 127.431 119.279 127.431C119.728 127.431 120.143 127.546 120.523 127.774C120.912 128.002 121.224 128.333 121.46 128.767C121.703 129.201 121.825 129.726 121.825 130.343C121.825 130.959 121.703 131.484 121.46 131.918C121.224 132.345 120.912 132.672 120.523 132.9C120.143 133.129 119.728 133.243 119.279 133.243ZM119.279 132.546C119.614 132.546 119.907 132.455 120.158 132.272C120.417 132.09 120.615 131.835 120.752 131.507C120.896 131.172 120.969 130.784 120.969 130.343C120.969 129.909 120.896 129.525 120.752 129.19C120.615 128.855 120.417 128.596 120.158 128.413C119.907 128.223 119.614 128.128 119.279 128.128C118.952 128.128 118.659 128.223 118.4 128.413C118.149 128.596 117.951 128.855 117.806 129.19C117.669 129.525 117.601 129.909 117.601 130.343C117.601 130.784 117.669 131.172 117.806 131.507C117.951 131.835 118.149 132.09 118.4 132.272C118.659 132.455 118.952 132.546 119.279 132.546ZM123.333 133.106V127.568H124.018L124.086 128.39H124.12C124.387 128.116 124.668 127.888 124.965 127.705C125.27 127.523 125.608 127.431 125.981 127.431C126.567 127.431 126.994 127.614 127.26 127.979C127.534 128.345 127.671 128.881 127.671 129.589V133.106H126.838V129.692C126.838 129.159 126.75 128.771 126.575 128.527C126.408 128.284 126.13 128.162 125.742 128.162C125.452 128.162 125.19 128.238 124.954 128.39C124.718 128.535 124.451 128.756 124.155 129.053V133.106H123.333ZM129.532 133.106V127.568H130.217L130.285 128.39H130.319C130.586 128.116 130.867 127.888 131.164 127.705C131.469 127.523 131.807 127.431 132.18 127.431C132.767 127.431 133.193 127.614 133.459 127.979C133.733 128.345 133.87 128.881 133.87 129.589V133.106H133.037V129.692C133.037 129.159 132.949 128.771 132.774 128.527C132.607 128.284 132.329 128.162 131.941 128.162C131.651 128.162 131.389 128.238 131.153 128.39C130.917 128.535 130.651 128.756 130.354 129.053V133.106H129.532ZM137.923 133.243C137.443 133.243 137.002 133.129 136.599 132.9C136.203 132.664 135.887 132.333 135.651 131.907C135.415 131.473 135.297 130.952 135.297 130.343C135.297 129.741 135.415 129.224 135.651 128.79C135.887 128.356 136.191 128.021 136.564 127.785C136.945 127.549 137.348 127.431 137.774 127.431C138.231 127.431 138.623 127.538 138.95 127.751C139.278 127.964 139.525 128.265 139.693 128.653C139.868 129.034 139.955 129.49 139.955 130.023C139.955 130.114 139.951 130.206 139.944 130.297C139.944 130.381 139.936 130.457 139.921 130.525H135.948L135.936 129.92H139.213C139.213 129.327 139.087 128.878 138.836 128.573C138.585 128.261 138.235 128.105 137.786 128.105C137.512 128.105 137.245 128.185 136.987 128.345C136.728 128.505 136.515 128.748 136.347 129.075C136.18 129.403 136.096 129.825 136.096 130.343C136.096 130.838 136.184 131.249 136.359 131.576C136.534 131.903 136.766 132.15 137.055 132.318C137.352 132.485 137.676 132.569 138.026 132.569C138.307 132.569 138.558 132.527 138.779 132.444C139.008 132.36 139.224 132.253 139.43 132.124L139.738 132.672C139.502 132.824 139.236 132.957 138.939 133.071C138.65 133.186 138.311 133.243 137.923 133.243ZM143.497 133.243C143.009 133.243 142.572 133.129 142.184 132.9C141.795 132.672 141.487 132.345 141.259 131.918C141.031 131.484 140.916 130.959 140.916 130.343C140.916 129.726 141.038 129.201 141.282 128.767C141.533 128.333 141.856 128.002 142.252 127.774C142.648 127.546 143.082 127.431 143.554 127.431C143.919 127.431 144.231 127.5 144.49 127.637C144.749 127.766 144.973 127.919 145.164 128.094L144.73 128.642C144.57 128.489 144.395 128.368 144.204 128.276C144.022 128.177 143.816 128.128 143.588 128.128C143.238 128.128 142.926 128.223 142.652 128.413C142.385 128.596 142.172 128.855 142.012 129.19C141.86 129.525 141.784 129.909 141.784 130.343C141.784 130.784 141.856 131.172 142.001 131.507C142.153 131.835 142.363 132.09 142.629 132.272C142.895 132.455 143.207 132.546 143.565 132.546C143.832 132.546 144.079 132.489 144.307 132.375C144.536 132.261 144.737 132.128 144.912 131.975L145.278 132.535C145.034 132.756 144.76 132.931 144.456 133.06C144.151 133.182 143.832 133.243 143.497 133.243ZM148.213 133.243C147.642 133.243 147.243 133.075 147.014 132.74C146.794 132.405 146.683 131.972 146.683 131.439V128.253H145.85V127.625L146.717 127.568L146.82 126.004H147.517V127.568H149.035V128.253H147.517V131.462C147.517 131.804 147.578 132.074 147.699 132.272C147.829 132.463 148.061 132.558 148.396 132.558C148.495 132.558 148.601 132.542 148.715 132.512C148.837 132.482 148.944 132.447 149.035 132.409L149.206 133.037C149.054 133.09 148.89 133.136 148.715 133.174C148.54 133.22 148.373 133.243 148.213 133.243ZM150.314 133.106V127.568H151.136V133.106H150.314ZM150.737 126.381C150.577 126.381 150.44 126.328 150.326 126.221C150.219 126.115 150.166 125.974 150.166 125.799C150.166 125.631 150.219 125.498 150.326 125.399C150.44 125.293 150.577 125.239 150.737 125.239C150.904 125.239 151.041 125.293 151.148 125.399C151.254 125.498 151.308 125.631 151.308 125.799C151.308 125.974 151.254 126.115 151.148 126.221C151.041 126.328 150.904 126.381 150.737 126.381ZM155.192 133.243C154.743 133.243 154.324 133.129 153.936 132.9C153.548 132.672 153.236 132.345 153 131.918C152.764 131.484 152.646 130.959 152.646 130.343C152.646 129.726 152.764 129.201 153 128.767C153.236 128.333 153.548 128.002 153.936 127.774C154.324 127.546 154.743 127.431 155.192 127.431C155.641 127.431 156.056 127.546 156.436 127.774C156.824 128.002 157.136 128.333 157.372 128.767C157.616 129.201 157.738 129.726 157.738 130.343C157.738 130.959 157.616 131.484 157.372 131.918C157.136 132.345 156.824 132.672 156.436 132.9C156.056 133.129 155.641 133.243 155.192 133.243ZM155.192 132.546C155.527 132.546 155.82 132.455 156.071 132.272C156.33 132.09 156.528 131.835 156.665 131.507C156.809 131.172 156.881 130.784 156.881 130.343C156.881 129.909 156.809 129.525 156.665 129.19C156.528 128.855 156.33 128.596 156.071 128.413C155.82 128.223 155.527 128.128 155.192 128.128C154.864 128.128 154.571 128.223 154.313 128.413C154.061 128.596 153.864 128.855 153.719 129.19C153.582 129.525 153.513 129.909 153.513 130.343C153.513 130.784 153.582 131.172 153.719 131.507C153.864 131.835 154.061 132.09 154.313 132.272C154.571 132.455 154.864 132.546 155.192 132.546ZM159.245 133.106V127.568H159.93L159.999 128.39H160.033C160.299 128.116 160.581 127.888 160.878 127.705C161.182 127.523 161.521 127.431 161.894 127.431C162.48 127.431 162.906 127.614 163.173 127.979C163.447 128.345 163.584 128.881 163.584 129.589V133.106H162.75V129.692C162.75 129.159 162.663 128.771 162.488 128.527C162.32 128.284 162.042 128.162 161.654 128.162C161.365 128.162 161.102 128.238 160.866 128.39C160.631 128.535 160.364 128.756 160.067 129.053V133.106H159.245Z" fill="white"/>
</svg>
