<svg width="24" height="25" viewBox="0 0 24 25" fill="none" xmlns="http://www.w3.org/2000/svg">
<path d="M12 22.2694C14.5461 22.2694 16.9879 21.258 18.7882 19.4577C20.5886 17.6573 21.6 15.2155 21.6 12.6694C21.6 10.1234 20.5886 7.68156 18.7882 5.88121C16.9879 4.08086 14.5461 3.06943 12 3.06943C9.45392 3.06943 7.01212 4.08086 5.21178 5.88121C3.41143 7.68156 2.4 10.1234 2.4 12.6694C2.4 15.2155 3.41143 17.6573 5.21178 19.4577C7.01212 21.258 9.45392 22.2694 12 22.2694ZM12 24.6694C5.3724 24.6694 0 19.297 0 12.6694C0 6.04183 5.3724 0.669434 12 0.669434C18.6276 0.669434 24 6.04183 24 12.6694C24 19.297 18.6276 24.6694 12 24.6694Z" fill="#F7F7F5"/>
<path d="M18 9.00604C17.5584 9.19804 17.0844 9.33004 16.5864 9.38764C17.0952 9.08764 17.484 8.61244 17.6688 8.04724C17.184 8.3298 16.6549 8.52859 16.104 8.63524C15.8723 8.39233 15.5935 8.19917 15.2846 8.06754C14.9758 7.93592 14.6433 7.86858 14.3076 7.86964C12.948 7.86964 11.8464 8.95564 11.8464 10.2936C11.8464 10.4832 11.868 10.668 11.91 10.8456C10.9348 10.7993 9.97994 10.5503 9.10638 10.1143C8.23281 9.67834 7.45971 9.06508 6.8364 8.31364C6.61748 8.68216 6.50221 9.103 6.5028 9.53164C6.5028 10.3716 6.9384 11.1156 7.5984 11.5488C7.20773 11.5366 6.82543 11.4326 6.4824 11.2452V11.2752C6.48611 11.8386 6.68496 12.3832 7.0451 12.8165C7.40524 13.2497 7.9044 13.5447 8.4576 13.6512C8.09443 13.7473 7.71443 13.7612 7.3452 13.692C7.50615 14.1767 7.81401 14.5992 8.22603 14.9009C8.63805 15.2026 9.13378 15.3685 9.6444 15.3756C8.76836 16.0507 7.69277 16.4154 6.5868 16.4124C6.3888 16.4124 6.1932 16.4004 6 16.3788C7.12857 17.0932 8.43716 17.4715 9.7728 17.4696C14.3016 17.4696 16.7772 13.776 16.7772 10.572L16.7688 10.2576C17.2516 9.91838 17.6687 9.4943 18 9.00604Z" fill="#F7F7F5"/>
</svg>
